<?xml version="1.0" encoding="UTF-8"?>
<svg xmlns="http://www.w3.org/2000/svg" xmlns:xlink="http://www.w3.org/1999/xlink" viewBox="0 0 856.21 770.5">
  <defs>
    <style>
      .cls-1 {
        fill: url(#linear-gradient-15);
      }

      .cls-2 {
        fill: url(#linear-gradient-13);
      }

      .cls-3 {
        fill: url(#linear-gradient-28);
      }

      .cls-4 {
        fill: url(#New_Gradient_Swatch_1-4);
      }

      .cls-5 {
        fill: url(#linear-gradient-42);
      }

      .cls-6 {
        fill: url(#New_Gradient_Swatch_1-3);
      }

      .cls-7 {
        fill: url(#New_Gradient_Swatch_1-8);
      }

      .cls-8 {
        fill: url(#linear-gradient-2);
      }

      .cls-9 {
        fill: url(#linear-gradient-25);
      }

      .cls-10 {
        fill: url(#linear-gradient-10);
      }

      .cls-11 {
        fill: url(#linear-gradient-12);
      }

      .cls-12 {
        fill: url(#New_Gradient_Swatch_1-10);
      }

      .cls-13 {
        fill: url(#linear-gradient-40);
      }

      .cls-14 {
        fill: url(#linear-gradient-27);
      }

      .cls-15, .cls-16 {
        fill: #231f20;
      }

      .cls-17 {
        opacity: .47;
      }

      .cls-17, .cls-18 {
        fill: #fff;
      }

      .cls-19 {
        fill: url(#linear-gradient-37);
      }

      .cls-20 {
        mix-blend-mode: screen;
      }

      .cls-20, .cls-21 {
        opacity: .5;
      }

      .cls-22 {
        fill: url(#linear-gradient-39);
      }

      .cls-23 {
        fill: url(#New_Gradient_Swatch_1-7);
      }

      .cls-24 {
        fill: url(#linear-gradient-26);
      }

      .cls-25 {
        fill: url(#linear-gradient-4);
      }

      .cls-26 {
        fill: url(#linear-gradient-35);
      }

      .cls-27 {
        fill: url(#linear-gradient-30);
      }

      .cls-16 {
        stroke: #231f20;
        stroke-miterlimit: 10;
        stroke-width: .5px;
      }

      .cls-28 {
        fill: url(#linear-gradient-3);
      }

      .cls-29 {
        fill: url(#linear-gradient-34);
      }

      .cls-30 {
        fill: url(#linear-gradient-5);
      }

      .cls-31 {
        fill: url(#linear-gradient-38);
      }

      .cls-32 {
        fill: url(#linear-gradient-22);
      }

      .cls-33 {
        fill: url(#linear-gradient-24);
      }

      .cls-34 {
        fill: url(#New_Gradient_Swatch_1-6);
      }

      .cls-35 {
        fill: url(#New_Gradient_Swatch_2-2);
      }

      .cls-36 {
        isolation: isolate;
      }

      .cls-37 {
        fill: url(#linear-gradient-33);
      }

      .cls-38 {
        fill: url(#linear-gradient-8);
      }

      .cls-39 {
        fill: url(#New_Gradient_Swatch_2);
      }

      .cls-40 {
        fill: url(#New_Gradient_Swatch_2-4);
      }

      .cls-41 {
        fill: url(#linear-gradient-14);
      }

      .cls-42 {
        fill: url(#New_Gradient_Swatch_1-2);
      }

      .cls-43 {
        fill: url(#linear-gradient-29);
      }

      .cls-44 {
        fill: url(#New_Gradient_Swatch_1-9);
      }

      .cls-45 {
        fill: url(#linear-gradient-20);
      }

      .cls-46 {
        fill: url(#linear-gradient-17);
      }

      .cls-47 {
        fill: url(#linear-gradient-7);
      }

      .cls-48 {
        fill: url(#linear-gradient-9);
      }

      .cls-49 {
        fill: url(#linear-gradient-11);
      }

      .cls-50 {
        fill: url(#linear-gradient-19);
      }

      .cls-51 {
        fill: url(#linear-gradient-6);
      }

      .cls-52 {
        fill: url(#New_Gradient_Swatch_1-5);
      }

      .cls-53 {
        fill: url(#linear-gradient-36);
      }

      .cls-54 {
        fill: url(#linear-gradient-21);
      }

      .cls-55 {
        fill: url(#linear-gradient-32);
      }

      .cls-56 {
        fill: url(#linear-gradient-41);
      }

      .cls-57 {
        fill: url(#linear-gradient-16);
      }

      .cls-58 {
        fill: url(#linear-gradient);
      }

      .cls-59 {
        fill: url(#linear-gradient-23);
      }

      .cls-60 {
        fill: url(#linear-gradient-31);
      }

      .cls-61 {
        fill: url(#New_Gradient_Swatch_1);
      }

      .cls-62 {
        fill: url(#linear-gradient-18);
      }

      .cls-63 {
        fill: url(#New_Gradient_Swatch_2-3);
      }

      .cls-21 {
        mix-blend-mode: multiply;
      }
    </style>
    <linearGradient id="New_Gradient_Swatch_2" data-name="New Gradient Swatch 2" x1="633.96" y1="474.22" x2="642.94" y2="371.55" gradientUnits="userSpaceOnUse">
      <stop offset="0" stop-color="#59bd80"/>
      <stop offset=".99" stop-color="#11864d"/>
    </linearGradient>
    <linearGradient id="New_Gradient_Swatch_2-2" data-name="New Gradient Swatch 2" x1="420.04" y1="447.99" x2="441.44" y2="295.76" xlink:href="#New_Gradient_Swatch_2"/>
    <linearGradient id="New_Gradient_Swatch_2-3" data-name="New Gradient Swatch 2" x1="240.73" y1="487.08" x2="200.57" y2="298.15" xlink:href="#New_Gradient_Swatch_2"/>
    <linearGradient id="linear-gradient" x1="433.69" y1="68.15" x2="410.79" y2="265.05" gradientUnits="userSpaceOnUse">
      <stop offset="0" stop-color="#11864d"/>
      <stop offset="1" stop-color="#59bd80"/>
    </linearGradient>
    <linearGradient id="linear-gradient-2" x1="709.84" y1="139.89" x2="650.21" y2="362.45" xlink:href="#linear-gradient"/>
    <linearGradient id="linear-gradient-3" x1="137.21" y1="77.7" x2="194.45" y2="282.61" xlink:href="#linear-gradient"/>
    <linearGradient id="New_Gradient_Swatch_1" data-name="New Gradient Swatch 1" x1="596.58" y1="181.76" x2="612.3" y2="190.84" gradientUnits="userSpaceOnUse">
      <stop offset="0" stop-color="#13a45d"/>
      <stop offset=".99" stop-color="#055d31"/>
    </linearGradient>
    <linearGradient id="New_Gradient_Swatch_1-2" data-name="New Gradient Swatch 1" x1="474.26" y1="163.53" x2="487.91" y2="165.94" xlink:href="#New_Gradient_Swatch_1"/>
    <linearGradient id="New_Gradient_Swatch_1-3" data-name="New Gradient Swatch 1" x1="426.66" y1="396.33" x2="444.83" y2="388.61" xlink:href="#New_Gradient_Swatch_1"/>
    <linearGradient id="New_Gradient_Swatch_1-4" data-name="New Gradient Swatch 1" x1="176.39" y1="317.69" x2="146.14" y2="333.1" xlink:href="#New_Gradient_Swatch_1"/>
    <linearGradient id="New_Gradient_Swatch_1-5" data-name="New Gradient Swatch 1" x1="637.22" y1="402.5" x2="655.55" y2="402.5" xlink:href="#New_Gradient_Swatch_1"/>
    <linearGradient id="New_Gradient_Swatch_1-6" data-name="New Gradient Swatch 1" x1="760.01" y1="378.21" x2="781.32" y2="378.21" xlink:href="#New_Gradient_Swatch_1"/>
    <linearGradient id="New_Gradient_Swatch_1-7" data-name="New Gradient Swatch 1" x1="645.55" y1="352.05" x2="651.88" y2="352.05" xlink:href="#New_Gradient_Swatch_1"/>
    <linearGradient id="New_Gradient_Swatch_1-8" data-name="New Gradient Swatch 1" x1="182.56" y1="50.18" x2="205.91" y2="50.18" xlink:href="#New_Gradient_Swatch_1"/>
    <linearGradient id="linear-gradient-4" x1="118.92" y1="50.25" x2="193.5" y2="50.25" gradientUnits="userSpaceOnUse">
      <stop offset="0" stop-color="#7fc9a2"/>
      <stop offset=".99" stop-color="#4a9973"/>
    </linearGradient>
    <linearGradient id="linear-gradient-5" x1="659.33" y1="68.37" x2="718.08" y2="68.37" xlink:href="#linear-gradient-4"/>
    <linearGradient id="linear-gradient-6" x1="699.74" y1="109.76" x2="758.27" y2="109.76" xlink:href="#linear-gradient-4"/>
    <linearGradient id="New_Gradient_Swatch_2-4" data-name="New Gradient Swatch 2" x1="301.37" y1="669.84" x2="550.55" y2="669.84" xlink:href="#New_Gradient_Swatch_2"/>
    <linearGradient id="New_Gradient_Swatch_1-9" data-name="New Gradient Swatch 1" x1="287.69" y1="680" x2="328.26" y2="680" xlink:href="#New_Gradient_Swatch_1"/>
    <linearGradient id="New_Gradient_Swatch_1-10" data-name="New Gradient Swatch 1" x1="453.13" y1="651.95" x2="550.61" y2="651.95" xlink:href="#New_Gradient_Swatch_1"/>
    <linearGradient id="linear-gradient-7" x1="763.62" y1="539.92" x2="763.62" y2="483.1" gradientUnits="userSpaceOnUse">
      <stop offset="0" stop-color="#fbb03c"/>
      <stop offset=".99" stop-color="#f15b27"/>
    </linearGradient>
    <linearGradient id="linear-gradient-8" x1="679.91" y1="523.52" x2="679.91" y2="482.89" xlink:href="#linear-gradient-7"/>
    <linearGradient id="linear-gradient-9" x1="599.83" y1="523.91" x2="599.83" y2="475.95" xlink:href="#linear-gradient-7"/>
    <linearGradient id="linear-gradient-10" x1="536.46" y1="541.83" x2="536.46" y2="470.96" xlink:href="#linear-gradient-7"/>
    <linearGradient id="linear-gradient-11" x1="443.97" y1="546.09" x2="443.97" y2="485.54" xlink:href="#linear-gradient-7"/>
    <linearGradient id="linear-gradient-12" x1="392.87" y1="549.06" x2="392.87" y2="482.06" xlink:href="#linear-gradient-7"/>
    <linearGradient id="linear-gradient-13" x1="331.85" y1="554.14" x2="331.85" y2="515.85" xlink:href="#linear-gradient-7"/>
    <linearGradient id="linear-gradient-14" x1="276.18" y1="544.82" x2="276.18" y2="483" xlink:href="#linear-gradient-7"/>
    <linearGradient id="linear-gradient-15" x1="194.35" y1="531.92" x2="194.35" y2="484.36" xlink:href="#linear-gradient-7"/>
    <linearGradient id="linear-gradient-16" x1="105.45" y1="534.12" x2="105.45" y2="459" xlink:href="#linear-gradient-7"/>
    <linearGradient id="linear-gradient-17" x1="335.69" y1="599.01" x2="335.69" y2="563.46" xlink:href="#linear-gradient-7"/>
    <linearGradient id="linear-gradient-18" x1="100.53" y1="600.62" x2="100.53" y2="549.61" xlink:href="#linear-gradient-7"/>
    <linearGradient id="linear-gradient-19" x1="278.2" y1="591.26" x2="278.2" y2="549.74" xlink:href="#linear-gradient-7"/>
    <linearGradient id="linear-gradient-20" x1="196.91" y1="592.53" x2="196.91" y2="544.59" xlink:href="#linear-gradient-7"/>
    <linearGradient id="linear-gradient-21" x1="393.81" y1="598.02" x2="393.81" y2="565.53" xlink:href="#linear-gradient-7"/>
    <linearGradient id="linear-gradient-22" x1="461.83" y1="601.37" x2="461.83" y2="563.08" xlink:href="#linear-gradient-7"/>
    <linearGradient id="linear-gradient-23" x1="760.93" y1="584.91" x2="760.93" y2="539.28" xlink:href="#linear-gradient-7"/>
    <linearGradient id="linear-gradient-24" x1="679.42" y1="588.7" x2="679.42" y2="532.4" xlink:href="#linear-gradient-7"/>
    <linearGradient id="linear-gradient-25" x1="538.4" y1="594.53" x2="538.4" y2="549.47" xlink:href="#linear-gradient-7"/>
    <linearGradient id="linear-gradient-26" x1="618.36" y1="596.85" x2="618.36" y2="535.63" xlink:href="#linear-gradient-7"/>
    <linearGradient id="linear-gradient-27" x1="790.26" y1="541.11" x2="838.74" y2="541.11" gradientUnits="userSpaceOnUse">
      <stop offset="0" stop-color="#faed24"/>
      <stop offset=".99" stop-color="#f79421"/>
    </linearGradient>
    <linearGradient id="linear-gradient-28" x1="17.47" y1="544.81" x2="65.82" y2="544.81" xlink:href="#linear-gradient-27"/>
    <linearGradient id="linear-gradient-29" x1="321.46" y1="495.83" x2="357.45" y2="495.83" xlink:href="#linear-gradient-27"/>
    <linearGradient id="linear-gradient-30" x1="317.53" y1="595.26" x2="336.38" y2="595.26" gradientUnits="userSpaceOnUse">
      <stop offset="0" stop-color="#f15b27"/>
      <stop offset=".98" stop-color="#c1282d"/>
    </linearGradient>
    <linearGradient id="linear-gradient-31" x1="354.66" y1="608.83" x2="371.09" y2="608.83" xlink:href="#linear-gradient-30"/>
    <linearGradient id="linear-gradient-32" x1="133.48" y1="575.29" x2="157.77" y2="575.29" xlink:href="#linear-gradient-30"/>
    <linearGradient id="linear-gradient-33" x1="92.55" y1="503.61" x2="104.5" y2="503.61" xlink:href="#linear-gradient-30"/>
    <linearGradient id="linear-gradient-34" x1="756.65" y1="514.34" x2="762.88" y2="514.34" xlink:href="#linear-gradient-30"/>
    <linearGradient id="linear-gradient-35" x1="609.13" y1="551.78" x2="615.34" y2="551.78" xlink:href="#linear-gradient-30"/>
    <linearGradient id="linear-gradient-36" x1="238.1" y1="593.81" x2="294.9" y2="593.81" xlink:href="#linear-gradient-30"/>
    <linearGradient id="linear-gradient-37" x1="755.02" y1="559.71" x2="760.53" y2="559.71" xlink:href="#linear-gradient-30"/>
    <linearGradient id="linear-gradient-38" x1="654.43" y1="606.43" x2="694.07" y2="606.43" xlink:href="#linear-gradient-30"/>
    <linearGradient id="linear-gradient-39" x1="718.53" y1="594.47" x2="794.92" y2="594.47" xlink:href="#linear-gradient-30"/>
    <linearGradient id="linear-gradient-40" x1="519.65" y1="607.53" x2="575.51" y2="607.53" xlink:href="#linear-gradient-30"/>
    <linearGradient id="linear-gradient-41" x1="222.91" y1="535.84" x2="244.58" y2="535.84" xlink:href="#linear-gradient-30"/>
    <linearGradient id="linear-gradient-42" x1="188.46" y1="551.95" x2="212.17" y2="551.95" xlink:href="#linear-gradient-30"/>
  </defs>
  <g class="cls-36">
    <g id="Layer_2" data-name="Layer 2">
      <g id="Layer_1-2" data-name="Layer 1">
        <g>
          <path class="cls-18" d="M301.84,768c-3.56,0-7.2-2.4-8.85-5.84-1.54-3.21-1.72-7.14-.53-12.02.28-1.14.6-2.27.92-3.36.65-2.25,1.26-4.38,1.45-6.52.14-1.58-.02-2.79-.47-3.69-.69-1.37-2.22-2.32-3.83-3.33-.4-.25-.8-.5-1.19-.76-.65-.43-1.27-.88-1.85-1.36.12,1.1.24,2.23.3,3.37.18,3.3-.36,5.92-1.64,8.02-1.51,2.48-4.22,4.09-6.89,4.09-.53,0-1.05-.06-1.56-.18-2.39-.57-4.43-2.44-5.6-5.13-1.74-4.02-1.14-8.37-.62-12.21.09-.68.19-1.35.27-2.02.69-5.8.32-11.58-.08-17.71-.3-4.69-.62-9.55-.4-14.38.52-11.46,4-23.1,10.36-34.6,2.74-4.96,6.02-10.62,10.2-15.01,3.85-4.05,8.66-7.95,14.28-11.59,3.16-2.04,6.52-3.96,10.28-5.84,3.25-1.63,6.59-3.22,10-4.74-7.23-2.73-13.24-7.6-17.42-14.14-.82.84-1.88,1.85-3.25,3.06-3.18,2.8-8.39,6.73-15.21,9.57-6.24,2.6-12.89,2.9-17.35,2.9-11.98,0-23.47-4.07-33.23-11.78-.68-.54-1.36-1.1-2.03-1.68-2.56-2.21-4.84-4.68-6.81-7.35-.43.47-.86.92-1.3,1.37-9.44,9.56-22.33,15.04-35.36,15.04-13.04-.03-24.09-4.95-33.78-15.02-.59.83-1.2,1.66-1.83,2.46l-.57.72c-5.11,6.41-14.61,18.33-55.05,20.74-1.28.08-2.57.12-3.85.12-10.82,0-21.79-2.74-32.6-8.16-16.16-8.08-28.16-22.54-32.11-38.67-.94-3.84-1.31-7.58-1.12-11.17-1.36.17-2.72.26-4.06.26-2.74,0-5.42-.37-7.96-1.09-7.95-2.25-14.42-7.98-17.32-15.33-2.39-6.06-2.17-12.65.63-18.55,5.24-11.05,17.03-15.56,20.52-16.68,3.43-1.1,7.06-1.66,10.79-1.66,2.95,0,5.96.35,8.99,1.04-3.23-8.38-4.31-17.59-3.04-26.45,2.57-18,14.27-34.7,31.29-44.69,7.07-4.15,14.67-6.99,22.65-8.48-19.2-22.26-35.14-46.51-47.42-72.14-21.87-45.62-31.87-97.43-28.91-149.8,1.85-32.78,8.8-61.78,20.65-86.18,15.53-31.97,38.44-55.6,63.19-65.33-8.65-16.98.96-37.02,15-45.99,7.79-4.98,17.45-7.61,27.94-7.61,6.76,0,13.85,1.1,20.58,3.2,4.14-2.25,9.05-3.45,14.19-3.45,6.43,0,13.01,1.86,18.52,5.23,8.23,5.04,14.78,13.47,18.43,23.73,1.96,5.5,3.13,11.64,3.5,18.25.09,1.68.05,3.37,0,5-.1,3.41-.19,6.63.98,9.49,1.19,2.92,4.37,5.28,7.44,7.57,1.29.96,2.62,1.95,3.78,2.97,3.49,3.07,6.59,6.07,9.37,9.07,5.23-25.27,27.77-46.54,52.75-49.12,1.89-.2,3.81-.29,5.72-.29,21.49,0,43.77,12.65,58.14,33.01,15.74,22.3,20.82,50.21,23.27,69.26,1.07,8.33,1.86,16.84,2.63,25.06,1.34,14.36,2.71,29.11,5.64,43.47,1.73-6.02,3.89-12.09,6.15-18.25,3.71-10.12,8.09-17.33,13.78-22.68,6.05-5.69,13.76-8.95,21.14-8.95,1.49,0,2.98.13,4.42.4,7.83,1.44,14.77,6.49,20.33,14.75,3.71-28.92,8.47-57.1,21.11-84.13,3.62-7.74,8.85-17.46,17.22-23.95,6.68-5.18,15.56-8.45,25.67-9.46.27-.03.54-.05.82-.08-.02-.67.23-1.34.74-1.84.49-.48,1.12-.73,1.76-.73s1.26.24,1.75.72l1.61,1.58c.37,0,.74,0,1.11,0,6.7,0,13.37.75,19.02,1.48,4.49.58,8.33,1.17,11.84,1.8l.45-26.68c.02-1.36,1.14-2.46,2.5-2.46h0c1.37,0,2.48,1.11,2.49,2.48l.26,27.8c5.27,1.17,9.96,2.56,14.26,4.22,2.13.82,4.23,1.74,6.24,2.74l13.1-12.67c.49-.47,1.11-.7,1.74-.7s1.29.25,1.77.74c.96.97.97,2.54,0,3.51l-11.64,11.86c6.39,3.86,11.61,8.53,15.56,13.9,1.84,2.5,3.41,5.2,4.69,8.05l13.21.23c1.37.02,2.46,1.14,2.46,2.51s-1.11,2.48-2.48,2.49l-11.21.1c2.2,7.2,2.7,15.12,1.49,23.61,9.87-7.76,20.86-14,32.76-18.58-1.35-4.95-2.08-10.61-2.74-15.67-.21-1.64-.42-3.25-.64-4.77-1.4-9.67-1.74-18.37-1.05-26.61,1.23-14.56,5.85-27.63,13.37-37.81,8.63-11.67,21.09-19.34,34.18-21.05,1.74-.23,3.53-.34,5.31-.34,12.82,0,24.71,5.65,31.81,15.12,6.07,8.09,8.69,19.01,7.2,29.95-1.19,8.67-4.96,17.39-11.24,26.01.73-.05,1.5-.09,2.33-.13.55-.02,1.02-.05,1.35-.07,1.43-.11,2.87-.17,4.29-.17,2.27,0,4.55.14,6.77.42,7.86.99,15.23,3.73,21.3,7.92,11.2,7.73,17.99,20.44,17.71,33.17-.16,7.38-2.84,14.69-7.54,20.59-.47.59-8.43,8.33-14.31,11.03,7.96,12.39,10.5,27.65,12.39,42.3,1.77,13.71,2.35,28.51,1.82,46.58-.33,11.27-1.04,22.72-1.73,33.8-1.16,18.69-2.36,38.01-1.76,56.94l.02.58c18.17,1.78,34.23,17.87,37.4,37.52.24,1.46.4,2.95.48,4.42,1.1,19.36-12.42,42.9-34.3,47.07-.16.03-.32.06-.49.09.64,15.8-3.64,33.64-7.34,45.83-.42,1.38-.87,2.75-1.35,4.1,1.2-.1,2.4-.15,3.59-.15,7.83,0,15.55,2.04,22.96,6.05,11.29,6.12,18.62,19.75,20.64,29.83.98,4.88,1.14,9.86.47,14.86.49-.16.98-.31,1.47-.45,4.07-1.19,7.86-1.77,11.59-1.77,1,0,2,.04,2.96.13,10.55.92,20.42,7.18,25.76,16.33.98,1.68,1.77,3.42,2.35,5.17,1.41,4.26,1.56,8.66.43,12.72-1.82,6.52-6.78,11.83-13.63,14.58-3.56,1.43-7.3,2.12-11.45,2.12-3.75,0-7.18-.57-10.26-1.16.25,2.55.28,5.13.08,7.71-.26,3.43-.93,6.81-1.99,10.05-.5,1.53-1.43,3.87-3.01,6.35-14.34,22.46-38.83,27.01-48.69,27.93-4.79.45-9.19.66-13.45.66-9.32,0-17.5-1.04-25.01-3.18-4.68-1.33-8.82-3.33-12.3-5.92-.15-.11-.33-.24-.51-.39-7.41,8.18-23.82,14.4-29.5,15.86l-.2.05c-6.83,1.64-13.87,2.47-20.93,2.47-3.01,0-6.08-.15-9.12-.45l-9.14-.89c-3.25,1.22-6.62,2.16-10.01,2.8-4.01.76-8.17,1.15-12.38,1.15-6.37,0-12.86-.87-19.29-2.6-4.49-1.21-9.77-2.83-14.81-5.77-1.16-.67-3.7-2.41-5.78-3.95-8.9,9.34-21.18,14.76-34.17,15.04,7.97,4.5,14.99,9.32,21.26,14.55,4.05,3.39,8.29,7.63,8.97,13.38.28,2.34-.09,4.68-1.09,6.96-2.01,4.56-6.48,8.4-11.68,10.04-2.6.82-5.31,1.22-8.28,1.22-6.77,0-13.48-2.11-19.97-4.16-.88-.28-1.75-.55-2.61-.82-12.26-3.79-24.12-5.83-35.24-6.07l-.84-.02c-1.76-.04-3.76-.08-5.92-.08-16.84,0-26.36,3.09-29.11,9.46-.79,1.82-1.16,3.86-1.55,6.02-.13.7-.26,1.4-.4,2.1-1.52,7.44-4.52,13.24-8.91,17.26-3.72,3.41-8.59,5.36-13.35,5.36-2.15,0-4.21-.4-6.11-1.19-6.97-2.9-10.96-10.32-12.57-16.94-1.23,2.73-1.21,5.98-.7,10.62,1.34,12.16-.91,21.24-6.68,27-3.85,3.84-9.31,5.96-15.36,5.96-.41,0-.82-.01-1.23-.03-2.83-.14-5.57-.72-8.15-1.74-1.23-.48-2.25-1.2-3.15-1.83-.33-.23-.64-.45-.95-.65,0,.38.03.77.06,1.17.07,1,.14,2.14-.03,3.33-.25,1.69-.77,4.19-2.42,6.36-1.4,1.83-3.51,2.97-5.5,2.97-.82,0-1.6-.18-2.33-.54-1.84-.92-3.05-2.96-3.17-5.33-.07-1.36.19-2.61.42-3.71.09-.43.18-.86.24-1.29.12-.8.19-1.6.2-2.4-.44.47-.99,1.17-1.65,2.21-.99,1.57-1.7,3.44-2.05,5.4-.55,3.06-.32,6.59.68,10.48.16.62.34,1.25.51,1.87.44,1.56.9,3.17,1.15,4.88.45,3.12.07,5.84-1.15,8.06-1.49,2.73-4.3,4.49-7.15,4.49-.26,0-.51-.01-.77-.04-1.47-.16-2.79-.79-3.72-1.77-2.17-2.27-1.65-5.58-1.43-6.99.14-.87.28-1.75.43-2.63.86-5.19,1.75-10.52.74-15.45-3.14,1.97-7.14,3.69-7.21,3.72-3.8,1.62-7.81,2.8-11.93,3.5-2.96.5-5.98.76-8.97.76-5.4,0-10.67-.81-15.67-2.42-.16-.05-.44-.14-.69-.2-.02.11-.04.25-.06.43-.21,1.79-.23,3.64-.25,5.6-.05,4.4-.1,8.96-2.35,13.12-1.2,2.23-2.85,3.84-4.77,4.65-.96.41-1.99.62-3.06.62ZM497.31,610.3c2.69.75,5.37,1.56,8.03,2.4-2.12-2.09-4.01-4.28-5.65-6.57-.72,1.44-1.51,2.83-2.38,4.17ZM389.65,601.09c-.12.82-.23,1.62-.35,2.4-.05.32-.1.64-.15.96.96-.16,1.92-.31,2.89-.45-.81-.93-1.6-1.9-2.39-2.9ZM102.5,564.45c.44.2,2.29.78,5.34.78,1.62,0,3.33-.19,4.45-.48.33-.09.63-.22.87-.37-.02-.04-.03-.08-.05-.12-.81-2.1-1.97-3.9-3.36-5.21-3.87-3.67-10.78-5.15-18.79-6.87-1.76-.38-3.62-.77-5.52-1.21,5.48,4.6,11.2,9.13,17.04,13.48ZM476.18,527.75c-.37.76-.73,1.51-1.09,2.27-3.99,8.48-6.77,17.85-8.15,27.32,2.05-.7,4.29-1.31,6.71-1.64,1.22-.16,2.43-.25,3.61-.25-1.48-9.58-1.69-19.21-.63-28.67-.13.27-.46.96-.46.96ZM536.34,519.52c-.59,1.25-1.22,2.72-1.86,4.44-2.53,6.84-3.19,14.59-1.87,21.81.36,1.97.83,3.74,1.4,5.31,2.6-6.79,7.72-12.63,14.22-16.2-5.25-3.15-9.23-8.29-11.89-15.36ZM198,540.08c.06.59.15,1.17.26,1.74.13.67.3,1.32.52,1.94.01.03.02.07.03.1.05.18.11.34.17.48-.03-.19-.06-.37-.1-.55-.23-1.26-.53-2.5-.88-3.71ZM269.62,535.31c-.19,2.94.04,5.72.67,8.42.05.2.1.39.15.59.48-.98,1.03-1.93,1.63-2.83.48-.71.99-1.4,1.54-2.06-1.44-1.24-2.77-2.62-3.99-4.13ZM107.63,509.66c1.52.15,3.33.22,5.08.28,2.05.07,4.29.15,6.65.37-.36-.35-.71-.71-1.06-1.07l-.44-.47c-.06-.06-.11-.13-.17-.19l-.39-.51c-2.18-2.83-6.03-5.49-9.38-6.46-.37-.09-.78-.15-1.16-.15-2.05,0-2.52,1.81-2.61,2.89-.19,2.22.96,4.82,3.48,5.31ZM446.59,466.02c5.44,0,10.49,1.01,14.99,3.01,12.72,5.64,20.01,19.68,21.1,32.42.35-.92.7-1.84,1.08-2.75,4.28-10.52,10.28-19.99,17.46-27.57-2.85-2.37-5.25-5.01-7.15-7.88-3.72.58-7.52.88-11.32.88-14.17,0-27.84-3.95-39.54-11.42-12.9-8.24-22.84-20.45-28.51-34.87-.19.36-.38.73-.59,1.11-.3.57-.56,1.05-.73,1.41-.95,1.97-1.99,3.92-2.99,5.8-.86,1.61-1.74,3.27-2.55,4.91l-.77,1.55c-3.27,6.64-6.65,13.51-11.06,19.74-3.18,4.49-6.74,8.29-10.54,11.32,3.1-.96,6.25-1.51,9.39-1.62.37-.01.74-.02,1.11-.02,6.04,0,11.61,1.67,16.13,4.83,3.2,2.24,5.81,5.12,7.92,8.75,6.25-5.89,14.49-9.1,24.54-9.56.68-.03,1.36-.05,2.04-.05ZM364.72,472.05c.8,1.04,1.54,2.12,2.22,3.24.67-.67,1.35-1.32,2.03-1.94.96-.87,1.93-1.7,2.94-2.48-2.38.68-4.79,1.08-7.19,1.17ZM603.13,457.37c11.45,0,22.31,5.29,29.52,14.26,1.87-1.09,3.88-1.94,6.02-2.54-2.65-8.89-2.96-18.39-3.25-27.6-.43-13.4-.85-26.11-7.9-36.81-.11.19-.22.37-.33.56-.36.6-.7,1.18-.99,1.74-1.16,2.29-2.31,4.61-3.47,6.94-7.69,15.46-15.58,31.33-26.35,44.16,1.43-.31,2.88-.52,4.33-.62.81-.05,1.62-.08,2.42-.08ZM187.52,346.48c10.68,11.58,22.7,20.56,35.74,26.73,4.41,2.08,7.85,3.05,10.82,3.05,1.74,0,3.25-.34,4.61-1.03,2.17-1.1,4.1-3.27,5.73-6.44,2.77-5.37,4.08-11.75,4.13-20.07-.02-1.09-.62-8.98-1.08-13.17-2.11.73-4.23,1.48-6.35,2.22-3.13,1.1-6.27,2.21-9.42,3.28-5.16,1.75-9.41,3.08-13.38,4.19-6.01,1.68-12.12,2.53-18.14,2.53-4.29,0-8.54-.43-12.66-1.29ZM159.93,182.09c-1.19,0-2.31.2-3.41.61-3.64,1.37-6.52,5.11-8.8,11.45-2.7,7.53-4.39,16.1-5.02,25.48-.92,13.8.4,29.41,3.93,46.49,8.19-27.92,37.66-50.38,66.91-60.33-12.62-2.05-25.24-7.29-36.48-15.25l-1.14-.81c-5.03-3.59-10.74-7.65-16-7.65ZM258.74,196.19c-.34.29-.69.57-1.03.84-.53.41-1.06.81-1.59,1.2,1.07-.05,2.13-.1,3.18-.13-.18-.62-.37-1.26-.56-1.91Z"/>
          <path class="cls-18" d="M695.92,5c11.44,0,22.96,4.99,29.81,14.12,5.93,7.91,8.06,18.32,6.72,28.11-1.58,11.52-7.71,21.75-15.19,30.42,1.41-1.63,8.21-1.62,10.31-1.78,1.36-.11,2.73-.16,4.1-.16,2.16,0,4.32.13,6.46.4,7.19.91,14.21,3.37,20.2,7.5,10.07,6.95,16.9,18.83,16.63,31.06-.15,6.89-2.71,13.7-7,19.08-1.19,1.49-11.8,11.01-15.74,11.01-.49,0-.88-.15-1.13-.48.25.33.52.66.76.99,9.05,12.41,11.74,28.71,13.68,43.69,1.98,15.3,2.25,30.78,1.8,46.18-.89,30.28-4.45,60.6-3.5,90.89.03.95.06,1.9.09,2.86.65.02,1.31.05,1.96.11,18.14,1.65,32.54,17.72,35.4,35.45.22,1.38.37,2.77.45,4.16,1.1,19.29-12.6,40.72-32.27,44.48-.89.17-1.79.29-2.69.39.07.72.14,1.44.17,2.16.6,14.48-3.02,31.25-7.23,45.1-.8,2.64-1.73,5.26-2.77,7.83,2.47-.43,4.94-.65,7.4-.65,7.41,0,14.73,1.93,21.77,5.75,10.59,5.74,17.47,18.6,19.38,28.12,1.2,5.96,1.08,12.16-.33,18.24,1.76-.74,3.57-1.39,5.41-1.93,3.84-1.12,7.4-1.67,10.89-1.67.92,0,1.84.04,2.74.12,9.76.86,18.88,6.64,23.82,15.1.89,1.53,1.61,3.11,2.14,4.69,1.25,3.78,1.39,7.68.4,11.26-1.61,5.76-6.04,10.48-12.15,12.93-3.25,1.3-6.69,1.94-10.51,1.94h0c-4.09,0-7.85-.74-11.17-1.39-.71-.14-1.39-.27-2.05-.39.64,3.46.83,7.04.55,10.63-.25,3.23-.88,6.42-1.88,9.46-.47,1.45-1.33,3.57-2.74,5.78-11.91,18.65-32.28,25.44-46.82,26.79-4.71.44-9.03.65-13.22.65-9.08,0-17.04-1.01-24.33-3.08-4.39-1.25-8.26-3.11-11.49-5.52-.72-.54-1.53-1.18-2.37-1.96-5.52,8.24-23.29,15.35-29.76,17.01l-.18.05c-6.62,1.59-13.46,2.4-20.33,2.4-2.93,0-5.91-.15-8.88-.44l-9.73-.95c-3.26,1.25-6.65,2.23-10.14,2.89-3.86.73-7.86,1.1-11.91,1.1-6.15,0-12.42-.84-18.64-2.51-4.33-1.16-9.4-2.72-14.2-5.52-1.12-.65-3.77-2.47-5.79-3.97-.53-.4-1.06-.79-1.57-1.19-8.73,10.09-21.3,15.92-34.94,15.92-4.1,0-8.18-.52-12.15-1.54,11.71,5.56,22.95,12.19,32.88,20.5,3.74,3.13,7.51,6.91,8.09,11.75.23,1.97-.12,3.89-.9,5.65-1.78,4.04-5.8,7.3-10.14,8.67-2.48.78-4.99,1.11-7.53,1.11-7.28,0-14.73-2.67-21.85-4.86-11.63-3.59-23.73-5.92-35.92-6.18-1.93-.04-4.26-.1-6.82-.1-11.41,0-27.2,1.23-31.41,10.97-1.17,2.72-1.51,5.71-2.11,8.61-1.21,5.94-3.68,11.83-8.15,15.92-3.16,2.89-7.45,4.7-11.67,4.7-1.76,0-3.5-.32-5.15-1-6.49-2.7-10.31-10.43-11.48-17.04-.03-.17-.06-.33-.09-.49-.02-.09-.03-.17-.05-.25,0-.05-.02-.1-.02-.15-.01-.07-.02-.14-.03-.22,0,.04,0,.08,0,.12-.06-.22-.07-.48-.09-.71-.03-.16-.04-.32-.06-.49-.03-.32-.05-.65-.06-.98,0-.17.01-.34.01-.51-5.56,4.77-5.62,10.04-4.85,16.99.97,8.8.31,18.7-5.96,24.96-3.58,3.58-8.61,5.23-13.6,5.23-.37,0-.74,0-1.11-.03-2.51-.12-5.02-.65-7.36-1.57-1.99-.78-3.46-2.47-5.48-3.17-.22-.08-.45-.14-.68-.14-.11,0-.22.01-.32.05-.15.05-.27.13-.38.24,0,0,0,0,0,0-.28.27-.44.68-.52,1.07-.4,1.96.2,3.97-.08,5.94-.27,1.86-.78,3.69-1.94,5.2-.84,1.1-2.2,1.99-3.52,1.99-.41,0-.82-.09-1.21-.28-1.15-.58-1.73-1.93-1.79-3.21-.08-1.53.41-3.01.63-4.51.24-1.59.29-3.2.16-4.8-.03-.41-.1-.86-.4-1.14-.22-.2-.52-.28-.82-.28-.04,0-.07,0-.11,0-2.03.13-3.9,2.77-4.88,4.32-1.21,1.91-2,4.07-2.4,6.29-.69,3.82-.25,7.78.72,11.54.56,2.16,1.29,4.28,1.61,6.48.32,2.2.2,4.55-.87,6.51-.99,1.81-2.92,3.19-4.95,3.19-.16,0-.33,0-.49-.03-.81-.09-1.62-.42-2.19-1.01-1.18-1.23-1.03-3.19-.77-4.87,1.15-7.3,2.98-15.07.19-22.25,0,0-.01-.02-.03-.07h0s0-.02,0-.02c0,0,0,0,0,0,0,0,0,0,0-.02-.03-.05-.05-.1-.08-.15-.04-.08-.08-.16-.13-.24.54.86-8.57,5.32-9.43,5.68-3.64,1.55-7.46,2.67-11.36,3.33-2.82.48-5.69.72-8.55.72-5.05,0-10.1-.76-14.91-2.3-.58-.19-1.22-.38-1.82-.38-.39,0-.77.08-1.1.3-.76.5-.98,1.5-1.08,2.4-.69,6,.55,12.5-2.32,17.81-.81,1.5-1.98,2.87-3.55,3.54-.67.29-1.38.42-2.08.42-2.68,0-5.39-1.91-6.6-4.42-1.53-3.17-1.19-6.92-.36-10.34.83-3.42,2.13-6.75,2.43-10.26.15-1.71.04-3.5-.74-5.04-1.22-2.4-3.73-3.63-5.88-5.04-2.5-1.65-4.72-3.86-5.94-6.66-.06.39-.11.78-.13,1.17-.21,3.23.47,6.49.64,9.71.12,2.27-.1,4.65-1.28,6.59-1.01,1.65-2.86,2.89-4.76,2.89-.33,0-.65-.04-.98-.11-1.8-.43-3.15-1.99-3.88-3.69-1.74-4.01-.68-8.6-.16-12.94,1.28-10.7-.94-21.51-.46-32.27.53-11.79,4.37-23.22,10.05-33.5,2.75-4.98,5.89-10.37,9.82-14.5,4.07-4.28,8.87-8.01,13.83-11.21,3.24-2.09,6.6-3.98,10.04-5.71,5.47-2.75,11.04-5.28,16.7-7.61-.71-.05-1.41-.13-2.09-.27l-.37-.08c-10.02-2.31-17.85-8.63-22.37-17.44-.06.05-.19.15-.23.19,0,0,0,0,0,0,.08,0-7.01,9.18-19.61,14.42-5.24,2.18-10.9,2.7-16.39,2.7h0c-11.41,0-22.36-3.89-31.67-11.24-.66-.52-1.31-1.05-1.95-1.61-3.25-2.81-5.99-6-8.21-9.56-1.06,1.31-2.17,2.54-3.32,3.71-8.97,9.09-21.21,14.3-33.58,14.3h-.09c-13.11-.03-24.3-5.46-33.99-16.54-1.08,1.69-2.25,3.35-3.5,4.96l-.12.15c-4.94,6.15-13.19,17.93-53.68,20.35-1.24.07-2.48.11-3.7.11-11.56,0-22.15-3.22-31.48-7.89-15.51-7.76-27.02-21.6-30.8-37.03-1.17-4.79-1.4-9.38-.72-13.63-2.3.54-4.61.82-6.9.82h0c-2.5,0-4.95-.33-7.28-.99-7.2-2.04-13.06-7.21-15.68-13.84-2.13-5.41-1.93-11.29.57-16.56,4.81-10.15,15.78-14.33,19.03-15.37,3.19-1.02,6.56-1.54,10.02-1.54,4.92,0,9.5,1.03,13.48,2.45-4.61-8.98-6.54-19.58-5.05-30,2.47-17.25,13.71-33.28,30.08-42.88,8.1-4.75,17.05-7.75,26.26-8.85-19.99-22.57-37.01-47.8-50.05-75-22.08-46.06-31.54-97.65-28.67-148.58,1.65-29.36,7.55-58.78,20.4-85.23,13.18-27.13,35.43-54.95,64.58-65.1-.41-.64-.81-1.31-1.17-1.99-8.14-15.28.03-34.36,13.88-43.21,7.91-5.05,17.22-7.21,26.6-7.21,7.18,0,14.4,1.27,21.05,3.47.05-.13.13-.25.26-.32,4.1-2.34,8.77-3.4,13.47-3.4,6.05,0,12.15,1.77,17.21,4.86,8.23,5.04,14.15,13.35,17.38,22.44,2,5.64,3.03,11.58,3.36,17.55.28,5.1-.82,10.45,1.16,15.29,2.02,4.95,8.01,8.07,11.88,11.47,4.5,3.96,8.78,8.19,12.62,12.79,0-.09.02-.17.03-.25.06-.44.13-.88.2-1.32.02-.08.03-.15.04-.22,3.61-25.23,25.58-47.79,51.14-50.44,1.82-.19,3.65-.28,5.46-.28,22.12,0,43.2,13.68,56.1,31.95,13.95,19.77,19.74,44.14,22.83,68.14,3.39,26.38,3.85,53.25,10.71,79.08,1.74-9.49,5.21-19.19,8.53-28.26,2.94-8.02,6.92-15.87,13.15-21.72,5.25-4.93,12.31-8.27,19.43-8.27,1.32,0,2.65.12,3.97.36,10.6,1.95,17.74,10.77,22.3,19.88.06.12.11.25.16.37,0-.19.02-.38.03-.57.02-.3.03-.6.05-.9.01-.08.01-.16.01-.23,0-.04,0-.08,0-.11,0-.01.01-.04.02-.06-.01-.06-.02-.11-.02-.17.01-.04.01-.08.02-.11,0-.08,0-.15.02-.23,3.8-30.56,8.37-60.46,21.56-88.65,4.04-8.64,8.96-17.19,16.49-23.04,6.93-5.38,15.66-8.08,24.39-8.95,1.77-.18,3.54-.27,5.31-.31l-2.24-2.32,2.36,2.32c.71-.02,1.41-.03,2.12-.03,6.24,0,12.5.65,18.7,1.46,4.89.63,9.78,1.37,14.62,2.34l.49-29.65.28,29.8c5.39,1.12,10.71,2.55,15.84,4.53,2.59,1,5.13,2.15,7.59,3.45l14.39-13.92-13.92,14.17c6.84,3.69,13.02,8.58,17.61,14.82,2.11,2.87,3.77,5.9,5.04,9.04l14.84.26-14.69.13c3.56,9.05,3.86,19.02,2,28.85-.23,1.21-.49,2.41-.76,3.61,11.11-9.8,23.97-17.51,37.81-22.78.42-.16.85-.31,1.27-.47.17-.06.33-.12.5-.18,0-.03,0-.06-.02-.09-2.21-6.68-2.94-15.28-3.95-22.24-1.25-8.61-1.76-17.36-1.03-26.04,1.1-13.03,5.11-26.01,12.89-36.53,7.77-10.52,19.52-18.37,32.49-20.06,1.65-.22,3.32-.32,4.99-.32M147,278.38c2.22-37.01,43.57-64.38,75.42-72.64,1.89-.49,3.78-.92,5.68-1.33h-.03c-.06,0-.12,0-.18-.02-.26-.04-.52-.09-.78-.15-.58.01-1.16.02-1.74.02-16.74,0-33.24-6.12-46.85-15.76-5.66-4.01-12.09-8.92-18.59-8.92-1.43,0-2.86.24-4.28.77-5.33,2-8.35,7.59-10.27,12.95-2.95,8.21-4.55,17.07-5.16,26.16-1.23,18.48,1.65,37.93,5.7,54.88.32,1.36.66,2.71,1.09,4.04M244.49,201.7c3.33-.39,6.66-.68,10-.88,2.72-.17,5.44-.25,8.16-.32-.2-.65-.41-1.31-.61-1.96-.7-2.31-1.36-4.62-2-6.94-1.23,1.22-2.52,2.39-3.88,3.46-1.66,1.3-3.4,2.5-5.22,3.56-1.53.89-3.13,1.67-4.76,2.38-.13.15-.29.28-.48.34-.34.1-.68.19-1.02.29-.06.02-.12.04-.19.07M200.19,345.27c-4.93,0-9.85-.59-14.68-1.83-1.8-.46-3.57-1.01-5.32-1.63,1.14,1.4,2.3,2.78,3.49,4.13,10.85,12.27,23.67,22.5,38.52,29.52,3.71,1.75,7.89,3.29,11.89,3.29,1.99,0,3.93-.38,5.74-1.3,3.07-1.56,5.24-4.46,6.82-7.52,3.38-6.54,4.37-13.93,4.41-21.21,0-.88-1.15-16.49-1.63-16.49,0,0,0,0,0,0-6.15,2.09-12.32,4.35-18.53,6.45-4.4,1.49-8.81,2.91-13.25,4.15-5.72,1.59-11.59,2.44-17.47,2.44M585.11,466.05c4.62-3.51,10.11-5.72,15.78-6.11.74-.05,1.5-.08,2.25-.08,11.56,0,22.43,5.91,28.93,15.12,2.86-2.06,6.18-3.44,9.84-4.08-8.04-22.42,1.43-49.81-13.91-69.88-.26-.33-.53-.66-.81-.99-.05.1-.1.2-.15.3-.01.02-.02.03-.02.04-.03.04-.05.08-.06.11-.01.04-.03.07-.05.1-.11.18-.2.37-.3.55-.21.38-.42.77-.62,1.15-.63,1.21-1.41,2.34-2.02,3.55-10.7,21.21-21.32,44.99-38.86,60.21M363.53,469.58c-.16,0-.32,0-.48,0-1.52-.03-3.01-.21-4.47-.49,3.25,2.93,5.89,6.48,7.8,10.4,1.39-1.51,2.82-2.94,4.28-4.28,7.2-6.58,15.82-10.35,24.29-10.64.34-.01.68-.02,1.02-.02,5.52,0,10.6,1.51,14.69,4.38,3.7,2.59,6.58,6.2,8.73,10.96,4.99-5.83,12.87-10.76,25.27-11.33.64-.03,1.28-.04,1.92-.04,5.09,0,9.8.94,13.98,2.8,14.14,6.27,21.06,23.77,19.57,37.07-.8,7.09-3.63,12.95-6.14,18.11-.4.82-.79,1.64-1.18,2.46-4.71,10.03-7.74,21.04-8.87,32.19,2.79-1.13,6.18-2.45,10.03-2.97,1.12-.15,2.25-.23,3.35-.23.98,0,1.96.06,2.92.18-3.6-19.5-1.71-39.96,5.82-58.49,4.61-11.34,11.09-21.13,18.9-28.76-3.92-2.84-7.26-6.28-9.68-10.37-4.15.75-8.35,1.12-12.55,1.12-13.43,0-26.84-3.77-38.19-11.03-14.56-9.3-25.07-23.83-29.8-40.39.52,1.8-2.73,7.2-3.62,9.06-1.74,3.61-3.76,7.1-5.53,10.69-3.54,7.16-6.99,14.41-11.63,20.95-7.15,10.09-18.11,18.66-30.44,18.66M335.72,460.61c.11,0,.22-.01.33-.01,1.59,0,3.22.12,4.82.34,1.19.17,2.36.41,3.51.69-1.8-1.67-3.43-3.53-4.86-5.55-1.24,1.54-2.51,3.05-3.81,4.53M582.98,467.82c-.19.15-.37.31-.57.46,0,.01.02.02.03.03.18-.17.36-.33.54-.49M141.65,520.03c.08-1.01.19-2.02.32-3.05-.09,0-.17,0-.26,0-8.26,0-15.73-3.27-21.59-9.47l-.44-.47-.39-.51c-2.59-3.37-6.9-6.25-10.67-7.34-.67-.17-1.28-.25-1.85-.25-7.03,0-6.82,11.89.51,13.17,1.62.17,3.46.24,5.35.3,2.74.1,5.84.21,9.01.66,4.41.63,9.01,1.93,14.05,3.98,2.08.84,4.07,1.83,5.97,2.96M534.85,557.75c1.42-10.38,9.18-19.54,19.59-22.83,0,0-.02,0-.03,0-11.71-3.62-15.72-14.92-17.38-21.59-1.41,1.94-3.15,5.03-4.9,9.77-2.68,7.26-3.39,15.48-1.98,23.13.74,4.05,1.92,7.38,3.51,9.9.36.58.76,1.12,1.19,1.63M270.63,551.6c.55-2.82,1.61-5.86,3.52-8.72.91-1.36,1.96-2.6,3.14-3.74-3.67-2.62-6.8-6.21-9.17-10.61-.06.27-.12.55-.17.84l-.05.26c-1.11,5.27-1.12,10.06-.03,14.66.59,2.51,1.51,4.93,2.76,7.3M677.48,559.92c.57-.14,1.26-.68,1.45-2.74.59-6.53.4-13.13-.57-19.61-.38-2.55-.89-5.15-1.43-7.86-.93,7.26-1.5,15.01-1.02,22.64.18,2.82.78,5.42,1.58,7.56M199.69,548.14c1.14,0,2.06-1.06,1.95-2.86-.05-.4-.11-.81-.18-1.24-.04-.23-.08-.47-.12-.7-.93-5-2.78-9.69-5.07-13.24-1.01,4-1.21,8.27-.47,12.18.15.8.36,1.58.62,2.31.76,2.47,2.13,3.54,3.27,3.54M107.85,567.73c1.85,0,3.76-.21,5.1-.57,1.56-.42,2.75-1.46,3.06-2-.03-.23-.15-.79-.54-1.81-.95-2.44-2.32-4.56-3.97-6.12-4.38-4.16-11.61-5.71-19.98-7.5-4.84-1.04-10.05-2.15-15.21-3.94l-.41.31,6.08,5.18c6.12,5.21,12.57,10.34,19.16,15.25.56.38,2.96,1.19,6.71,1.19M625.86,561.63c.13-.07.26-.16.4-.25l-.73-.46c.1.24.21.47.32.71M385.88,607.54c3.74-.67,7.5-1.25,11.26-1.74-.52-.51-1.04-1.03-1.54-1.57-2.68-2.88-5.28-6.19-7.72-9.86-.19,2.85-.61,5.76-1.05,8.76-.22,1.52-.54,3-.95,4.41M519.49,620.36s-.02-.01-.02-.02c-1.75-1.1-13.42-7.63-20.21-19.49-1.49,3.98-3.54,7.67-6.05,10.92,8.91,2.36,17.7,5.22,26.28,8.59M600.86,62.84h0M381.68,724.66c-.02.06-.03.09-.03.09,0,0,.02-.05.03-.08,0,0,0,0,0,0M695.92,0c-1.89,0-3.78.12-5.64.36-13.76,1.79-26.83,9.83-35.86,22.04-7.8,10.55-12.58,24.06-13.85,39.08-.71,8.43-.36,17.32,1.07,27.18.22,1.5.42,3.07.63,4.73.57,4.43,1.2,9.3,2.26,13.84-9.54,3.86-18.5,8.77-26.75,14.68.3-5.5-.12-10.76-1.28-15.72l7.98-.07c2.74-.02,4.94-2.24,4.96-4.98.01-2.74-2.18-4.97-4.91-5.02l-11.66-.2c-1.21-2.48-2.65-4.84-4.27-7.05-3.58-4.87-8.15-9.18-13.63-12.87l9.41-9.59c.93-.91,1.5-2.17,1.5-3.57,0-2.76-2.24-5-5-5h0c-.7,0-1.36.14-1.97.4,0,0,0,0,0,0,0,0,0,0,0,0-.54.23-1.05.57-1.5,1l-11.85,11.46c-1.58-.74-3.21-1.43-4.85-2.07-3.89-1.5-8.06-2.78-12.68-3.88l-.24-25.83c-.03-2.74-2.25-4.94-4.98-4.95,0,0-.01,0-.02,0-2.73,0-4.95,2.19-5,4.92l-.4,23.76c-2.76-.46-5.74-.89-9.07-1.32-5.72-.74-12.5-1.5-19.34-1.5-.03,0-.07,0-.1,0l-.87-.86c-.97-.96-2.24-1.43-3.5-1.43-1.27,0-2.55.48-3.52,1.45-.39.39-.71.83-.95,1.3-10.21,1.16-19.2,4.56-26.05,9.88-8.8,6.83-14.22,16.88-17.95,24.87-11.91,25.48-16.89,51.87-20.54,78.89-5.23-5.94-11.38-9.66-18.18-10.91-1.59-.29-3.23-.44-4.87-.44-8.01,0-16.34,3.51-22.85,9.63-5.99,5.63-10.57,13.15-14.42,23.64-1.07,2.93-2.13,5.85-3.13,8.75-1.75-11.09-2.8-22.33-3.82-33.34-.77-8.24-1.56-16.77-2.64-25.15-2.48-19.31-7.64-47.62-23.71-70.38-14.83-21.01-37.89-34.07-60.18-34.07-1.99,0-4.01.1-5.98.31-13.38,1.39-26.46,7.85-36.81,18.19-8.11,8.1-13.99,17.98-17.01,28.44-1.98-1.97-4.1-3.95-6.38-5.96-1.24-1.09-2.61-2.11-3.94-3.1-2.8-2.08-5.69-4.24-6.61-6.51-.97-2.36-.88-5.33-.8-8.47.05-1.68.1-3.42,0-5.21-.38-6.85-1.61-13.22-3.64-18.94-3.84-10.8-10.76-19.69-19.48-25.03-5.9-3.61-12.94-5.6-19.82-5.6-5.16,0-10.11,1.12-14.44,3.26-6.68-1.97-13.66-3.01-20.34-3.01-10.97,0-21.09,2.77-29.29,8-7.81,4.99-14.08,12.91-17.2,21.74-3.03,8.56-2.94,17.33.2,25.04-24.4,10.51-46.8,34.08-62.09,65.56-12,24.7-19.03,54.02-20.9,87.13-2.98,52.8,7.11,105.02,29.15,151.02,11.79,24.6,26.93,47.95,45.07,69.5-6.75,1.67-13.22,4.31-19.3,7.88-17.67,10.37-29.82,27.75-32.5,46.49-1.12,7.85-.49,15.97,1.79,23.6-1.77-.23-3.52-.34-5.26-.34-3.98,0-7.87.6-11.55,1.78-3.73,1.2-16.35,6.03-22.02,17.99-3.1,6.53-3.35,13.83-.7,20.54,3.18,8.07,10.28,14.36,18.97,16.82,2.77.78,5.68,1.18,8.64,1.18.51,0,1.02-.01,1.53-.03.07,2.95.48,5.97,1.23,9.04,4.12,16.84,16.62,31.91,33.42,40.32,11.17,5.59,22.51,8.42,33.72,8.42,1.33,0,2.68-.04,4-.12,41.55-2.48,51.5-14.97,56.85-21.68l.42-.53.14-.17c.06-.08.12-.16.18-.23,9.64,9.08,20.84,13.69,33.38,13.72h.1c13.39,0,26.62-5.5,36.46-15.12,1.63,1.94,3.42,3.76,5.37,5.45.69.59,1.4,1.18,2.12,1.75,10.2,8.06,22.23,12.32,34.77,12.32,4.68,0,11.66-.32,18.31-3.09,7.13-2.97,12.59-7.08,15.9-10,.43-.38.84-.75,1.22-1.1,3.21,4.26,7.22,7.74,11.83,10.29-1.74.82-3.46,1.66-5.15,2.51-3.83,1.92-7.27,3.88-10.51,5.98-5.79,3.74-10.74,7.77-14.74,11.96-4.38,4.61-7.76,10.43-10.57,15.53-6.55,11.84-10.14,23.85-10.67,35.69-.22,4.97.09,9.89.4,14.65.39,6.01.75,11.68.09,17.25-.08.65-.17,1.31-.26,1.97-.57,4.16-1.22,8.88.8,13.54,1.48,3.42,4.15,5.81,7.31,6.57.7.17,1.42.25,2.14.25,3.53,0,7.07-2.08,9.03-5.29,1.31-2.15,1.98-4.7,2.03-7.75.85.56,1.55,1.11,1.82,1.64.13.26.34.91.21,2.34-.17,1.9-.75,3.92-1.36,6.05-.32,1.11-.65,2.27-.95,3.46-1.33,5.46-1.1,9.94.71,13.69,2.09,4.34,6.55,7.26,11.11,7.26,1.41,0,2.77-.28,4.04-.82,2.44-1.04,4.51-3.04,5.98-5.77,2.54-4.7,2.6-9.79,2.65-14.27.01-.96.02-1.89.06-2.79,4.55,1.23,9.29,1.85,14.12,1.85,3.13,0,6.29-.27,9.39-.79,4.31-.73,8.51-1.96,12.49-3.66.5-.21,2.27-1.07,4.17-2.06.11,3.49-.51,7.22-1.15,11.09-.15.89-.3,1.78-.43,2.65-.25,1.63-.93,5.94,2.09,9.1,1.34,1.4,3.2,2.3,5.25,2.52.34.04.7.06,1.05.06,3.75,0,7.42-2.27,9.34-5.79,1.46-2.67,1.96-6,1.43-9.62-.27-1.87-.75-3.56-1.21-5.2-.17-.6-.34-1.21-.5-1.81-.42-1.63-.69-3.18-.82-4.64.71.9,1.59,1.63,2.61,2.14,1.07.54,2.23.81,3.44.81,2.8,0,5.59-1.48,7.49-3.95,2.01-2.63,2.63-5.55,2.91-7.52.02-.11.03-.23.04-.34.21.1.43.19.65.28,2.84,1.11,5.84,1.76,8.94,1.91.45.02.9.03,1.35.03,6.72,0,12.81-2.38,17.13-6.69,6.28-6.27,8.78-15.94,7.43-28.73,2.36,3.67,5.59,6.83,9.79,8.57,2.21.92,4.59,1.38,7.07,1.38,5.38,0,10.86-2.19,15.04-6.01,4.79-4.38,8.04-10.64,9.67-18.61.15-.71.28-1.43.41-2.15.37-2.01.72-3.92,1.39-5.47,2.28-5.28,11.3-7.95,26.82-7.95,2.13,0,4.11.04,5.85.08l.86.02c10.89.23,22.51,2.24,34.55,5.96.86.27,1.73.54,2.6.81,6.67,2.1,13.57,4.27,20.73,4.27,3.19,0,6.23-.45,9.04-1.34,5.86-1.85,10.92-6.23,13.21-11.42,1.18-2.69,1.62-5.46,1.29-8.26-.78-6.62-5.42-11.3-9.84-15-4.6-3.85-9.59-7.46-15.06-10.9,10.01-1.75,19.29-6.44,26.63-13.51,1.58,1.12,3.26,2.25,4.26,2.83,5.3,3.09,10.77,4.78,15.42,6.03,6.64,1.78,13.35,2.68,19.94,2.68,4.36,0,8.68-.4,12.84-1.19,3.35-.64,6.66-1.55,9.87-2.71l8.58.84c3.12.31,6.27.46,9.36.46,7.26,0,14.5-.85,21.5-2.54l.22-.05c4.16-1.07,20.31-6.64,29.18-15,3.45,2.34,7.43,4.17,11.85,5.43,7.73,2.2,16.14,3.28,25.7,3.28,4.34,0,8.81-.22,13.68-.67,10.23-.95,35.64-5.69,50.57-29.08,1.73-2.7,2.74-5.25,3.28-6.92,1.12-3.42,1.83-7,2.11-10.63.13-1.63.17-3.26.12-4.88,2.33.37,4.88.65,7.56.65,4.47,0,8.52-.75,12.38-2.3,7.58-3.04,13.08-8.95,15.11-16.23,1.26-4.54,1.1-9.44-.47-14.18-.63-1.91-1.5-3.81-2.57-5.64-5.74-9.83-16.35-16.56-27.7-17.56-1.03-.09-2.1-.14-3.18-.14-3.33,0-6.69.43-10.22,1.31.22-4.01-.06-8-.85-11.94-2.21-10.98-9.84-24.99-21.9-31.53-7.78-4.22-15.91-6.35-24.16-6.35-.02,0-.05,0-.07,0,.08-.24.15-.49.22-.73,3.59-11.84,7.72-28.94,7.5-44.53,9.94-2.35,18.94-8.74,25.49-18.12,6.47-9.28,9.84-20.65,9.24-31.21-.09-1.55-.26-3.12-.51-4.67-1.58-9.8-6.31-19.19-13.31-26.44-6.75-6.98-15.24-11.5-24.12-12.9-.48-18.33.68-37.04,1.81-55.16.69-11.09,1.4-22.56,1.74-33.87.54-18.21-.05-33.13-1.84-46.97-1.82-14.04-4.22-28.65-11.36-41,1.42-.86,3.09-2.01,5.07-3.55,3.17-2.47,6.62-5.56,7.67-6.89,5.05-6.32,7.92-14.17,8.09-22.1.29-13.56-6.91-27.08-18.79-35.29-6.4-4.42-14.15-7.3-22.41-8.35-2.33-.29-4.71-.44-7.09-.44-1.01,0-2.03.03-3.05.08,4.8-7.57,7.75-15.24,8.79-22.88,1.59-11.59-1.21-23.18-7.67-31.79-7.57-10.09-20.21-16.12-33.81-16.12h0ZM147.43,256.73c-2.22-13.41-2.97-25.78-2.23-36.93.61-9.15,2.25-17.5,4.87-24.8,2.01-5.61,4.41-8.86,7.32-9.96.81-.3,1.64-.45,2.53-.45,4.47,0,9.83,3.82,14.55,7.19l1.15.82c9.07,6.42,19.02,11.12,29.17,13.87-12.48,5.22-24.5,12.51-34.45,21.03-10.47,8.97-18.18,18.85-22.92,29.25h0ZM200.19,350.27c6.25,0,12.58-.88,18.81-2.62,4.01-1.12,8.3-2.46,13.51-4.23,3.17-1.08,6.37-2.2,9.46-3.29,1.1-.39,2.21-.78,3.33-1.17.36,3.93.72,8.73.76,9.81-.05,7.89-1.28,13.89-3.85,18.88-1.39,2.69-2.95,4.5-4.64,5.36-1.01.51-2.14.76-3.48.76-2.56,0-5.75-.92-9.75-2.81-10.71-5.06-20.72-12.08-29.86-20.92,1.89.17,3.8.25,5.71.25h0ZM602.1,454.88c9.05-12.07,16.04-26.12,22.87-39.86.87-1.75,1.74-3.5,2.61-5.22,4.62,9.37,4.97,20.3,5.35,31.76.28,8.58.57,17.41,2.71,25.89-.81.3-1.6.64-2.37,1.02-7.65-8.59-18.61-13.6-30.13-13.6-.34,0-.69,0-1.04.01h0ZM393.39,459.64c1.63-1.8,3.19-3.74,4.67-5.83,4.53-6.39,7.95-13.35,11.27-20.08l.76-1.55c.79-1.6,1.63-3.18,2.51-4.84.63-1.19,1.28-2.41,1.92-3.65,6.07,12.76,15.5,23.56,27.35,31.13,12.1,7.73,26.23,11.81,40.88,11.81,3.4,0,6.8-.23,10.16-.68,1.38,1.9,2.97,3.69,4.76,5.37-5.49,6.19-10.25,13.47-14.03,21.45-.74-2.65-1.72-5.26-2.92-7.74-4.09-8.43-10.52-14.92-18.12-18.29-4.83-2.14-10.21-3.23-16.01-3.23-.69,0-1.41.02-2.14.05-9.52.43-17.53,3.21-23.89,8.27-1.98-2.79-4.3-5.11-7.02-7.01-4.94-3.46-11.01-5.28-17.56-5.28-.39,0-.79,0-1.18.02-.47.02-.93.04-1.4.07h0ZM108.01,507.18c-.3-.07-.82-.29-1.16-1.19-.34-.89-.21-1.71-.07-2.04.11,0,.29.02.54.08,1.96.58,4.17,1.88,5.96,3.42-.16,0-.32-.01-.48-.02-1.66-.06-3.37-.12-4.79-.26h0ZM534.85,543.99c-.89-6.04-.32-12.4,1.62-18.16,1.98,3.61,4.4,6.59,7.25,8.93-3.51,2.5-6.54,5.65-8.87,9.23h0ZM470.06,553.83c.83-4.46,1.99-8.87,3.43-13.15.07,4.13.38,8.28.92,12.42-.36.04-.72.08-1.08.12-1.13.15-2.22.36-3.27.61h0ZM103.71,562.23c-2.88-2.15-5.73-4.34-8.53-6.57,5.58,1.28,10.22,2.69,12.87,5.2.54.51,1.03,1.11,1.48,1.8-.51.04-1.08.07-1.68.07-2.1,0-3.55-.32-4.13-.5h0Z"/>
        </g>
        <g>
          <g>
            <path class="cls-15" d="M801.26,364.47c-2.86-17.74-17.26-33.8-35.4-35.45-.65-.06-1.31-.09-1.96-.11-.03-.96-.06-1.91-.09-2.86-.96-30.29,2.6-60.61,3.5-90.89.45-15.41.18-30.88-1.8-46.18-1.94-14.98-4.62-31.28-13.68-43.69-.24-.33-.51-.66-.76-.99,2.27,2.99,15.54-8.86,16.88-10.53,4.29-5.38,6.85-12.19,7-19.08.26-12.23-6.56-24.11-16.63-31.06-5.98-4.13-13.01-6.59-20.2-7.5-3.5-.44-7.04-.52-10.56-.24-2.1.16-8.9.15-10.31,1.78,7.48-8.67,13.62-18.9,15.19-30.42,1.34-9.79-.79-20.21-6.72-28.11-7.85-10.46-21.83-15.48-34.8-13.79s-24.72,9.54-32.49,20.06c-7.77,10.52-11.79,23.5-12.89,36.53-.73,8.68-.21,17.43,1.03,26.04,1.01,6.96,1.74,15.56,3.95,22.24,0,.03,0,.06.02.09-.17.06-.33.12-.5.18-.42.16-.85.31-1.27.47-13.84,5.27-26.7,12.98-37.81,22.78.27-1.2.53-2.4.76-3.61,2.54-13.38,1.08-27.04-7.18-38.27-6.33-8.62-15.69-14.67-25.67-18.52-9.98-3.85-20.62-5.65-31.23-7.02-8.7-1.13-17.51-1.99-26.24-1.12-8.73.87-17.45,3.57-24.39,8.95-7.53,5.84-12.45,14.4-16.49,23.04-13.18,28.19-17.76,58.1-21.56,88.65,0,.08-.02.15-.02.23-.01.03-.01.07-.02.11,0,.06.01.11.02.17-.01.02-.02.05-.02.06,0,.03,0,.07-.01.11,0,.07,0,.15-.01.23-.02.3-.03.6-.05.9-.01.19-.02.38-.03.57-.05-.12-.1-.25-.16-.37-4.55-9.11-11.7-17.93-22.3-19.88-8.4-1.54-17.17,2.06-23.39,7.91-6.22,5.85-10.21,13.7-13.15,21.72-3.32,9.07-6.79,18.77-8.53,28.26-6.86-25.83-7.32-52.7-10.71-79.08-3.09-24-8.88-48.37-22.83-68.14-13.95-19.77-37.49-34.16-61.56-31.67-25.55,2.65-47.53,25.21-51.14,50.44-.01.07-.02.14-.04.22-.07.44-.14.88-.2,1.32-.01.08-.02.16-.03.25-3.85-4.6-8.13-8.83-12.62-12.79-3.86-3.4-9.85-6.52-11.88-11.47-1.98-4.84-.88-10.19-1.16-15.29-.33-5.96-1.36-11.91-3.36-17.55-3.23-9.09-9.15-17.4-17.38-22.44-8.99-5.51-21.29-6.8-30.68-1.46-.13.07-.21.19-.26.32-15.34-5.08-33.67-5.18-47.64,3.74-13.85,8.85-22.02,27.92-13.88,43.21.36.68.76,1.35,1.17,1.99-29.15,10.16-51.4,37.98-64.58,65.1-12.85,26.45-18.75,55.87-20.4,85.23-2.87,50.93,6.6,102.52,28.67,148.58,14.36,29.95,33.54,57.54,56.21,81.79,21.34,22.83,46.4,43.14,75.89,53.49,39.47,13.86,84.43,7.32,120.02-13.95,13.97-8.35,26.43-18.91,36.62-31.61,5.45,7.71,13.87,13.31,23.52,13.49,12.53.23,23.68-8.43,30.92-18.65,4.63-6.54,8.09-13.79,11.63-20.95,1.77-3.59,3.79-7.09,5.53-10.69.89-1.86,4.14-7.26,3.62-9.06,4.73,16.56,15.24,31.09,29.8,40.39,14.91,9.52,33.35,13.05,50.75,9.91,10.03,16.96,35.69,22.75,54.07,20.95,41.8-4.08,58.09-42.91,74.58-75.62.61-1.21,1.39-2.35,2.02-3.55.2-.38.41-.77.62-1.15.1-.18.19-.37.3-.55.02-.03.04-.06.05-.1.01-.03.03-.07.06-.11,0-.01.01-.02.02-.04.05-.1.1-.2.15-.3.28.33.55.66.81.99,17.26,22.57,3.09,54.42,17.81,78.03,5.25,8.42,13.72,14.46,22.86,18.32,11.51,4.86,24.42,7.73,36.93,7.5,11.19-.2,22.5-3.21,31.6-9.72,11.35-8.12,18.45-21.05,22.5-34.41,4.2-13.85,7.83-30.62,7.23-45.1-.03-.72-.1-1.44-.17-2.16.9-.1,1.8-.22,2.69-.39,19.68-3.76,33.37-25.18,32.27-44.48-.08-1.39-.23-2.78-.45-4.16ZM244.68,201.63c.34-.1.68-.19,1.02-.29.19-.06.35-.19.48-.34,1.63-.71,3.23-1.49,4.76-2.38,1.82-1.06,3.56-2.26,5.22-3.56,1.36-1.07,2.65-2.24,3.88-3.46.64,2.32,1.3,4.63,2,6.94.2.65.41,1.31.61,1.96-2.72.07-5.44.15-8.16.32-3.34.2-6.67.49-10,.88.07-.03.13-.05.19-.07ZM230.9,338.69c6.2-2.11,12.37-4.36,18.53-6.45.47-.16,1.64,15.61,1.63,16.49-.04,7.28-1.03,14.66-4.41,21.21-1.58,3.06-3.75,5.96-6.82,7.52-5.47,2.78-12.09.63-17.63-1.99-14.85-7.02-27.67-17.25-38.52-29.52-1.19-1.35-2.35-2.73-3.49-4.13,1.75.62,3.52,1.17,5.32,1.63,10.59,2.71,21.63,2.32,32.15-.61,4.44-1.24,8.85-2.66,13.25-4.15ZM140.22,219.47c.61-9.09,2.21-17.95,5.16-26.16,1.92-5.36,4.94-10.95,10.27-12.95,7.92-2.97,15.97,3.26,22.87,8.15,14.08,9.97,31.26,16.18,48.59,15.74.26.06.52.11.78.15.06.01.12.01.18.02h.03c-1.9.41-3.79.84-5.68,1.33-31.85,8.26-73.2,35.63-75.42,72.64-.43-1.33-.77-2.68-1.09-4.04-4.05-16.95-6.93-36.39-5.7-54.88Z"/>
            <g>
              <path class="cls-39" d="M537.09,414.09c-4.29,13.07-10.43,25.43-20.03,35.59-1.12,1.01-2.3,1.99-3.56,2.93-.77.38-1.5.73-2.2,1.05-.42.14-.86.28-1.31.42,6.42,7.51,14.49,11.96,24.19,13.35,2.34.24,5.72.1,10.16-.42,16.93-4.54,30.96-14.3,42.1-29.27,11.14-14.98,20.6-30.58,28.38-46.81,2.41-4.68,4.8-9.39,7.17-14.14-3.91-2.76-7.38-6.16-10.42-10.21,4.01,2.37,8.13,4.49,12.36,6.34,3.87,1.71,7.8,3.19,11.78,4.45,10.47,3.35,21.22,5.36,32.26,6.02,7.82.45,15.6.26,23.35-.58-.17.14-.33.3-.47.47-7.02,6.53-14.87,9.08-23.56,7.65-1.72,19.59-6.2,38.56-5.65,58.37.21,7.78,1.16,16.11,6.23,22.03,4.57,5.34,12.02,8.43,18.57,10.58,3.81,1.25,7.75,2.1,11.72,2.61,2.69.35,24.56,2.06,34.8-7.18,5.81-5.25,8.99-16.22,11.05-31.37,2.06-15.15,2.98-29.5,2.78-43.04-4.36-.17-7.99-.7-10.89-1.57-1.89-.52-3.77-1.26-5.66-2.2,6.32.56,11.82.24,16.49-.94,9.86-2.52,18.2-9.33,21.33-19.39-5.63.92-15.91,2.57-27.14,3.94-11.76,1.43-30.6.37-56.5-3.19-49.57-10.65-83.9-22.27-103-34.87-8.66-4.43-16.81-9.18-24.45-14.23-6.25,20.65-10.02,41.72-14.44,62.85-1.46,6.98-3.19,13.97-5.43,20.77Z"/>
              <path class="cls-35" d="M474.34,290.42c.7.93,1.55,1.69,2.62,2.2.21.1.39.24.61.34-.34.04-.65-.02-.99,0-6.21,1.32-10.31-1.15-13.08-6.02-16.39-4.91-36.25-9.89-59.66-14.93-1.87-.39-3.73-.76-5.59-1.12-3.92,12.14-9.25,19.43-16.6,23.01-.08.05-.15.11-.22.16-.52.35-1.22.65-2.09.89.08-.06.11-.12.19-.18-.47.18-.91.41-1.39.57,5.48-8.05,6.62-16.34,5.64-26.94-11.29-1.74-22.26-2.96-32.87-3.6,2.37,14.91.41,30.6-5.92,47.07-2.58,5.34-5.71,10.32-9.37,14.92,11.14,34.31,14.12,68.94,8.95,103.89-.45,3.11-.91,6.21-1.36,9.32,4.28,8.55,13.44,17.1,23.81,14.49,5.21-1.31,9.25-5.38,12.55-9.62,8.82-11.33,14.31-24.87,19.12-38.4,13.67-38.49,21.09-77.97,27.72-118.12.11-.64.21-1.28.32-1.92.14.7.26,1.43.37,2.2v-.1c0,10.2,2.45,21.01,3.8,31.12,1.44,10.86,3.01,21.71,4.7,32.53,4.19,26.9,7.01,55.61,25.12,77.38,4.43,5.33,10.06,9.89,16.69,11.94,9.97,3.09,22.13,1.16,30.13-5.67,6.02-5.13,9.65-12.5,12.46-19.89,10.51-27.67,13.8-58.96,18.06-88.09l1.6-8.93c-14.04-8.98-35.83-18.48-65.31-28.49Z"/>
              <path class="cls-63" d="M67.87,344.71c39.45,83.49,89.83,129.51,151.13,138.05,24.83,3.46,50.24,0,72.81-10.91,18.68-9.03,38.72-24.64,41.81-51.02,2.58-29.01,1.01-57.91-4.71-86.71-.31-1.68-.65-3.35-.99-5.03-.98-4.61-1.97-9.3-2.98-14.09-1.43-6.84-3.09-13.49-4.97-19.95,2.02,2.48,3.82,5.08,5.39,7.8,1.05,1.99,2.06,4.01,3.04,6.07,2.02-3.74,3.4-6.84,4.14-9.32,4.1-12.01,5.25-23.78,3.45-35.32-30.49-.36-56.4,1.55-77.7,5.74l-28.75,5.86-16.81,3.87c-17.31,3.59-33.75,8.64-49.36,15.1.17,1.16.36,2.32.61,3.49,2.58,12.43,9.25,22.04,20,28.85,11.52,4.92,23.74,5.53,36.65,1.83,4.51-1.22,9.04-2.5,13.59-3.83,6.4-1.87,12.68-4.12,19.01-6.21,6.36-2.1,13.69-1.74,22.01,1.08-4.54-.07-8.24.26-11.1.99-2.06.49-4.05,1.2-5.97,2.15,5.41,7.82,8.92,19.06,10.52,33.72.07.61.12,1.22.17,1.82,2.22,28.68-24.2,51.25-52.4,45.56-5.15-1.04-10.53-2.73-16.15-5.07-17-7.08-31.71-18.64-43.36-32.9-6.99-8.56-12.89-17.71-17.7-27.47-5.09-10.34-9.11-19.5-12.07-27.49-12.2,5.59-24.24,11.56-36.1,17.96-7.92,4.6-15.65,9.73-23.21,15.36Z"/>
            </g>
            <g>
              <path class="cls-58" d="M589.63,156.5c-11.69,15.01-19.58,29.69-23.67,44.04-4.12,14.31-7.59,31.19-10.42,50.63-1.33,6.7-2.71,13.51-4.14,20.42-9.22,4.47-14.3,12.04-15.24,22.73-.17,6.81,1.34,13.02,4.56,18.64l-1.07,5.95c-14.04-8.98-35.83-18.48-65.31-28.49-2.14-2.83-2.73-7.43-2.34-13.16,1.39-12.21,4.66-31.78,7.35-42.32,10.86-51.14,18.08-86.68,21.68-106.61.84-4.66,1.95-9.28,3.46-13.78,3.03-9.03,7.77-17.77,15.23-23.89,8.9-7.29,23.7-8.14,34.66-6.57,10.76,1.54,21.07,6.15,29.4,13.13,8.03,6.74,9.68,16.5,10.29,26.55.67,11.07-1.15,22.16-4.43,32.72ZM382.26,257.51c-.1-.56-.19-1.12-.29-1.7-.05-.3-.09-.57-.15-.87h0c-1.75-10.65-3.49-23.98-3.89-26.13-2.61-14.19-5.21-28.37-8.32-42.45-6.32-28.61-8.67-58.49-20.8-85.5-4.66-10.37-10.84-20.28-19.54-27.6-8.7-7.32-20.17-11.82-31.46-10.48-13.09,1.55-24.48,10.87-30.57,22.55-6.08,11.66-7.38,25.35-5.88,38.41,0,.03,0,.06.01.09,2.49,21.48,11.2,42.08,16.1,63.09.73,3.14,1.88,7.37,3.46,12.67l13.2,1.68c22.62,6.35,39.38,20.47,50.27,42.36,3.19,6.87,5.34,13.92,6.49,21.16,10.61.65,21.58,1.87,32.87,3.6-.31-3.36-.83-6.98-1.51-10.89ZM459.22,272.96c-.02-.12-.06-.23-.08-.35-.04-.21-.05-.43-.09-.65-.21-1.37-.4-2.77-.58-4.21-.19-1.58-.37-3.17-.49-4.77-.06-.68-.13-1.36-.19-2.05h.03c-.38-5.58-.55-11.2-1.03-16.75-.85-9.93-2.16-19.82-4.08-29.6-1.22-6.19-2.77-12.52-6.54-17.57-3.77-5.06-10.28-8.56-16.39-7.03-5,1.25-8.68,5.46-11.49,9.79-8.06,12.44-11.47,27.13-13.75,41.59-.2,1.25-1.82,11.86-3.68,19.97h0c-.01.07-.03.12-.05.18-.35,1.5-.7,2.89-1.05,4.13-.48,1.84-.99,3.59-1.53,5.25,1.86.36,3.72.73,5.59,1.12,23.4,5.05,43.27,10.03,59.66,14.93-2.03-3.57-3.36-8.41-4.28-13.99Z"/>
              <path class="cls-8" d="M613.03,199.86c-11.52,22.97-21.82,46.48-30.89,70.53-1.36,3.28-2.67,6.82-3.93,10.63,5.62,6.95,9.34,13.84,11.15,20.68-3.63-5.03-8.12-9.72-13.46-14.09-.79-.63-1.57-1.21-2.35-1.75-4.6-3.2-10.25-4.72-15.75-3.63-8.8,1.74-12.8,8.71-12.01,20.93,1.5,8.31,5.53,16.32,12.1,24.03,1.47,1.71,2.93,3.32,4.4,4.82-1.33-.45-2.25-.82-2.78-1.1-.8-.42-1.57-.86-2.3-1.31-.09.3-.17.56-.26.85,7.64,5.05,15.79,9.79,24.45,14.23,19.09,12.6,53.43,24.23,103,34.87,25.9,3.56,44.74,4.63,56.5,3.19,11.23-1.37,21.51-3.02,27.14-3.94,8.76-27.17-10.94-35.18-21.8-33.71-6.18.84-11.73,3.33-16.76,6.75,2.55-3.35,4.77-5.83,6.65-7.44,2.9-2.41,6.13-4.61,9.69-6.6-.45-8.38-.82-15.94-1.1-22.67-.03-.7-.05-1.41-.05-2.15-.31-8.69-.47-20.37-.47-35.03,1.19-21.75,1.99-46.53,2.41-74.36.42-27.82-6.91-50.67-21.99-68.54-13.06-1.89-22.81.67-27.49,10.05-5.84-7.09-8.13-15.85-8.43-25.55-3.42.03-6.67.51-9.74,1.41-3.84,8.55-5.45,16.76-4.82,24.61-4.75-4.54-8.97-9.63-12.67-15.29-20.6,20.25-36.74,43.43-48.44,69.54ZM672.04,322.23c-.8,12.36-1.62,26.79-2.46,43.3,3.07.49,6.06.86,8.95,1.1,1.4.1,3.74.12,7.02.05-.17.14-.33.24-.47.31-4.5,2.76-9.77,4.03-15.81,3.82-6.32-.24-12.03-1.26-17.12-3.04-3.11-1.05-5.93-2.27-8.48-3.67-3.35-1.82-6.37-3.93-9.06-6.34-2.97-2.62-5.76-5.6-8.38-8.95,3.14,2.23,6.41,4.24,9.79,6.02,14.49-30.16,27.11-60.95,37.86-92.37.21,18.12-.4,38.03-1.83,59.75Z"/>
              <path class="cls-28" d="M91.08,329.35c-7.92,4.6-15.65,9.73-23.21,15.36l-.09-.02c-22.55-51.93-29.65-103.7-21.32-155.31,8.2-51.07,32.9-86.63,74.09-106.66,5.72,3.86,12.01,5.56,18.87,5.09,4.52-.31,8.89-1.67,12.92-3.73,7.37-3.77,15.31-7.79,23.82-12.04,12.95,6.07,22.9,11.5,29.85,16.28,14.52,10.19,26.77,22.66,36.76,37.39,9.98,14.7,12.5,29.03,7.54,42.99-9.32,18.43-21.08,25.15-35.29,20.16-14.21-4.99-27.33-11.21-39.38-18.64-11.1-7.33-23.23-8.57-36.39-3.72-12.78,6.91-49.3,45-12.07,144.89-12.2,5.59-24.24,11.56-36.1,17.96ZM268.17,215.15c-14.56-.21-28.76,1.9-42.62,6.34-24.02,7.82-42.85,21.92-56.5,42.31-5.4,9.64-7.29,20-5.69,31.07,15.6-6.46,32.04-11.51,49.36-15.1l16.81-3.87,28.75-5.86c21.3-4.19,47.21-6.1,77.7-5.74-.61-3.89-1.55-7.76-2.82-11.6-12.92-27.02-34.58-39.53-64.98-37.54Z"/>
            </g>
            <g>
              <path class="cls-61" d="M579.31,236.77c11-29.71,26.18-57.09,45.56-82.16,7.4-9.36,15.2-18.05,23.41-26.08-3.87,1.05-8.62,3.93-14.24,8.64-9.98,7.51-18.59,16.28-25.81,26.34-18.54,25.83-30.18,55.12-34.93,87.86,2.16-5.17,4.17-10.04,6.02-14.61Z"/>
              <path class="cls-42" d="M477.05,150.27c-6.49,28.49-9.46,57.51-8.9,87.08,1.99-11.94,4.01-23.98,6.07-36.13,4.36-31.87,11.61-63.04,21.73-93.52,1.68-4.78,3.26-9.58,4.77-14.4-9.5,14.03-16.55,29.25-21.15,45.66-.94,3.74-1.78,7.51-2.51,11.31Z"/>
              <path class="cls-6" d="M449.35,433.45c-14.21-24.16-21.94-53.78-23.2-88.86-.1,1.36-.24,2.72-.42,4.08-.35,3.49-.77,7.03-1.26,10.63-1.19,24.33,4.24,46.93,16.28,67.81,1.57,2.2,4.26,4.89,8.06,8.06,1.05.84,2.09,1.62,3.14,2.36-.52-.7-.91-1.26-1.15-1.68l-.31-.47.47.05c-.73-.87-1.27-1.54-1.62-1.99Z"/>
              <path class="cls-4" d="M124.02,246.93c.38,18.4,4.21,38.42,11.52,60.06,7.32,21.65,16.61,39.91,28.43,54.3,6.56,7.98,14.47,14.45,22.99,20.32,8.03,5.53,17.73,10.65,29.53,14.77-6.91-4.15-12.35-8.01-16.39-11.47-25.77-22.05-45.52-48.4-59.33-79.38-8.95-20.09-14.66-40.13-16.76-60.27v1.68Z"/>
              <path class="cls-52" d="M637.22,384.59c2.76,2.51,5.36,5.97,7.8,10.37,4.54,8.34,7.44,16.83,8.69,25.45.84-10.37,1.45-20.67,1.83-30.89-1.54-.28-3.07-.65-4.61-1.1-.63-.07-1.33-.17-2.09-.31-1.5-.38-3.04-.8-4.61-1.26-2.41-.66-4.75-1.41-7.02-2.25Z"/>
              <path class="cls-34" d="M776.35,371.92c-.14,1.22-.3,2.44-.47,3.67-1.61,9.67-6.39,17.38-14.35,23.14-.38.24-.89.58-1.52.99,5.76-2.3,10.12-4.82,13.09-7.54,6.35-5.86,9.02-12.65,8.01-20.37-.1-1.15-.28-2.34-.52-3.56-.24-1.05-.52-2.11-.84-3.19-.73-2.51-2.02-5.31-3.87-8.38.8,4.19,1.03,8.47.68,12.83-.07.8-.14,1.61-.21,2.41Z"/>
              <path class="cls-23" d="M645.55,359.2c1.08.45,2.16.86,3.25,1.2,1.01.35,2.04.68,3.09.99-.24-3.67-.4-7.28-.47-10.84.07-1.89.16-4.5.26-7.85-1.92,5.34-3.96,10.84-6.13,16.49Z"/>
              <path class="cls-7" d="M204.5,72.36c-2.2-22.18-3.36-30.23-21.94-44.35,27.15,13.42,24.26,33.58,21.94,44.35Z"/>
            </g>
            <g>
              <path class="cls-25" d="M137.84,30.01c-6.23,1.8-11.78,5.61-15.36,11.01-3.17,4.78-4.22,9.73-3.15,14.84,1.79,8.58,9.09,14.8,17.74,16.16,6.63,1.05,13.37-.52,20.2-4.7,4.08-2.16,8.36-4.01,12.83-5.55,8.9-2.9,15.6-3.26,20.11-1.1-4.53-8.6-13.55-15.71-24.61-22.15,13.58,2.75,24.82,13.68,27.54,17.7-5.41-9.91-12.41-17.49-21-22.73-11.37-5.66-22.81-6.82-34.3-3.5Z"/>
              <path class="cls-30" d="M659.58,89.79c.1,4.19.82,10.39,2.15,18.59.49,2.34,1.05,4.42,1.68,6.23.63-30.08,14.45-44.77,20.42-50.32-6.14,10.54-16.52,29.86-13.98,44.51,4.78-8.66,11.93-17.11,21.47-25.34,7.21-6.22,13.16-12.15,17.84-17.79,3.47-4.19,6.14-9.03,7.54-14.29,2.61-9.78.53-17.52-6.25-23.24-6.91-5.83-16.51-7.52-25.08-4.64-8.91,3-15.29,10.04-19.09,21.15-5.54,16.19-7.75,31.24-6.7,45.14Z"/>
              <path class="cls-51" d="M757.12,106.86c-3.14-11.75-17.15-16.93-29.13-14.84-13.51,2.36-22.79,12-27.83,28.93-.14.45-.28.94-.42,1.47,9.08-5.67,20.18-8.88,28.59-7.28-14.3,4.98-19.34,10.7-19.48,10.84,12.75-1.77,21.98.09,29.43,1.41,23.5,4.18,19.92-16.47,18.84-20.53Z"/>
            </g>
          </g>
          <g>
            <path class="cls-15" d="M381.68,724.66s0,0,0,0c-.06.16-.03.05,0,0ZM575.14,658.97c-.57-4.84-4.35-8.62-8.09-11.75-11.04-9.23-23.67-16.4-36.78-22.32-18.49-8.34-38.05-14.25-58.04-17.71-30.11-5.22-61.18-4.69-91.15,1.24-22.04,4.36-43.5,11.65-63.58,21.74-3.44,1.73-6.81,3.62-10.04,5.71-4.96,3.2-9.76,6.93-13.83,11.21-3.93,4.14-7.07,9.52-9.82,14.5-5.68,10.28-9.52,21.71-10.05,33.5-.49,10.76,1.74,21.58.46,32.27-.52,4.34-1.58,8.93.16,12.94.74,1.7,2.08,3.26,3.88,3.69,2.21.53,4.55-.84,5.74-2.78,1.18-1.94,1.4-4.32,1.28-6.59-.17-3.22-.85-6.48-.64-9.71.02-.39.07-.78.13-1.17,1.22,2.79,3.43,5.01,5.94,6.66,2.15,1.42,4.66,2.64,5.88,5.04.78,1.53.88,3.32.74,5.04-.31,3.51-1.6,6.84-2.43,10.26-.83,3.42-1.17,7.17.36,10.34,1.53,3.17,5.44,5.39,8.68,4,1.57-.67,2.74-2.04,3.55-3.54,2.87-5.32,1.63-11.81,2.32-17.81.1-.9.32-1.91,1.08-2.4.84-.55,1.96-.23,2.92.08,7.54,2.42,15.66,2.9,23.46,1.58,3.9-.66,7.72-1.78,11.36-3.33.86-.37,9.97-4.82,9.43-5.68.05.08.09.16.13.24.03.05.05.1.08.15,0,0,0,0,0,.02h0s0,0,0,.02h0s.03.06.03.06c2.78,7.18.95,14.95-.19,22.25-.26,1.69-.41,3.64.77,4.87.57.59,1.37.92,2.19,1.01,2.21.25,4.38-1.21,5.45-3.16,1.07-1.95,1.19-4.3.87-6.51-.32-2.2-1.05-4.32-1.61-6.48-.97-3.76-1.41-7.72-.72-11.54.4-2.22,1.19-4.38,2.4-6.29.98-1.55,2.84-4.19,4.88-4.32.33-.02.69.05.93.28.3.28.36.73.4,1.14.13,1.6.07,3.21-.16,4.8-.22,1.5-.71,2.98-.63,4.51.06,1.28.64,2.64,1.79,3.21,1.63.81,3.62-.26,4.72-1.71,1.16-1.51,1.67-3.35,1.94-5.2.29-1.97-.32-3.98.08-5.94.08-.39.24-.8.52-1.07,0,0,0,0,0,0,.11-.1.23-.19.38-.24.33-.1.68-.02,1,.09,2.01.7,3.49,2.39,5.48,3.17,2.34.92,4.85,1.44,7.36,1.57,5.35.26,10.86-1.36,14.71-5.2,6.27-6.26,6.93-16.16,5.96-24.96-.77-6.95-.7-12.22,4.85-16.99,0,.17-.02.34-.01.51.01.33.03.66.06.98.02.17.03.33.06.49.02.23.03.49.09.71,0-.04-.01-.08-.01-.12.01.08.02.15.03.22,0,.05.01.1.02.15.02.08.03.16.05.25.03.16.06.32.09.49,1.16,6.6,4.99,14.34,11.48,17.04,5.6,2.33,12.35.39,16.82-3.7,4.47-4.09,6.94-9.98,8.15-15.92.59-2.9.93-5.89,2.11-8.61,5.15-11.92,27.65-11.09,38.23-10.86,12.19.26,24.29,2.59,35.92,6.18,9.6,2.96,19.8,6.78,29.38,3.76,4.34-1.37,8.36-4.63,10.14-8.67.78-1.76,1.13-3.68.9-5.65Z"/>
            <path class="cls-40" d="M457.1,638.03c-2.62,2.97-4.68,6.39-6.18,10.26,8.17-5.31,53.4-20.2,99.65.26-21.9-14-72.74-26.41-96.07-29.04-22.71-2.56-45.84-1.42-68.2,3.33-11.05,2.35-21.91,5.58-32.44,9.69-11.36,4.43-23.19,8.61-32.14,17.21-8.64,8.3-15.04,18.94-18.24,30.49-2.49,8.98-2.93,19.09,1.75,27.14,4.09,7.03,11.69,11.58,19.66,13.22,18.37,3.76,40.04-4.91,53.03-17.9,3.53-3.53,7.45-6.93,11.78-10.21-1.54-3.35-4.31-4.22-8.33-2.62.28-1.33,1.47-2.5,3.56-3.51,5.48-1.43,8.31.8,8.48,6.7-2.3,6.81-4.61,14.26-.94,19.58,3.79,5.5,10,2.1,10.79-5.92.49-5-.79-10.21-1.94-15.55-.87-9.88,3-16.77,11.62-20.68.02,0,.04-.01.05-.02,3.42-1.1,6.34-3.43,7.8-6.71,1.15-2.6,2.5-4.84,4.04-6.73,2.3-2.93,5.25-3.81,8.85-2.62,4.68,2.51,5.45,6.28,2.3,11.31-4.04,7.75-3.99,14.12.17,19.1,1.19,1.43,3.25,1.88,4.91,1.05,3.19-1.58,5.53-4.7,5.28-9.36-.26-5.03-1.71-10.12-2.51-15.5.24-7.26,2.74-13.58,7.49-18.96,1.75-1.64,3.67-2.98,5.76-4.03Z"/>
            <g>
              <path class="cls-44" d="M308.49,721.5c-30.97-11.34-29.17-66.61,19.79-83-26.64,8.41-55.93,58.01-19.79,83Z"/>
              <path class="cls-12" d="M550.67,653.69c-48.57-21.01-93.54-4.17-97.13,6.55,35.92-24.63,95.18-6.89,97.13-6.55Z"/>
            </g>
            <g class="cls-20">
              <path class="cls-18" d="M373.83,690.24c-9.31,15.24-33.86,26.62-51.48,19.8-10.59-4.52-13.38-15.47-10.07-25.94,1.42-5.42,6.96-8.67,12.38-7.25s8.67,6.96,7.25,12.38c-.5,2-1.86,3.84-2.97,5.46-.69.65-.15,1.35.59,2.18,3.07,2.73,8.62,3.76,13.06,3.97,11.04.45,22.71-2.95,31.23-10.61h0Z"/>
            </g>
          </g>
          <g>
            <g>
              <path class="cls-15" d="M546.32,628.25c-9.38,0-18.67-2.73-26.85-7.91-1.75-1.1-13.42-7.63-20.21-19.49-2.49,6.66-6.54,12.55-11.72,16.85-4.93,4.1-11.29,6.26-18.38,6.26h0c-9.87,0-21.11-4.29-28.96-10.99-.12.12-.25.23-.38.34-3.9,3.42-9,5.23-14.74,5.23-2.16,0-4.4-.26-6.65-.77-8.31-1.88-16.41-6.7-22.82-13.58-2.68-2.88-5.28-6.19-7.72-9.86-.19,2.85-.61,5.76-1.05,8.76-2.29,15.62-14.38,26.27-36.65,18.06l-12.54,1.33c-.7.07-1.4.11-2.08.11-1.18,0-2.34-.11-3.46-.33l-.37-.08c-10.02-2.31-17.85-8.63-22.37-17.44-.08.06-.31.25-.23.19.23-.19-6.88,9.12-19.61,14.42-5.24,2.18-10.9,2.7-16.39,2.7h0c-11.41,0-22.36-3.89-31.67-11.24-.66-.52-1.31-1.05-1.95-1.61-3.25-2.81-5.99-6-8.21-9.56-1.06,1.31-2.17,2.54-3.32,3.71-8.97,9.09-21.21,14.3-33.58,14.3h-.09c-13.11-.03-24.3-5.46-33.99-16.54-1.08,1.69-2.25,3.35-3.5,4.96l-.12.15c-4.94,6.15-13.19,17.93-53.68,20.35-13.01.78-24.87-2.62-35.19-7.78-15.51-7.76-27.02-21.6-30.8-37.03-1.17-4.79-1.4-9.38-.72-13.63-2.3.54-4.61.82-6.9.82h0c-2.5,0-4.95-.33-7.28-.99-7.2-2.04-13.06-7.21-15.68-13.84-2.13-5.41-1.93-11.29.57-16.56,4.81-10.15,15.78-14.33,19.03-15.37,3.19-1.02,6.56-1.54,10.02-1.54,4.92,0,9.5,1.03,13.48,2.45-4.61-8.98-6.54-19.58-5.05-30,2.47-17.25,13.71-33.28,30.08-42.88,10.41-6.11,22.23-9.33,34.19-9.33,5.77,0,11.44.76,16.86,2.27,15.02,4.18,28.06,14.18,35.78,27.44,1.58,2.72,2.84,5.57,3.75,8.45,2.61-1.9,5.39-3.62,8.32-5.16,7.15-3.75,13.79-5.57,20.32-5.57.73,0,1.47,0,2.19.07,31.93,2.8,38.74,15.2,40.22,16.94,6.03-7.01,13.66-12.13,20.42-15.11,6.44-2.84,13.51-4.34,20.43-4.34,5.24,0,10.33.84,15.12,2.49,6.72,2.32,12.67,6.21,17.37,11.18,1.11-4.64,3.88-9.05,8.01-12.54,4.96-4.19,11.36-6.41,18.51-6.41,1.59,0,3.22.12,4.82.34,5.46.77,10.59,2.78,14.81,5.8,4.61,3.29,8.25,7.71,10.69,12.75,1.39-1.51,2.82-2.94,4.28-4.28,7.2-6.58,15.82-10.35,24.29-10.64.34-.01.68-.02,1.02-.02,5.52,0,10.6,1.51,14.69,4.38,3.7,2.59,6.58,6.2,8.73,10.96,4.99-5.83,12.87-10.76,25.27-11.33.64-.03,1.28-.04,1.92-.04,5.09,0,9.8.94,13.98,2.8,14.14,6.27,21.06,23.77,19.57,37.07-.8,7.09-3.63,12.95-6.14,18.11-.4.82-.79,1.64-1.18,2.46-4.71,10.03-7.74,21.04-8.87,32.19,2.79-1.13,6.18-2.45,10.03-2.97,1.12-.15,2.25-.23,3.35-.23.98,0,1.96.06,2.92.18-3.6-19.5-1.71-39.96,5.82-58.49,7.51-18.47,19.96-32.84,35.06-40.45,7.82-3.94,16.61-6.03,25.41-6.03,11.77,0,22.88,3.81,31.27,10.73,1.64,1.35,3.19,2.83,4.63,4.41,5.09-4.82,11.64-7.89,18.44-8.36.74-.05,1.5-.08,2.25-.08,11.56,0,22.43,5.91,28.93,15.12,4.03-2.91,8.98-4.49,14.5-4.49,12.52,0,25.09,8.15,30.43,19.17,5.19-13.22,16.72-21.64,30.96-22.29l.48-.02h.48c4.56.16,8.88,1.28,12.79,3.27,4.77-2.83,9.68-4.27,14.59-4.27s9.38,1.35,13.66,4c4.77-1.61,9.59-2.42,14.38-2.42,7.41,0,14.73,1.93,21.77,5.75,10.59,5.74,17.47,18.6,19.38,28.12,1.2,5.96,1.08,12.16-.33,18.24,1.76-.74,3.57-1.39,5.41-1.93,3.84-1.12,7.4-1.67,10.89-1.67.92,0,1.84.04,2.74.12,9.76.86,18.88,6.64,23.82,15.1.89,1.53,1.61,3.11,2.14,4.69,1.25,3.78,1.39,7.68.4,11.26-1.61,5.76-6.04,10.48-12.15,12.93-3.25,1.3-6.69,1.94-10.51,1.94h0c-4.09,0-7.85-.74-11.17-1.39-.71-.14-1.39-.27-2.05-.39.64,3.46.83,7.04.55,10.63-.25,3.23-.88,6.42-1.88,9.46-.47,1.45-1.33,3.57-2.74,5.78-11.91,18.65-32.28,25.44-46.82,26.79-4.71.44-9.03.65-13.22.65-9.08,0-17.04-1.01-24.33-3.08-4.39-1.25-8.26-3.11-11.49-5.52-.72-.54-1.53-1.18-2.37-1.96-5.52,8.24-23.29,15.35-29.76,17.01l-.18.05c-6.62,1.59-13.46,2.4-20.33,2.4-2.93,0-5.91-.15-8.88-.44l-9.73-.95c-3.26,1.25-6.65,2.23-10.14,2.89-3.86.73-7.86,1.1-11.91,1.1-6.15,0-12.42-.84-18.64-2.51-4.33-1.16-9.4-2.72-14.2-5.52-1.12-.65-3.77-2.47-5.79-3.97-.53-.4-1.06-.79-1.57-1.19-8.73,10.09-21.3,15.92-34.94,15.92ZM81.97,551.29c6.12,5.21,12.57,10.34,19.16,15.25.56.38,2.96,1.19,6.71,1.19,1.85,0,3.76-.21,5.1-.57,1.56-.42,2.75-1.46,3.06-2-.03-.23-.15-.79-.54-1.81-.95-2.44-2.32-4.56-3.97-6.12-4.38-4.16-11.61-5.71-19.98-7.5-4.84-1.04-10.05-2.15-15.21-3.94l-.41.31,6.08,5.18ZM625.54,560.93c.1.24.21.47.32.71.13-.07.26-.16.4-.25l-.73-.46ZM676.92,529.72c-.93,7.26-1.5,15.01-1.02,22.64.18,2.82.78,5.42,1.58,7.56.57-.14,1.26-.68,1.45-2.74.59-6.53.4-13.13-.57-19.61-.38-2.55-.89-5.15-1.43-7.86ZM537.04,513.32c-1.41,1.94-3.15,5.03-4.9,9.77-2.68,7.26-3.39,15.48-1.98,23.13.74,4.05,1.92,7.38,3.51,9.9.36.58.76,1.12,1.19,1.62,1.42-10.38,9.18-19.54,19.59-22.83,0,0-.02,0-.03,0-11.71-3.62-15.72-14.92-17.38-21.59ZM268.12,528.54c-.06.27-.12.55-.17.84l-.05.26c-1.11,5.27-1.12,10.06-.03,14.66.59,2.51,1.51,4.93,2.76,7.3.55-2.82,1.61-5.86,3.52-8.72.91-1.36,1.96-2.6,3.14-3.74-3.67-2.62-6.8-6.21-9.17-10.61ZM201.64,545.27c-.05-.4-.11-.81-.18-1.24-.04-.23-.08-.47-.12-.7-.93-5-2.78-9.69-5.07-13.24-1.01,4-1.21,8.27-.47,12.18.15.8.36,1.58.62,2.31,1.52,4.93,5.44,4.29,5.22.68ZM107.28,512.13c1.62.17,3.46.24,5.35.3,2.74.1,5.84.21,9.01.66,4.41.63,9.01,1.93,14.05,3.98,2.08.84,4.07,1.83,5.97,2.96.08-1.01.19-2.02.32-3.05-.09,0-.17,0-.26,0-8.26,0-15.73-3.27-21.59-9.47l-.44-.47-.39-.51c-2.59-3.37-6.9-6.25-10.67-7.34-8.88-2.24-9.27,11.54-1.34,12.93Z"/>
              <g>
                <path class="cls-47" d="M780.16,484.65c-9.6-5.2-19.39-5.62-29.38-1.26l-.58.21c.1,1.26.05,2.64-.16,4.14-1.43,4.08-2.64,5.17-3.61,3.25-.07-1.71-.26-3.35-.58-4.92,0-.31-.02-.61-.05-.89-.28-1.54-.84-2.78-1.68-3.72-5.06-3.53-10.51-3.51-16.34.05l-.1.1c10.54,15.46,11.54,35.4,9.16,54.24,0,0,0,0,0,0,16.24,3.41,32.92,8.1,50.11,14.32.21-1.52.58-3.03,1.16-4.52.24-.63.51-1.24.79-1.83-4.7-3.09-10.02-5.25-15.63-5.92-1.76-.21-9.14-2.02-10.55-1.05,4.22-2.9,9.76-3.68,16.6-2.36.77.14,1.52.3,2.25.47,1.37.33,5.6-5.41,6.33-6.4,1.62-2.17,2.87-4.58,3.82-7.12,2.03-5.44,2.67-11.48,1.53-17.19-1.41-6.99-6.61-16.1-13.1-19.61ZM758.69,524.5c-.66.14-1.47.26-2.41.37-1.36.17-2.78.23-4.24.16.17-1.85.3-3.72.37-5.6.03-.63.09-1.26.16-1.89.1-2.58-.09-4.99-.58-7.23-.1-.84-.19-1.68-.26-2.51,0-.35,0-.72,0-1.1-.73-3.04-1.45-5.62-2.15-7.75.03.07.09.12.16.16.66.77,1.38,1.5,2.15,2.2,1.29,1.36,2.27,2.79,2.93,4.29.35.42.66.93.94,1.52h.52c3.81-.17,7.24.7,10.32,2.62,3.07,7.23.44,12.15-7.91,14.77ZM799.55,554.95c-.58-.23-1.16-.45-1.74-.68.17-.06.34-.13.52-.19.21-.07.42-.12.63-.16.21.34.4.68.59,1.03Z"/>
                <path class="cls-38" d="M630.13,529.39c-.05,1.28-.11,2.57-.14,3.85.08-3.71.27-7.41.57-11.1.2-2.46-.12-6.4.79-8.69,3.11-7.82,4.26-15.06,3.46-21.73,5.47-16.33,27.99-7.07,31.84,5.59,1.95,6.44.68,13.35-.45,19.98-.61,3.61-1.16,7.24-1.63,10.89h0c-11.65-.08-23.11.37-34.43,1.21ZM689.52,529.17c12.86.94,25.97,2.6,39.37,5.1,1.05-9.16,1.31-18.39.29-27.54-.64-5.74-1.81-11.54-4.66-16.56-3.43-6.05-9-10.13-16.01-10.35-10.51.48-18.07,7.12-20.86,17.2-1.74,6.29-1.48,12.98-.52,19.44.63,4.26,1.55,8.48,2.38,12.7Z"/>
                <path class="cls-48" d="M575.11,525.81c-.29,2.77-.64,5.55-1.06,8.33-.12.82-.25,1.64-.39,2.46,12.81-2.2,25.74-4.12,38.84-5.57,0,0,0,0,0,0,.32-.58.65-1.16,1-1.72,1.97-3.18,4.36-6.1,6.25-9.33,2.59-4.43,4.18-9.38,5.21-14.4,1.22-5.93,1.64-12.21-.31-17.94-3.18-9.34-13.08-15.92-22.92-15.24-6.34.44-12.17,5.01-14.9,10.69,3.11,10.05,2.88,19.92-.68,29.58-2.27,5.17-5.95,9.55-11.05,13.14Z"/>
                <path class="cls-10" d="M492.05,552.78c8.56-1.72,17.11-3.49,25.67-5.27-1.59-9.59-.66-19.62,2.71-28.75,3.05-8.24,9.29-20.89,19.48-20.76-.14-.17-.26-.33-.37-.47-3.49-1.88-6.07-3.16-7.75-3.82.03.01,2.08-1.33,2.41-1.43,1.23-.38,2.54-.31,3.77-.02,2.02.48,3.94,1.68,5.35,3.17,3.09,3.26,4.31,8.06,5.23,12.33,1.32,6.16,3.52,13.36,9.54,15.22,2.39.74,4.99.44,7.38-.3,6.39-1.98,11.63-7.08,14.27-13.23,2.64-6.15,2.78-13.24.89-19.66-1.86-6.34-5.66-12.09-10.75-16.29-11.77-9.7-29.51-10.06-43.13-3.19-13.62,6.87-23.38,19.89-29.12,34.02-7.2,17.7-8.48,37.66-4.08,56.24-.61-2.58-1.11-5.19-1.51-7.81Z"/>
                <path class="cls-49" d="M440.74,544.66c.1.21.19.44.26.68,1.07,4.7.98,8.93-.25,12.72-.46,1.42-1.09,2.77-1.87,4.06,0,0,0,0,0,0,4.22-.59,8.43-1.23,12.63-1.91h0c1.24-12.64,4.61-25.05,10.02-36.56,2.53-5.39,5.55-10.74,6.21-16.65.98-8.77-3.79-20.54-12.23-24.28-3.2-1.42-6.78-1.85-10.28-1.69-9.28.42-16.14,4.07-19.88,12.7-5.43,12.51-5.47,27.24-4.61,40.61.1,1.64-.12,2.97-.68,3.98,8.38-4.82,15.27-2.71,20.68,6.34Z"/>
                <path class="cls-11" d="M350.71,562.62c.35.81.69,1.64,1.03,2.46,0,0,0,0,0,0,13.76,1.45,27.55,2.1,41.37,1.46,13-.6,25.83-1.82,38.55-3.45-.43.49-.89.97-1.36,1.43,2.92-2.89,5.15-6.28,5.87-10.21.57-3.14-.13-11.01-3.85-12.48-10.14-4.02-17.12,6.59-26.44,9.01,0,0,.99-1.52.99-1.52,2.13-1.61,4.12-3.42,5.97-5.45.59-.63,1.2-1.22,1.83-1.78-2.39-8.85-3.06-17.91-3.02-27.07.04-9.3.39-18.88-2.74-27.79-1.09-3.11-2.7-6.2-5.4-8.09-2.34-1.64-5.29-2.21-8.14-2.11-6.09.2-11.8,3.27-16.3,7.38-6.21,5.67-12.12,13.91-15.36,21.71-3.84,9.25-7.24,18.62-10.21,28.12-.91,4.08-2.04,8.17-3.4,12.25-1.08,6.39-.91,11.7.52,15.92.03.07.05.14.08.21ZM369.48,557.59c.59-.31,1.15-.23,1.68.26,1.15.45,2.34.8,3.56,1.05.73-6.23,2.81-11.59,5.9-17.03,1.5-2.65,3.15-5.21,4.86-7.73.76-1.11,4.92-5.62,4.74-6.66.39,2.3-1.13,4.52-1.74,6.67-.71,2.49-1.11,5.06-1.31,7.64-.42,5.34.02,10.72.75,16,4.96-1.99,8.66-2.88,11.1-2.67.1.17.16.37.16.58l-3.35,1.94c-3.84,2.21-8.43,4.12-12.78,5-3.02.61-5.74-.02-8.63-.87-3.7-1.05-5.34-2.44-4.92-4.19Z"/>
                <path class="cls-2" d="M344.65,564.27h0c-.48-2.35-.82-4.72-.89-7.12-.19-6.35,1.37-12.55,2.42-18.76.91-5.39,2.44-13.44-.74-18.39-1.29.66-2.64,1.19-4.03,1.57-1.78.49-4.59.86-8.43,1.1-1.01.07-1.94.03-2.78-.1-1.36-.14-2.22-.51-2.57-1.1-.1-.1-.19-.23-.26-.37.28-.66.75-1.2,1.41-1.62,2.27-2.44,3.61-4.56,4.03-6.34,0,0-.84-.1-.84-.1-6.88-.86-11.7,8.18-13.88,13.22-2.72,6.29-1.69,13.67-.88,20.3,2.59,4.41,3.85,9.27,4.24,14.24,7.71,1.33,15.45,2.52,23.2,3.48Z"/>
                <path class="cls-41" d="M313.25,557.79s.02.09.03.13c.24,1.08.38,2.16.47,3.25-.05-.6-.12-1.2-.22-1.8-10.22-1.88-20.4-3.94-30.53-5.99-.27,1.1-.39,2.25-.43,3.41.08-2.48.57-4.92,1.94-6.96,1.9-2.84,5.22-4.45,8.55-5.21,3.42-.78,7.09-.78,10.34.53,5.16,2.07,8.62,7.22,9.85,12.64ZM248.04,545.82c0,.27-.03.54-.03.8,2.65.46,5.3.94,7.96,1.43-.08-.29-.16-.58-.23-.88-1.51-6.36-1.52-13.06-.03-20.11,1.68-8.87,6.14-15.01,13.4-18.43.28-.03.54-.03.79,0-1.05-1.22-2.65-1.89-4.82-1.99-3.18-.35-3.37-1.12-.58-2.3,8.45.73,12.97,6.09,13.56,16.08,2.73,6.54,7.94,11.47,15.41,11.27,4.28-.11,8.42-1.9,11.74-4.61,2.98-2.44,5.43-5.86,5.58-9.71.1-2.46-.75-4.85-1.36-7.24-.99-3.85-1.4-7.84-2.66-11.61-2.85-8.57-10.12-15.4-18.66-18.35s-18.17-2.18-26.44,1.47c-9.77,4.31-19.48,13.1-22.61,23.54-.1.35-.24.68-.42.99,2.13,4.36,3.98,8.76,5.55,13.2,2.78,8.56,4.07,17.38,3.87,26.45Z"/>
                <path class="cls-1" d="M183.06,540.99c-.9-10.08,2.11-21.09,8.38-28.85,2.93-3.63,5.9-5.36,8.9-5.18-.24.49-.61.79-1.1.89-1.61,1.29-3.07,2.88-4.4,4.77,10.55,4.41,16.76,17.7,18.76,28.45.05.29.1.57.15.86,7.02.63,14.07,1.52,21.16,2.57,0-.24,0-.47-.02-.71-.83-16.62-6.4-33.07-16.06-46.66-5.74-8.07-13.78-15.65-23.67-16.3-5.53-.36-10.99,1.52-15.9,4.1-7.9,4.14-14.87,10.22-19.56,17.81-6.59,10.68-5.91,21.46-5.91,33.43v.16c1.34,1.55,2.54,3.18,3.64,4.88.49.76.95,1.55,1.4,2.34,8.01-1.44,16.09-2.25,24.23-2.56Z"/>
                <path class="cls-57" d="M71.23,529.58c14.62,9.82,36.07,6.48,48.84,18.61,1.8,1.71,3.34,3.68,4.63,5.81,0,0,0,0,0,0,7.84-3.51,15.76-6.21,23.76-8.23-1.37-2.93-3.05-5.64-5.06-8.05-3.28-3.94-7.42-7.08-12.41-9.1-3.58-1.45-7.3-2.64-11.12-3.19-7.74-1.1-16.18.33-23-3.5-4.39-2.46-7.45-6.83-9.3-11.51-1.17-2.97-1.91-6.2-1.42-9.36.48-3.09,2.13-5.91,4.28-8.19,3.63-3.85,8.76-6.26,14.04-6.59,9.1-.56,19.3,5.61,24.7,12.65,4.29,4.54,9.58,6.3,15.87,5.29,4.41-.71,8.37-7.34,9.09-11.25,1.01-5.42-.8-11.46-3.5-16.11-6.15-10.55-16.62-18.43-28.35-21.7-13.79-3.84-29.05-1.44-41.39,5.8-12.36,7.25-22.01,19.71-24.04,33.89-1.87,13.07,3.41,27.35,14.37,34.72Z"/>
              </g>
              <g>
                <path class="cls-46" d="M345.48,567.87c-.31-1.2-.58-2.4-.82-3.6-7.75-.96-15.48-2.15-23.2-3.48.37,4.76-.07,9.62-.94,14.3.14,2.16.42,4.31.84,6.44.38,1.75.8,3.46,1.26,5.13.42,1.36.89,2.71,1.41,4.03,2.99,8.02,7.24,12.54,14.36,17.19.61.4,1.34.58,2.07.53.01,0,.02,0,.03,0,1.22-.09,2.39-.47,3.43-1.12,3.74-2.31,5.78-5.3,6.58-10.09.94-5.69-.04-11.55-1.51-17.06-1.09-4.1-2.45-8.16-3.51-12.26Z"/>
                <path class="cls-62" d="M148.46,545.77c-8,2.01-15.92,4.71-23.76,8.23.93,1.55,1.73,3.17,2.39,4.85.86,2.23,1.49,4.6,1.39,6.99-.29,6.48-6.05,11.7-12.32,13.37-6.38,1.7-16.94,1.45-22.47-2.67-6.84-5.1-13.44-10.35-19.79-15.76.31,2.3.35,4.54.1,6.7.07.87-.09,1.54-.47,1.99-.1.28-.21.56-.31.84l-.1.47c-.56-1.43-1.1-3.74-1.62-6.91-.42-.21-.61-.54-.58-.99l-.1-.21c-1.4-1.92-3.39-3.51-5.97-4.76-3.7-1.8-10.36,2.26-12.69,4.82-4.11,4.5-4.37,10.38-2.98,16.09,3.08,12.6,12.67,23.04,24.27,28.84s25.01,7.3,37.91,6.06c6.33-.61,12.7-1.88,18.36-4.79,11.89-6.12,19.25-18.92,21.83-32.04,1.71-8.7,1.58-17.85-1.16-26.28-.54-1.67-1.18-3.28-1.9-4.83Z"/>
                <path class="cls-50" d="M283,553.38c-.55,2.28-.52,4.76-.3,7.12.51,5.3,1.56,10.66-1.33,15.5-1.06,1.76-2.53,3.19-4.29,4.24-.85.51-4.88,2.68-5.78,2.06-1.22-.84-1.08-1.57.42-2.2,3.49-1.78,5.53-4.24,6.13-7.38-5.52-.03-10.02-2.71-13.51-8.01-4.08-5.26-6.85-10.81-8.37-16.66-2.66-.49-5.31-.97-7.96-1.43-.29,9.22-2.09,18.71-5.46,28.46,0,.14,0,.31,0,.52,1.64,24.65,33.57,31.7,52.74,23.19,2.14-.95,4.22-2.08,6.04-3.55,1.9-1.53,3.51-3.41,4.88-5.44,3.13-4.65,4.98-10.05,6.26-15.5,1.15-4.89,1.84-9.99,1.06-14.93-10.22-1.88-20.4-3.94-30.53-5.99Z"/>
                <path class="cls-45" d="M213.76,541.92s0,.05.01.08c.65,3.93.79,8.04-.41,11.84-1.2,3.8-3.92,7.27-7.67,8.64-3.76,1.38-8.08.47-11.52-1.57-5.76-3.41-9.38-9.74-10.62-16.32-.22-1.18-.38-2.39-.49-3.61-8.14.31-16.22,1.12-24.23,2.56,1.92,3.42,3.39,7.12,4.39,11.11,2.51,9.95,2.25,18.62-.79,26.02-.07.28-.16.56-.26.84.91,1.85,1.76,3.47,2.57,4.87,7.08,10.52,16.21,18.79,29.62,18.82,9.22.02,18.29-4.03,24.77-10.59,5.38-5.45,8.97-12.44,11.47-19.67,3.38-9.77,4.76-20.14,4.33-30.45-7.09-1.06-14.15-1.94-21.16-2.57Z"/>
                <path class="cls-54" d="M430.85,576.08c-.73-1.64-1.62-3.25-2.67-4.82-.94.38-1.9.73-2.88,1.05-2.27.49-4.5.68-6.7.58-.24.03-.49.03-.73,0,4.7-2.26,10.05-5.52,13.79-9.79-12.72,1.63-25.54,2.84-38.55,3.45-13.81.64-27.61-.02-41.37-1.46,1.94,4.67,3.74,9.41,5.39,14.25,1.47,4.71,2.08,9.53,1.83,14.45.17,4.19-.4,7.96-1.73,11.31,5.31,2.2,10.24,2.03,14.79-.51,1.34-.75,2.27-2.04,2.53-3.55,1.09-6.42,1.33-12.35.7-17.78-.24-2.83-.45-5.48-.63-7.96-5.2-2.16-8.62-4.24-10.26-6.23,13.02,6.51,21.36,5.99,32.78,6.34.94.07,1.87.1,2.78.1-.56.17-1.26.63-2.09,1.36-.94.7-2.48,1.15-4.61,1.36.17-.02,4.31,8.08,4.81,8.85,2,3.03,4.24,5.99,6.72,8.65,4.39,4.71,10.11,8.48,16.44,9.91,3.57.81,7.68.73,10.43-1.68,3.62-3.17,4.44-9.41,4.26-13.94-.22-5.58-2.85-9.1-5.01-13.93Z"/>
                <path class="cls-32" d="M479.49,570.64c-1.3-.26-2.59-.26-3.86-.09-5.62.75-11.02,4.85-16.88,4.94-3.23.05-6.52-1.09-9.41-2.46-.54-.26-5.64-4.53-4.4-4.71.73-.1,1.36.1,1.89.63,1.89.98,3.58,1.59,5.08,1.83-.49-1.4-.77-2.71-.84-3.93.09-2.22.24-4.44.46-6.65-4.2.67-8.41,1.31-12.63,1.91-1.21,2-2.81,3.84-4.8,5.53,7.54,8.06,10.8,18.12,9.79,30.16-.07.56-.16,1.1-.26,1.62,1.99,1.71,3.35,2.9,4.08,3.56,7.47,6.76,23.17,12.36,31.86,5.13,5.44-4.52,8.77-11.5,9.72-18.41.54-3.91.38-8.01-1.19-11.62-1.58-3.62-4.73-6.68-8.6-7.45Z"/>
                <path class="cls-59" d="M799.55,554.95c-.58-.23-1.16-.45-1.74-.68-.42.16-.83.32-1.24.5-2.38,1.06-4.62,2.62-6.73,4.7-1.36,1.12-2.18.84-2.46-.84,0-.14.03-.28.1-.42-.63-2.38-.84-4.71-.65-7,.03-.35.08-.7.12-1.04-17.2-6.22-33.87-10.9-50.11-14.32-.91,7.2-2.32,14.25-3.87,20.82-1.39,5.85-3.12,11.56-5.52,17.09-.56,1.3-7.95,15.17-8.46,14.78,1.33,1.01,2.74,1.9,4.24,2.67,11.68,5.97,27.91,6.81,40.61,4.79,6.81-1.09,13.45-3.17,19.72-6.03,5.06-2.31,13.46-5.62,16.7-10.39.55-.81.9-1.72,1.21-2.65.69-2.11,1.12-4.32,1.3-6.55.38-4.88-.49-9.88-2.62-14.26-.19-.39-.39-.78-.6-1.16ZM760.68,568.9c-2.16.98-4.24,1.43-6.23,1.36l-1.99,8.12c-1.78-.42-2.36-2.29-1.73-5.6.03-1.15.02-2.29-.05-3.4-.21-1.89-.31-3.75-.31-5.6,0-.49,0-1.08,0-1.78-.1-1.95-.16-4.03-.16-6.23,0-1.12.05-2.04.16-2.78.94-.21,1.61-.31,1.99-.31.59-.07,1.2-.09,1.83-.05,4.15.49,7.42,2.25,9.79,5.29,2.02,4.57.93,8.24-3.3,11Z"/>
                <path class="cls-33" d="M728.83,534.91c.03-.21.04-.42.07-.64-13.4-2.5-26.51-4.16-39.37-5.1.43,2.18.83,4.36,1.16,6.56,1.11,7.46,1.33,15.05.66,22.56-.78,8.71-7.05,14.93-16.07,14.06.56.7,1.17,1.36,1.83,1.99,2.16,1.47,3.86,2.5,5.08,3.09-2.34.56-4.66.21-6.96-1.05-7.83-4.27-11.25-15.05-11.77-23.25-.53-8.34.04-16.69,1.1-24.97-11.65-.08-23.11.37-34.43,1.21-.05,1.28-.11,2.57-.14,3.85-.12,5.56,0,11.12.38,16.66.16,2.34.41,4.68.56,7.02.1,1.57,1.06,6.31.25,7.58,3.98-6.28,10.94-8.38,20.89-6.28,12.39,3.77,18.78,12.18,19.16,25.24-.63,7.37-3.46,13.79-8.48,19.27.43-.47,6.92.79,7.92.83,2.92.11,5.85.01,8.76-.32,5.47-.62,10.98-2.1,16.1-4.08,9.1-3.51,16.42-12.02,21.07-20.3,5.04-8.97,7.79-19.03,9.82-29.12.99-4.91,1.82-9.86,2.41-14.83Z"/>
                <path class="cls-9" d="M572.05,548.37c-3.63-1.9-7.76-2.74-11.79-2.06-7.49,1.27-13.85,8.49-13.11,16.05.51,5.19,3.66,9.72,2.83,15.08-.66,4.22-3.1,7.34-7.55,7.64.35-.49.79-.89,1.31-1.2,3.49-3.42,3.94-6.98,1.36-10.68-2.79,1.05-5.55,1.2-8.27.47-5.71-2.12-10.47-5.72-13.73-10.91-2.71-4.32-4.29-9.27-5.21-14.28-.06-.32-.11-.64-.16-.96-8.56,1.77-17.11,3.55-25.67,5.27,1.58,10.62,4.97,20.96,10.13,30.37,2.06,3.76,4.41,7.41,7.39,10.5,4.15,4.31,9.43,7.44,15.03,9.56,16.86,6.41,37.3,3.24,50.6-8.94,2.11-1.93,4.04-4.07,5.52-6.51,1.96-3.23,3.06-6.93,3.62-10.67,1.12-7.52-.07-15.59-4.42-21.82-2.01-2.88-4.76-5.28-7.87-6.91Z"/>
                <path class="cls-24" d="M655.31,567.75c-.1-.08-.21-.15-.32-.23-2.95-2.06-6.65-3.21-10.17-2.54-5.37,1.02-9.15,5.85-14.1,8.18-7.76,3.65-27.86-1.21-25.61-12.84.66.03,1.1.44,1.31,1.2.49.73,1.08,1.29,1.78,1.68.38.38.75.73,1.1,1.05-3.73-10.99-2.41-23.12,3.21-33.21-13.1,1.45-26.03,3.37-38.84,5.57-.19,1.17-.38,2.34-.6,3.51,12.04,4.92,18.68,12.65,19.9,23.2,1.26,10.58-.49,21.43-5.24,32.57-.63,1.57-1.19,2.74-1.68,3.51-.64,1.01,7.92,6.8,8.84,7.34,3.39,1.98,7.34,3.23,11.14,4.25,8.12,2.18,16.71,2.78,24.99,1.2,12.1-2.3,23.46-9.51,29.57-20.21,1.84-3.23,3.22-6.86,3.04-10.57-.27-5.45-4.06-10.49-8.34-13.63Z"/>
              </g>
              <g>
                <path class="cls-14" d="M838.31,540.27c-.27-.81-.64-1.6-1.07-2.33-2.92-5-8.36-8.45-14.13-8.96-3.04-.27-6.11.24-9.04,1.1-9.72,2.84-19.94,10.45-23.55,20.23-.1.24-.19.61-.26,1.1,1.12-1.33,2.34-2.55,3.67-3.67,1.64-1.36,3.14-2.46,4.5-3.3.14-.1.33-.23.58-.37,4.89-2.69,8.83-3.74,11.83-3.14.17,1.15-.35,1.66-1.57,1.52-2.65.52-5.41,1.75-8.27,3.67-1.71,1.19-3.35,2.48-4.92,3.87-1.15,1.08-2.22,2.18-3.19,3.3.59-.35,1.19-.68,1.78-.99l.31-.37c.45-.56.96-1.05,1.52-1.47,4.75-3.56,12.35-3.24,17.94-2.45,6.47.91,13.25,3.37,19.32.94,2.15-.86,4.16-2.47,4.78-4.7.37-1.31.21-2.69-.22-4Z"/>
                <path class="cls-3" d="M41.98,552.54c1.82-.81,3.67-1.51,5.69-1.81,4.89-.72,9.81.03,14.38,1.83.21-.03.42-.05.63-.05-3.18-2.51-6.46-4.77-9.84-6.75-2.34-1.22-4.28-2.37-5.81-3.46,1.19-.59,2.71-.45,4.56.42,5.31,1.78,10.05,4.8,14.24,9.06-3.28-5.69-7.87-10.28-13.77-13.77-6.53-3.86-14.72-6.33-22.19-3.94-6.22,1.99-14.75,7.97-11.79,15.48,1.25,3.16,4.2,5.49,7.47,6.42s6.82.55,10.02-.58c2.22-.79,4.29-1.89,6.41-2.84Z"/>
                <path class="cls-43" d="M339.13,473.29c-4.84-.69-9.92.19-13.53,3.24-2.33,1.97-4.54,5.25-4.08,8.48.52,3.72,4.26,7.21,6.8,9.67,3,2.9,6.23,5.76,8.02,9.53,2.68,5.65.14,9.91-3.25,14.37.96-1.26,3.72-2.35,5.08-3.45,1.81-1.46,3.49-3.11,4.88-4.98,3.05-4.08,4.68-9.14,4.49-14.25,2.94,5.09,2.64,10.29-.84,15.03-1.47,2.02-3.16,3.84-5.08,5.45-.7.56-1.4,1.08-2.09,1.57.94-.35,1.87-.73,2.78-1.15,7.73-3.57,13.73-10.24,14.94-18.9,1.11-7.91-2.31-16.37-8.8-21.01-2.58-1.84-5.88-3.11-9.31-3.6Z"/>
              </g>
            </g>
            <g>
              <path class="cls-27" d="M334.55,610.06c.52.1,1.12.12,1.78.05-1.4-.77-2.58-1.66-3.56-2.67-7.19-6.88-11.69-15.9-13.51-27.07-.49,1.82-1.06,3.54-1.73,5.18v.42c0,11.09,5.6,21.45,17.02,24.09Z"/>
              <path class="cls-60" d="M371.05,607.76c-5.2,1.29-10.05.94-14.56-1.05-.52,1.01-1.13,1.95-1.83,2.83,5.41,2.37,10.87,1.78,16.39-1.78Z"/>
              <path class="cls-55" d="M155.81,581.27c3.74-12.88,2.08-26.87-6.04-38.6-.35-.52-.75-1.06-1.2-1.62,9.08,17.31,8.6,35.29-1.41,53.93-3.07,5.62-7.63,10.47-13.67,14.56,5.17-2.62,9.67-6.32,13.51-11.1,4.07-5.24,7.05-11.08,8.82-17.16Z"/>
              <path class="cls-37" d="M92.77,505.1c1.01,4.83,3.47,8.36,7.41,10.6-7.61-11.14-6.18-19.2,4.29-24.19-2.61.57-5.31,1.7-7.5,3.17-3.39,2.28-5.03,6.42-4.2,10.42Z"/>
              <path class="cls-29" d="M756.65,510.15c.45,2.69.59,5.48.42,8.38.59-.17,1.19-.4,1.78-.68,6-3.87,5.27-6.44-2.2-7.7Z"/>
              <path class="cls-26" d="M614.12,567.91c.38.21.79.38,1.2.52-5.17-9.81-5.88-20.91-2.15-33.3-4.43,7.92-5.22,16.79-2.36,26.6.59,1.29,1.69,3.35,3.3,6.18Z"/>
              <path class="cls-53" d="M249.2,601.05c10.48,8.28,23.53,10.78,36.39,6.49.42-.14,1.2-.44,2.36-.89,2.41-1.4,4.68-2.97,6.81-4.71-1.75,1.43-6.08,1.82-8.28,2.27-2.71.55-5.46.92-8.22,1.04-5.03.21-10.09-.42-14.84-2.11-5.62-2-10.93-5.36-15.15-9.58-2.12-2.12-4.02-4.52-5.34-7.22-.91-1.85-2.6-6.25-1.63-8.32-.98,2.09-2.04,4.1-3.19,6.02,1.58,6.23,4.7,11.54,9.58,15.76.5.43,1.01.85,1.52,1.26Z"/>
              <path class="cls-19" d="M755.81,563.4c6.53-2.02,6.27-4.49-.79-7.38.28,2.48.37,4.94.26,7.38h.52Z"/>
              <path class="cls-31" d="M693.97,602.41c-4.85,1.82-9.27,2.95-13.25,3.4-5.2.56-11.78.16-19.74-1.2-2.02,1.99-4.21,3.81-6.55,5.45,8.59.84,16.95.28,25.08-1.68,5.31-1.36,10.12-3.35,14.45-5.97Z"/>
              <path class="cls-22" d="M794.71,587.39c-20.95,12.81-42.76,15.62-65.45,8.43-2.72-1.01-6.3-2.88-10.73-5.6.34.21.85,2.29,1.18,2.77.67.99,1.54,1.72,2.5,2.43,2.21,1.65,4.8,2.77,7.44,3.52,10.53,3,22.16,3.02,32.97,2.01,12.01-1.12,22.71-5.64,32.1-13.56Z"/>
              <path class="cls-13" d="M519.65,604.88c2.23,1.01,4.34,3.58,6.48,4.93,16.86,10.65,38.69,7.02,49.24-10.53-17.35,12.71-35.92,14.57-55.71,5.6Z"/>
              <path class="cls-56" d="M244.17,552.72c1.4-14.94-1.34-29.85-8.22-44.72-.77-1.64-1.59-3.23-2.46-4.77-1.71-3-3.6-5.81-5.66-8.43-1.54-1.95-3.18-3.77-4.92-5.45l.26.31c1.26,1.68,2.43,3.33,3.51,4.97,5.29,8.02,9.58,16.46,12.05,25.79,2.7,10.2,3.01,21.14,3,31.65-.02,9.88-1.69,21.35-6.31,30.22,4.85-9.32,7.77-19.18,8.74-29.59Z"/>
              <path class="cls-5" d="M199.74,560.21c3.15.23,6.38-.83,8.84-3.05,3.75-3.4,3.93-8.83,3.19-13.5.83,5.23-3,11.01-7.79,12.96-5.55,2.26-12.25-1.72-15.52-6.15,2.04,2.77,2.6,5.67,5.68,7.79,1.7,1.17,3.64,1.81,5.6,1.95Z"/>
            </g>
            <g class="cls-21">
              <path class="cls-16" d="M334.55,610.06c.52.1,1.12.12,1.78.05-1.4-.77-2.58-1.66-3.56-2.67-7.19-6.88-11.69-15.9-13.51-27.07-.49,1.82-1.06,3.54-1.73,5.18v.42c0,11.09,5.6,21.45,17.02,24.09Z"/>
              <path class="cls-16" d="M371.05,607.76c-5.2,1.29-10.05.94-14.56-1.05-.52,1.01-1.13,1.95-1.83,2.83,5.41,2.37,10.87,1.78,16.39-1.78Z"/>
              <path class="cls-16" d="M155.81,581.27c3.74-12.88,2.08-26.87-6.04-38.6-.35-.52-.75-1.06-1.2-1.62,9.08,17.31,8.6,35.29-1.41,53.93-3.07,5.62-7.63,10.47-13.67,14.56,5.17-2.62,9.67-6.32,13.51-11.1,4.07-5.24,7.05-11.08,8.82-17.16Z"/>
              <path class="cls-16" d="M92.77,505.1c1.01,4.83,3.47,8.36,7.41,10.6-7.61-11.14-6.18-19.2,4.29-24.19-2.61.57-5.31,1.7-7.5,3.17-3.39,2.28-5.03,6.42-4.2,10.42Z"/>
              <path class="cls-16" d="M756.65,510.15c.45,2.69.59,5.48.42,8.38.59-.17,1.19-.4,1.78-.68,6-3.87,5.27-6.44-2.2-7.7Z"/>
              <path class="cls-16" d="M614.12,567.91c.38.21.79.38,1.2.52-5.17-9.81-5.88-20.91-2.15-33.3-4.43,7.92-5.22,16.79-2.36,26.6.59,1.29,1.69,3.35,3.3,6.18Z"/>
              <path class="cls-16" d="M249.2,601.05c10.48,8.28,23.53,10.78,36.39,6.49.42-.14,1.2-.44,2.36-.89,2.41-1.4,4.68-2.97,6.81-4.71-1.75,1.43-6.08,1.82-8.28,2.27-2.71.55-5.46.92-8.22,1.04-5.03.21-10.09-.42-14.84-2.11-5.62-2-10.93-5.36-15.15-9.58-2.12-2.12-4.02-4.52-5.34-7.22-.91-1.85-2.6-6.25-1.63-8.32-.98,2.09-2.04,4.1-3.19,6.02,1.58,6.23,4.7,11.54,9.58,15.76.5.43,1.01.85,1.52,1.26Z"/>
              <path class="cls-16" d="M755.81,563.4c6.53-2.02,6.27-4.49-.79-7.38.28,2.48.37,4.94.26,7.38h.52Z"/>
              <path class="cls-16" d="M693.97,602.41c-4.85,1.82-9.27,2.95-13.25,3.4-5.2.56-11.78.16-19.74-1.2-2.02,1.99-4.21,3.81-6.55,5.45,8.59.84,16.95.28,25.08-1.68,5.31-1.36,10.12-3.35,14.45-5.97Z"/>
              <path class="cls-16" d="M794.71,587.39c-20.95,12.81-42.76,15.62-65.45,8.43-2.72-1.01-6.3-2.88-10.73-5.6.34.21.85,2.29,1.18,2.77.67.99,1.54,1.72,2.5,2.43,2.21,1.65,4.8,2.77,7.44,3.52,10.53,3,22.16,3.02,32.97,2.01,12.01-1.12,22.71-5.64,32.1-13.56Z"/>
              <path class="cls-16" d="M519.65,604.88c2.23,1.01,4.34,3.58,6.48,4.93,16.86,10.65,38.69,7.02,49.24-10.53-17.35,12.71-35.92,14.57-55.71,5.6Z"/>
              <path class="cls-16" d="M244.17,552.72c1.4-14.94-1.34-29.85-8.22-44.72-.77-1.64-1.59-3.23-2.46-4.77-1.71-3-3.6-5.81-5.66-8.43-1.54-1.95-3.18-3.77-4.92-5.45l.26.31c1.26,1.68,2.43,3.33,3.51,4.97,5.29,8.02,9.58,16.46,12.05,25.79,2.7,10.2,3.01,21.14,3,31.65-.02,9.88-1.69,21.35-6.31,30.22,4.85-9.32,7.77-19.18,8.74-29.59Z"/>
              <path class="cls-16" d="M199.74,560.21c3.15.23,6.38-.83,8.84-3.05,3.75-3.4,3.93-8.83,3.19-13.5.83,5.23-3,11.01-7.79,12.96-5.55,2.26-12.25-1.72-15.52-6.15,2.04,2.77,2.6,5.67,5.68,7.79,1.7,1.17,3.64,1.81,5.6,1.95Z"/>
            </g>
            <g>
              <g class="cls-20">
                <path class="cls-18" d="M74.94,468.84c-2.56,5.66-3.72,11.87-3.8,17.98-.1,5.99,1.07,11.75,3.08,17.32,2.5,9.14-10.48,13.21-13.64,4.27-1.45-13.46,4.79-30.11,14.37-39.57h0Z"/>
              </g>
              <g class="cls-20">
                <path class="cls-18" d="M161.97,524.68c.36-14.34,6.54-31.18,21.47-36.06,2.42-.87,4.93-1.26,7.46-1.56,3.91-.47,7.45,2.32,7.92,6.23.66,4.78-3.96,8.92-8.63,7.8-4.27-1.04-8.82-.43-12.69,1.89-7.66,4.74-12.49,13.24-15.53,21.69h0Z"/>
              </g>
              <g class="cls-20">
                <path class="cls-18" d="M308.05,563.56c1.39,7.56,1.27,15.77-1.71,23.1-2.68,6.29-11.92,2.69-9.64-3.76.99-2.26,3.18-3.25,4.57-5.37,3.14-4.12,5.3-8.87,6.77-13.98h0Z"/>
              </g>
              <g class="cls-20">
                <path class="cls-18" d="M323.76,552.51c1.47,11.99,3.64,24.49,9.03,35.32,1.54,2.93,3.73,6.23,6.57,7.53,2.04.9,2.96,3.27,2.07,5.31s-3.27,2.96-5.31,2.07c-2.71-1.46-4.72-4.04-6.07-6.29-6.75-12.27-6.77-30.24-6.29-43.94h0Z"/>
              </g>
              <g class="cls-20">
                <path class="cls-18" d="M406.76,521.41c-1.09-8.89-2.7-18.17-6.58-26.23-1.06-2.07-2.58-4.53-4.5-5.48-2.04-.95-2.91-3.37-1.96-5.41,1.18-2.65,4.83-3.11,6.75-1,8.59,7.89,7.22,27.37,6.29,38.11h0Z"/>
              </g>
              <g class="cls-20">
                <path class="cls-18" d="M419.59,545.5c5.89-2.12,13.44-1.2,13.92,6.56.17,2.34-.23,4.36-.71,6.35-.53,2.21-2.76,3.56-4.96,3.03-2.21-.53-3.56-2.76-3.03-4.96.51-1.75,2.27-3.27,2.72-4.84.38-1.02.58-1.82.08-2.8-1.41-2.29-5.27-3.09-8.02-3.33h0Z"/>
              </g>
              <g class="cls-20">
                <path class="cls-18" d="M331.18,493.61c-5.12-3.6-8.71-10.3-2.64-15.16,1.81-1.48,3.7-2.33,5.6-3.07,2.11-.83,4.5.2,5.33,2.32.83,2.11-.2,4.5-2.32,5.33-1.72.59-3.98.02-5.53.56-1.05.27-1.83.57-2.34,1.54-1.06,2.47.51,6.09,1.88,8.48h0Z"/>
              </g>
              <g class="cls-20">
                <path class="cls-18" d="M821.57,533.15c4.83-.48,11.4.02,13.56,5.31.85,2.18.59,4.46.12,6.32-.35,2.09-2.4,3.51-4.48,2.98-1.93-.49-3.11-2.45-2.62-4.39.31-1.3,1.8-2.49,1.88-3.64.12-3.55-5.49-5.64-8.46-6.58h0Z"/>
              </g>
              <g class="cls-20">
                <path class="cls-18" d="M31.03,554.2c-4.23.39-10.08-1.66-10.31-6.59-.03-3.8,1.9-6.34,3.86-9.11-.32,1.51-.56,3.02-.61,4.48-.03,4.01.79,5.42,4.64,3.77.09-.06.62-.26.58-.34,5.18-1.06,6.95,6.41,1.85,7.78h0Z"/>
              </g>
              <g class="cls-20">
                <path class="cls-18" d="M471.11,575.45c9.36-4.04,14.95,1.61,14.8,11.08.04,3.37-.47,6.75-1.08,10-.42,2.19-2.53,3.63-4.72,3.21-2.59-.45-4.05-3.41-2.87-5.75,1.9-3.99,3.97-8.5,3.83-12.88,0-5.11-5.59-6.42-9.96-5.67h0Z"/>
              </g>
              <g class="cls-20">
                <path class="cls-18" d="M551.59,474.35c10.82-.32,21.65,5.74,24.61,16.9,1.44,5.06,1.45,10.61.75,15.59-.36,4.73-4.62,8.27-9.34,7.6-4.5-.62-7.64-4.76-7.02-9.26.15-1.11.55-2.18,1.08-3.09,2.75-4.71,4.76-9.91,3.21-15.25-1.73-5.8-7.5-10.25-13.28-12.49h0Z"/>
              </g>
              <g class="cls-20">
                <path class="cls-18" d="M773.93,486.75c7.23,2.66,13.11,9.12,14.97,16.71.54,1.83.81,4.13.97,6.03.02.78-.01,2.86,0,3.66-.11,1.61-.34,3.21-.52,4.84-.95,5.83-9.44,3.96-7.85-1.73.67-1.93,1.52-4.05,1.9-6.1,0,0,.23-.98.23-.98.09-.65.26-2.28.34-2.95.03-.95-.02-2.02-.02-2.98-.53-6.64-4.37-12.8-10.02-16.49h0Z"/>
              </g>
              <g class="cls-20">
                <path class="cls-18" d="M639.09,571.73c16.05-7.06,21.82,3.7,17.84,18.36-2.13,7.88-13.59,5.21-12.01-2.8.2-.87.6-1.68,1.11-2.35,1.95-2.77,4.5-5.84,4.11-9.19-1.43-3.6-7.51-3.97-11.06-4.02h0Z"/>
              </g>
              <g class="cls-20">
                <path class="cls-18" d="M697.84,486.12c8.93-2.04,19.95.44,24.55,9.39,1.74,3.31,2.41,6.99,2.58,10.57.18,3.38-2.42,6.26-5.8,6.44-3.38.18-6.26-2.42-6.44-5.8-.04-.77.07-1.54.3-2.24,1.4-4.06,1.47-8.07-1.52-11.56-3.25-3.8-8.57-6.09-13.67-6.81h0Z"/>
              </g>
            </g>
          </g>
          <g id="Bright">
            <g class="cls-20">
              <path class="cls-18" d="M103.12,254.53c10,47.89,28.02,97.63,64.7,131.22,8.54,7.57,18.37,14.41,29.12,18.16,3.37,1.16,6.79,1.93,9.61,2.04,5.53.23,9.82,4.9,9.59,10.43-.2,5.97-5.78,10.49-11.66,9.47-14.8-2.55-26.74-10.58-37.65-20.03-42.05-38.52-57.78-96.58-63.71-151.29h0Z"/>
            </g>
            <polygon class="cls-17" points="291.05 452.69 291.56 507.02 292.46 452.69 326.13 485.75 293.34 451.82 347.67 451.35 293.34 450.41 326.39 416.78 292.46 449.57 291.99 395.23 291.05 449.54 257.43 416.51 290.22 450.41 235.88 450.91 290.18 451.82 257.12 485.48 291.05 452.69 291.05 452.69"/>
            <polygon class="cls-17" points="524.19 138.93 561.76 102.61 562.28 162.79 563.33 102.61 600.57 139.22 564.29 101.65 624.43 101.13 564.29 100.09 600.86 62.84 563.33 99.16 562.77 38.98 561.76 99.16 524.49 62.55 560.8 100.09 500.62 100.64 560.8 101.65 524.19 138.93"/>
            <g class="cls-20">
              <path class="cls-18" d="M214.13,108.25c12.99,9.72,27.66,21.94,27.42,40.03.03,2.43-.36,5.17-.78,7.55-.14.67-.54,2.35-.69,3.04-1.08,5.71-6.7,9.43-12.38,8.11-7.04-1.46-10.3-10.27-6.01-15.98,4.61-5.95,5.79-11.81,3.74-19.36-2.19-8.17-6.75-16.08-11.3-23.39h0Z"/>
            </g>
            <g class="cls-20">
              <path class="cls-18" d="M215.44,234.1c31.28-10.75,79.25-20.57,104.01,8.11,9.38,11.38,11.32,26.71,7.57,40.67-3.59,12.82-22.08,8.44-19.52-4.64.13-.55.31-1.08.52-1.59,1.32-3.18,2.26-6.41,2.65-9.78,1.23-10.57-4.33-20.24-13.38-26.06-23.03-14.55-55.96-11.4-81.85-6.71h0Z"/>
            </g>
            <g class="cls-20">
              <path class="cls-18" d="M361.74,213.21c-4.5-21.3-9.56-42.69-16.69-63.19-4.51-12.54-9.29-24.53-17.08-34.72-2.56-3.15-5.7-6.33-9.21-7.68-1.46-.56-2.74-.71-3.99-.6-5.55.49-10.45-3.62-10.93-9.17-.62-6.26,4.92-11.65,11.15-10.91,22.03,2.1,31.07,25.75,36.05,44.05,6.96,26.92,9.07,54.64,10.71,82.22h0Z"/>
            </g>
            <g class="cls-20">
              <path class="cls-18" d="M446.1,242.43c-2.61-7.78-4.83-15.79-9.2-22.57-1.36-2.07-2.89-3.86-4.55-5.24-2.84-2.37-3.22-6.59-.85-9.43,2.37-2.84,6.59-3.22,9.43-.85.91.74,1.51,1.68,1.98,2.7,1.56,3.11,2.52,6.29,3.1,9.36,1.63,8.72.65,17.47.08,26.03h0Z"/>
            </g>
            <g class="cls-20">
              <path class="cls-18" d="M399.87,352.37c-2.68,23.61-6.03,57.94-19.47,77.85-2.6,3.78-6.45,7.78-11.51,10.37-4.17,2.29-9.4.76-11.69-3.4-2.74-4.82.04-11.18,5.41-12.48,4.95-1.38,9.39-6.9,12.52-11.53,11.71-18.28,18.29-40.05,24.74-60.79h0Z"/>
            </g>
            <g class="cls-20">
              <path class="cls-18" d="M518.2,345.74c0,18-.13,36.08-3.69,53.89-3.36,16.4-11.37,32.13-31.06,28.64-5.79-.62-9.97-5.81-9.36-11.6.77-8.17,10.67-12.25,16.99-7.17,4.36.42,9.74-10.01,11.56-13.8,7.27-15.8,11.48-33.02,15.56-49.97h0Z"/>
            </g>
            <g class="cls-20">
              <path class="cls-18" d="M732.18,272.62c-.21-25.81-.47-58.82-13.74-81.17-4.09-6.6-9.77-11.45-17.05-13.3-5.36-1.45-8.52-6.98-7.07-12.33,1.45-5.36,6.98-8.52,12.33-7.07,41.62,17.16,31.54,78.51,25.53,113.87h0Z"/>
            </g>
            <g class="cls-20">
              <path class="cls-18" d="M578.06,151.21c2.49-6.75,4.7-14.3,3.63-21.35-.95-6.67-4.98-11.68-10.23-15.58-2.9-2.19-3.48-6.31-1.3-9.21,2.19-2.9,6.31-3.48,9.21-1.3.56.42,1.03.91,1.41,1.45,2.59,3.5,4.86,7.41,6.24,11.68,4.3,12.45-1.51,24.68-8.97,34.3h0Z"/>
            </g>
            <g class="cls-20">
              <path class="cls-18" d="M666.6,61.78c2.98-11.94,7.14-28.06,20.19-33.2,2.36-.96,5-1.23,7.59-1.26,3.65-.06,6.65,2.85,6.72,6.5.06,3.65-2.85,6.65-6.5,6.72-1.81.1-3.24-.99-5.06-.92-1.14-.06-2.35.26-3.45.65-8.7,3.93-14.49,13.5-19.49,21.51h0Z"/>
            </g>
            <g class="cls-20">
              <path class="cls-18" d="M721.53,99.11c8.97-.04,17.91.96,26.24,5.48,3.65,1.63,5.27,6.04,3.32,9.58-1.8,3.31-5.95,4.53-9.26,2.73-1.11-.61-2-1.5-2.61-2.52-1.78-3-4.34-5.84-7.41-8.39-3.07-2.55-6.6-4.82-10.28-6.89h0Z"/>
            </g>
            <g class="cls-20">
              <path class="cls-18" d="M157,31.56c-5.32,1.96-10.87,4.37-15.02,8.09-3.81,3.4-5.83,7.73-6.32,12.64-.4,3.66-3.68,6.3-7.34,5.9-3.66-.4-6.3-3.68-5.9-7.34.1-1.03.46-1.94.95-2.8,1.68-3.18,3.87-6.19,6.53-8.62,7.39-6.91,17.59-8.08,27.09-7.88h0Z"/>
            </g>
            <g class="cls-20">
              <path class="cls-18" d="M736.17,354.66c11.73-2.11,21.2-1.21,22.36,12.94.25,3.52-.03,6.8-.46,10.02-.47,3.64-3.81,6.21-7.44,5.73-3.64-.47-6.21-3.81-5.73-7.44.11-.87.4-1.7.81-2.42,1.97-3.7,4.66-8.48,3.62-12.36-1.89-4.42-8.83-5.22-13.15-6.46h0Z"/>
            </g>
            <g class="cls-20">
              <path class="cls-18" d="M326.4,394.23c1.14,15.03,2.76,35.61-9.37,47.35,0,0-1.08,1.03-1.08,1.03-3.34,3.19-8.63,3.06-11.81-.28-3.19-3.34-3.06-8.63.28-11.81.95-.91,2.1-1.56,3.27-1.93,1.89-.59,4.21-2.29,6.15-4.8,6.44-8.43,9.62-19.15,12.56-29.57h0Z"/>
            </g>
          </g>
        </g>
      </g>
    </g>
  </g>
</svg>