<?xml version="1.0" encoding="UTF-8"?>
<svg xmlns="http://www.w3.org/2000/svg" xmlns:xlink="http://www.w3.org/1999/xlink" viewBox="0 0 912.29 435.37">
  <defs>
    <style>
      .cls-1 {
        fill: url(#linear-gradient-2);
      }

      .cls-2 {
        fill: #231f20;
      }

      .cls-3 {
        fill: #d1d3d4;
      }

      .cls-3, .cls-4 {
        mix-blend-mode: multiply;
      }

      .cls-5 {
        fill: #fff;
      }

      .cls-6 {
        fill: url(#New_Gradient_Swatch_4-2);
      }

      .cls-7 {
        isolation: isolate;
      }

      .cls-8 {
        fill: url(#New_Gradient_Swatch_14);
      }

      .cls-4 {
        fill: #e1e1e1;
      }

      .cls-9 {
        fill: url(#New_Gradient_Swatch_14-3);
      }

      .cls-10 {
        mix-blend-mode: screen;
        opacity: .3;
      }

      .cls-11 {
        fill: url(#linear-gradient);
      }

      .cls-12 {
        fill: url(#New_Gradient_Swatch_4);
      }

      .cls-13 {
        fill: url(#New_Gradient_Swatch_14-2);
      }

      .cls-14 {
        fill: url(#New_Gradient_Swatch_17);
      }
    </style>
    <linearGradient id="New_Gradient_Swatch_17" data-name="New Gradient Swatch 17" x1="582.91" y1="240.38" x2="582.91" y2="16.22" gradientUnits="userSpaceOnUse">
      <stop offset="0" stop-color="#eee"/>
      <stop offset="1" stop-color="#d8e3e3"/>
    </linearGradient>
    <linearGradient id="New_Gradient_Swatch_4" data-name="New Gradient Swatch 4" x1="148.02" y1="-365.32" x2="259.25" y2="-425.64" gradientTransform="translate(-203.24 362.38) rotate(40)" gradientUnits="userSpaceOnUse">
      <stop offset="0" stop-color="#e63862"/>
      <stop offset="1" stop-color="#faccda"/>
    </linearGradient>
    <linearGradient id="New_Gradient_Swatch_14" data-name="New Gradient Swatch 14" x1="201.36" y1="-225.44" x2="305.58" y2="-225.44" gradientTransform="translate(-203.24 362.38) rotate(40)" gradientUnits="userSpaceOnUse">
      <stop offset="0" stop-color="#540000"/>
      <stop offset="1" stop-color="#ed1c24"/>
    </linearGradient>
    <linearGradient id="New_Gradient_Swatch_14-2" data-name="New Gradient Swatch 14" x1="157.95" y1="-340.63" x2="284.62" y2="-340.63" gradientTransform="translate(-203.24 362.38) rotate(40)" xlink:href="#New_Gradient_Swatch_14"/>
    <linearGradient id="New_Gradient_Swatch_14-3" data-name="New Gradient Swatch 14" x1="157.95" y1="-373.14" x2="284.62" y2="-373.14" gradientTransform="translate(-203.24 362.38) rotate(40)" xlink:href="#New_Gradient_Swatch_14"/>
    <linearGradient id="New_Gradient_Swatch_4-2" data-name="New Gradient Swatch 4" x1="154.38" y1="-504.96" x2="178.67" y2="-530.03" xlink:href="#New_Gradient_Swatch_4"/>
    <linearGradient id="linear-gradient" x1="529.63" y1="283.29" x2="733.34" y2="-276.41" gradientUnits="userSpaceOnUse">
      <stop offset="0" stop-color="#e1eaf7"/>
      <stop offset=".26" stop-color="#fff"/>
      <stop offset=".63" stop-color="#d4e3f5"/>
      <stop offset="1" stop-color="#eeeff8"/>
    </linearGradient>
    <linearGradient id="linear-gradient-2" x1="245.87" y1="-262.89" x2="214.8" y2="-463.9" gradientTransform="translate(-203.24 362.38) rotate(40)" gradientUnits="userSpaceOnUse">
      <stop offset=".16" stop-color="#7670b3"/>
      <stop offset=".58" stop-color="#8ed8f8"/>
      <stop offset=".92" stop-color="#afbde1"/>
    </linearGradient>
  </defs>
  <g class="cls-7">
    <g id="Layer_2" data-name="Layer 2">
      <g id="Layer_1-2" data-name="Layer 1">
        <g>
          <path class="cls-2" d="M912.23,133.99c-1.22-35.23-17.99-87.62-70.25-93.64-.07-.07-.13-.16-.18-.25-.16.05-.33.09-.49.13-7.63-19.59-26.57-32.96-48.32-32.96s-38.76,12.02-47.06,30c-11.92-7.66-25.71-11.77-39.93-11.77-21.84,0-42.29,9.59-56.51,26.11-15.37-13.49-35.46-21.06-56.57-21.06-22.15,0-43.03,8.27-58.64,22.97-14.62-12.96-33.54-20.23-53.2-20.23-13.17,0-25.96,3.18-37.46,9.26-14.18-18.11-35.65-28.69-58.98-28.69-41.42,0-75.11,33.69-75.11,75.11,0,2.3.13,4.69.4,7.21-6.06,3.67-12.05,6.87-17.7,9.67-3.96,1.39-7.97,2.5-11.71,3.34-1.06-1.52-2.26-3.1-3.6-4.31,1.26-6.21,1.73-12.73,1.43-19.83.05-.05.1-.09.15-.14.58-.56,1.17-1.13,1.69-1.76,1.36-1.66,1.97-3.56,1.76-5.48-.09-.79-.32-1.59-.63-2.28.06-.12.13-.25.18-.37.57-1.17.91-2.32,1.04-3.4.25-2.32-.69-4.48-2.82-6.42l-.69-.61c-.88-.77-1.6-1.4-2.07-2.31-.13-1.22-.28-2.44-.44-3.66,0-.34-.03-.74-.15-1.13-.77-5.55-1.77-9.73-3.23-13.53-1.24-3.21-2.97-6.46-5.45-10.13-.83-1.91-1.73-3.61-2.74-5.19-7.85-12.31-20.78-21.69-35.47-25.74-21.01-5.78-52.07-2.49-67.83,7.23-18.4,11.34-29.18,32.25-31.18,60.48-1.22,17.22-.52,34.78.15,51.77.36,8.93.72,18.16.8,27.18.21,23.76-.23,51.77-5.08,79.3-4.52,25.65-13.17,50.62-25.71,74.21-.69,1.31-10.55,18.01-17.75,30.19-.64,1.08-1.26,2.13-1.86,3.15.03.03.07.05.11.08.69.7,1.36,1.41,2.02,2.14.68.74,1.32,1.5,1.98,2.26.25.26.49.53.75.79.54.55,1.11,1.05,1.66,1.59.18.17.35.35.52.52,2.97-4.86,6.78-11.15,11.18-18.4,5.02-8.3,9.77-16.13,10.32-16.94,21.44-31.59,32.73-75.2,34.53-133.32.67-21.5.04-43.32-.57-64.42l-.37-13.34c-.56-21.28-1.25-47.77,13.76-66,7.76-9.42,20.21-16.08,34.16-18.26,11.91-1.86,29.02-1.33,38.13,1.15,11.37,3.12,20.73,10.79,28.6,23.46,2.81,4.53,5.21,9.43,7.17,14.64-2.5-1.46-5.33-2.44-8.41-2.88-4.71-.67-9.53.33-13.74,2.73.04-.42.07-.83.11-1.24.11-1.29.22-2.55.45-4.18.68-4.77,1.39-9.71,0-14.79-.37-1.37-1.71-2.23-3.07-2.05l-2.51.61-.03,2.22c-.04,3.4-.4,6.81-.89,10.11-.4-.94-.81-1.86-1.2-2.74-2.87-6.42-7.36-12-12.99-16.14l-2.13-1.41-3.04,3.9,1.76,1.64c3.37,3.14,5.98,6.87,8.16,11.74-4.15-3.54-9.07-6.19-14.28-7.64-17.82-4.89-38.02,3.3-49.16,19.94-9.21,13.77-10.97,36.55,2.03,50.83,2.52,2.76,5.44,5.03,8.7,6.79-.3.03-.6.08-.9.13l-2,.52-.43,3.87,1.64.84c3.57,1.83,8.09,2.34,12.29,2.24-.18.22-.34.46-.46.73-.6,1.31-.22,2.82.92,3.68,9.74,7.3,22.9,1.28,31.19-6.07,5.14-4.58,9.88-9.85,14.09-15.69l1.45-1.97c1.64-2.2,3.43-4.6,4.82-7.14,1.18,1.42,2.48,2.78,3.76,3.93,3.76,3.38,9.13,6.69,14.75,8.47-4.17,2.6-6.71,6.7-8.49,10.41-1.36.24-2.65.61-3.9.98-1.46.42-2.84.83-4.19.98-3.62.39-6.35.05-8.98-1.12l-2.25-.82-2.19,4.02,1.71,1.37c.37.3.77.57,1.17.82.87,1.31,2.13,2.37,3.7,3.14.29.15.59.29.86.39,1.61.65,3.52,1.06,5.67,1.23,1.17.1,2.63.16,4.18.09-.42,1.98-.64,4.19-.31,6.55.22,1.71,1.6,2.82,3.41,2.75,1.71-.15,2.96-1.56,2.9-3.28-.22-6.14,5.24-15.05,10.09-18.61,2.19-1.61,4.42-2.16,6.65-1.63.64.15,1.26.41,1.88.73-.44.04-.88.09-1.26.12-3.8.3-7.01,2.98-7.97,6.68-.47,1.82-4.29,18.01,7.32,26.33,2.42,1.73,5.53,2.15,8.31,1.12,1.34-.5,2.64-.92,3.89-1.3-2.05,5.15-4.26,8.9-6.76,11.24-2.78,2.62-6.75,3.77-9.86,3.22l-.7-.19c-.94-.21-1.83-.54-2.66-1-.39-.21-.76-.45-1.11-.71-.5-1.26-1.37-2.37-2.58-3.27-1.35-2.97-1.32-6.78-1.17-9.43.09-1.47-.86-2.81-2.27-3.2-1.41-.38-2.85.26-3.52,1.56-1.42,2.74-1.98,5.63-1.67,8.53-5.08.08-10.37,2.07-15.69,6.32-3.83,3.06-12.7,11.04-12.55,19,.06,3.26,1.65,6.14,4.6,8.32,1.02.76,2.4.78,3.43.05l1.63-1.46-.52-1.76c-1.9-6.36.93-11.13,9.77-16.47l.47-.28c3.1-1.88,6.27-3.85,9.57-3.31.76.12,1.5.46,2.35.85,1.32.61,2.82,1.3,4.79,1.31,1.1.79,2.28,1.49,3.52,2.07,2.52,18.12-1.22,37.52-4.3,50.66-4.16,17.82-9.63,35.6-16.25,52.87-.57,1.48-1.14,2.96-1.72,4.43,1.35-4.81,2.12-9.68,2.26-14.48.19-6.57-.53-15.23-5.11-19.23-2.06-1.8-4.7-2.49-7.69-1.99-5.44.91-8.44,5.56-10.84,9.29l-2.32,3.59c-1.03,1.6-2.05,3.2-3.11,4.77l-.32.49c-.59.89-1.19,1.8-1.75,2.43l-2.02,1.87c-1.24.87-1.89.91-2.02.88-.16-.06-.6-.52-1.02-1.84,5.21-7.11,7.75-18.05,7.9-25.54.16-7.97-1.98-15.48-4.05-22.75-.61-2.13-1.22-4.27-1.77-6.41-3.13-12.21-1.83-22.97,3.95-32.89,2.91-4.98,6.91-9.88,12.24-14.97,1.95-1.86,4.06-3.55,6.29-5.34,3.2-2.57,6.51-5.23,9.29-8.39l1.43-1.87-2.21-2.67-.27-1.4-2.2.05c-6.37.15-11.52,3.74-16.32,7.09-6.63,4.62-11.62,8.76-15.7,13.03-9.04,9.44-14.08,20.69-14.58,32.52-.37,8.71,1.21,17.11,2.73,25.24.75,4.02,1.53,8.17,2.05,12.27.93,7.28.77,13.01-.49,18.03-1.04,4.12-2.5,7.26-4.22,9.08-1.3,1.38-3.55,2.65-5.55,1.73-.43-.2-1.11-.88-1.69-1.49.57-1.9,1.23-3.79,1.88-5.68,1.67-4.81,3.41-9.79,3.79-15.09.73-10.26-2.19-16.35-8.69-18.08-8.25-2.17-14.77,4.32-19.77,9.3-6.99,6.97-12.52,14.84-16.44,23.39-9.13,19.94-12.39,36.51-9.97,50.64,1.13,6.61,3.34,15.97,9.38,21.01,5.01,4.17,12.22,4.59,19.78,1.14,4.1-1.87,7.12-4.15,9.12-6.9.14,2.44,1.16,4.87,3.53,7.11,4.89,4.64,14.33,3.99,28.06-1.94,8.89-3.82,21.09-10.09,24.41-20.36.2-.62.24-1.27.13-1.9,1.73-2.31,3.33-4.68,4.74-7.08.39-.65.77-1.32,1.13-1.98-5.3,12.28-10.94,23.92-16.87,34.77-4.66,8.55-9.85,17.19-15.42,25.66-1.08,1.64-2.2,3.3-3.32,4.97-3.01,4.48-6.09,9.06-8.79,13.77,2.13-1.01,4.29-1.99,6.47-2.91,4.08-1.72,8.25-3.24,12.5-4.51,1.45-2.04,2.77-3.99,3.93-5.75,5.46-8.31,10.69-17.01,15.52-25.87,9.5-17.41,18.25-36.64,25.99-57.15,8.14-21.57,12.81-38.5,15.14-54.91,2.3-16.14,4.25-33.13,1.16-48.78,1.88.06,3.7-.18,5.4-.71,8.5-2.64,12.69-10.78,15.95-18.2.76-1.72,1.62-4.02,2.24-6.56,10.53-.9,16.86,2.51,19.92,4.92-.27,1.97-.41,3.93-.41,5.85,0,24.21,19.7,43.91,43.91,43.91,2.93,0,5.84-.29,8.69-.88,3.48,30.01,29.05,53.38,59.99,53.38,20.81,0,39.97-10.86,50.9-28.01,10.21,7.53,23.05,11.69,36.73,11.69,20.04,0,37.86-8.98,48.26-23.24l3.33-2.62c15.9,8.36,35.26,12.9,55.76,12.9,11.97,0,23.62-1.57,34.71-4.67,12.03,8.33,26.02,12.71,40.76,12.71s29.29-4.64,41.37-13.18l.12.68.52-.56c9,6.84,19.33,11.52,30.29,13.77,80.48,43.37,150.97-27.59,148.64-94.8ZM221.24,63.79c.12.3.23.59.33.89l-.92-.07c.21-.26.41-.53.58-.81ZM192.43,116.88c2.6-.3,5.18-.79,7.73-1.47-2.46,1-5,1.5-7.73,1.47ZM227.56,82.89c-4.26,7.98-11.97,14.53-21.15,17.96-9.02,3.37-18.36,3.28-25.66-.24-7.6-3.68-13.6-12.65-14.6-21.81-.94-8.59,1.66-17.09,7.34-23.92,6.11-7.36,15.09-12,24.64-12.73.87-.07,1.74-.1,2.6-.1,3.41,0,6.7.52,9.76,1.53l-18.28,27.31,37.87,3.75c-.27,2.74-1.02,5.46-2.51,8.26ZM240.71,71.4c.09-.83.25-1.66.4-2.45.31-1.56.8-2.97,1.28-3.93,1.79-2.56,4.27-4.65,6.65-5.58,1.26-.49,2.87-.74,4.61-.74s3.53.24,5.26.71c1.78.49,3.51,1.48,4.99,2.81-.4.12-.83.29-1.27.56-.44.26-.93.66-1.35,1.18l-.89.17-.19,4.11,1.97.56s.07.02.1.03c-1.77-.05-3.65.02-5.62.14-3.54.22-7.32.71-11.58,1.48-1.26.23-2.76.51-4.37.93ZM269.62,101.22c-.53-.13-1.07-.24-1.61-.32l.1-.62-1.47-1.05c-1.68-1.21-3.46-2.19-5.26-3.07.37-.13.73-.26,1.08-.41,2.02-.85,3.66-2.07,5.23-3.24l.42-.31c1.04-.77,1.93-1.34,2.76-1.62-.2,3.62-.62,7.18-1.26,10.66ZM269.24,76.89c-.83-.06-1.61-.09-2.31-.11-.62-.08-1.24-.08-1.9-.09-.96.03-1.94.28-2.91.76-1.51.73-2.48,1.98-2.68,3.56-.03.44.05.88.22,1.29l.4,1.75,1.99-.1.75.38c.26.12.52.25.79.39-.72.59-1.72,1.2-2.26,1.52-2.55,1.54-5.8,2.13-8.93,1.64-2.89-.47-5.53-1.84-8.31-4.31-1.33-1.19-2.35-2.54-2.71-3.62-.15-.46-.25-.92-.27-1.38.49-.24,1.12-.47,1.9-.69,2.18-.61,4.16-1.04,6.04-1.33,3.69-.55,7.51-.78,11.5-.67,4.19.1,7.79.47,10.98,1.14-.77-.01-1.53-.07-2.3-.12ZM217.39,268.8c.25-1.68,1.25-3.22,1.76-3.27.61.18.77.45.85.72.22.74-.11,1.93-.78,2.75-.85,1.04-1.86,1.6-3.12,1.82.68-.45,1.17-1.18,1.3-2.02ZM195.31,174.43c3.43-7.14,9.19-14.09,16.16-19.9-3.33,3.61-6.19,7.25-8.39,10.5-6.46,9.53-9.52,19.86-8.86,29.87.41,6.17,1.95,12.13,3.43,17.9,1.03,3.99,2.09,8.12,2.73,12.18.99,6.22.48,12.33-1.51,18.16-.24.71-.53,1.42-.85,2.14,1.85-9.56.32-19.6-1.47-27.93-.42-1.93-.86-3.86-1.3-5.78-2.96-12.86-5.76-25.01.06-37.13ZM167.8,225.85c1.76-1.08,3.47-1.47,4.55-1.02.85.35,1.47,1.29,1.83,2.78.39,1.64.41,3.56.43,5.61.01,1.37-.11,2.73-.34,4.1-.2-.87-.52-1.68-.96-2.41-.91-1.53-3.13-3.97-7.99-3.97-.38,0-.78.01-1.2.04-1.17.09-2.26.38-3.26.83,2.09-2.24,4.43-4.44,6.93-5.97ZM163.83,243.27c-.34.58-.84,1.24-1.32,1.72-.1-.04-.21-.06-.32-.08.27-.48.56-.91.86-1.29l.44-.46.33.11ZM160.45,281.32c-1.69,5.89-1.02,11.66-.36,17.23.22,1.88.44,3.76.56,5.63.11,1.6.43,6.49-8.26,9.54-6.48,2.27-9.25-.65-10.75-3.05-.42-.68-.82-1.4-1.19-2.16.13.1.26.2.4.3,2.24,1.6,4.98,2.07,7.71,1.37,3.42-.89,6.65-3.62,8.22-6.94,3.19-6.75,1.61-15.41-3.51-20.6.85-.95,1.85-1.93,3.06-3.02,1.27-1.14,1.42-3.07.36-4.39-.68-.84-1.69-1.25-2.68-1.14l1.46-.89-1.16-4-2,.02c-7.7.07-13.06,6.85-15.19,13.91.99-7.66,3.73-15.33,6.49-23.09,2.57-7.2,5.77-13.51,9.74-19.12-1.63,4.04-2.35,8.44-2.43,11.39-.21,7.87,3.06,19.68,12.97,19.96l2.58-.22c-2.87,2.5-4.98,5.67-6.01,9.26ZM145.43,301.36c1.2.48,2.4.53,3.46.24-.59.99-1.39,1.76-2.42,1.82-1.82.11-2.67-.8-3.2-3.46.64.65,1.4,1.09,2.15,1.39ZM143.8,285.36c1.16-3.54,3.24-6.42,6.34-8.8-2.63,2.4-4.79,5.41-6.34,8.8ZM169.76,305.03c0-1.03-.05-2.1-.19-3.22l-.15-1.28c-.55-4.5-1.13-9.14-.6-13.56.46-3.82,1.51-6.03,3.75-7.89,1.16-.96,2.55-1.71,4.03-2.51l1.01-.55c2.11.12,4.25-.15,6.4-.72.11,1.6.33,3.15.55,4.76.12.9.25,1.82.36,2.77.48,4.14-3.56,8.43-7.12,12.21-.99,1.05-1.94,2.07-2.78,3.05-1.5,1.76-3.58,4.19-5.26,6.95ZM186.47,312.98c-8.3,2.81-10.38,1.77-10.83,1.39-.48-.42-.29-1.73-.19-2.27.54-2.83,3.34-5.9,5.8-8.61.75-.82,1.46-1.6,2.08-2.35.87-1.04,1.82-2.08,2.78-3.12.16-.18.33-.36.49-.54-.53,2.84-.43,5.9.63,8.38,1.06,2.48,2.98,4.12,5.47,4.71-1.99.87-4.08,1.67-6.25,2.41ZM199.09,301.23c-.53.53-1.12.93-1.8,1.23l-3.15-1.86.02-1.12c-.01-1.18.37-1.53.49-1.64.29-.26,1.2-.82,3.81-.69.57.35,1.24.51,1.97.45.73-.07,1.4-.39,1.9-.89-.77,1.68-1.74,3.24-3.24,4.53ZM207.15,272.02c-.22.43-.33.89-.33,1.35-1.48-1.4-3.28-2.49-5.37-3.23-1.55-.55-3.22.24-3.82,1.77-.57,1.5.14,3.17,1.63,3.79,8.68,3.62,5.4,14.86,4.19,18.22-.02.06-.04.12-.06.18.25-2.71-.92-4.91-3.25-6-.97-.45-2.09-.67-3.24-.67s-2.42.23-3.57.65c.44-1.34.57-2.82.19-4.69-.21-1.07-.44-2.09-.66-3.08-.82-3.63-1.47-6.49-.95-10.23.21-1.55-.52-3.08-1.87-3.91-1.33-.8-2.94-.75-4.22.14-1.49,1.07-2.94,1.82-4.48,2.32-.08-.14-.18-.27-.28-.4-.93-1.15-2.35-1.67-3.84-1.37-4.15.85-7.83,2.68-10.74,5.19l.32-2.23c.22-1.5-.7-2.93-2.12-3.32-1.11-.32-2.08-.83-2.91-1.5.92.13,1.91.14,2.93.02,1.23-.14,2.24-1.05,2.5-2.25l.19-2.18-1.53-.95c-.8-.5-1.59-.88-2.35-1.24-1.7-.81-2.41-1.19-2.96-2.47-.34-.82-.52-1.86-.52-3.04.57.51,1.29.93,2.12,1.2,1.86.62,5.46.81,9.11-4.55-.29,1.31-.53,2.64-.68,3.99-.67.75-1.06,1.73-1.05,2.77,0,2.45,1,4.69,2.89,6.48,2.3,2.19,5.84,3.46,9.02,3.28,4.02-.2,7.62-2.48,10.73-6.79,0,.04-.01.09-.02.14-.2,1.28.35,2.56,1.32,3.36,1.18,2.74,3.9,4.78,6.98,5.12,1.88.2,3.61-.03,5.19-.62.01.55.17,1.1.49,1.59.82,1.25,2.39,1.72,3.71,1.17.57-.24,1.14-.52,1.7-.84.09.21.2.42.32.63l.68.94c-.65-.09-1.35-.2-2.1-.35-1.34-.23-2.66.38-3.28,1.6ZM229.25,261.37c-.44,5.34-1.73,10.73-3.84,16-2.92,7.29-6.91,14.02-11.27,19.01-1.84,1.12-3.57,2.4-5.24,3.71,1.05-2.4,1.82-5,2.31-7.58,1.17-6.16.57-11.49-1.6-15.5,3.72,2.08,8.39,1.26,11.75-.72,4.53-2.68,6.73-7.24,5.61-11.62-.79-3.14-2.92-5.26-5.82-5.81-.2-.04-.41-.06-.61-.09.13-.39.25-.78.34-1.17.36-1.53-.4-3.08-1.86-3.76-.23-.1-.46-.18-.7-.23,1.22-1.97,2.38-3.8,3.45-5.06,2.93-3.47,3.93-3.41,5.14-2.87,1.36.59,1.59,1.48,2,5.01l.22,1.81c.35,2.61.39,5.51.12,8.86ZM843.18,215.71c-4.42,1.81-9,3.21-13.69,4.12-1.12.22-2.24.4-3.37.57-2.1.27-4.21.44-6.32.52-1.36-.16-2.73-.31-4.09-.47,4.97-2.83,9.64-6.24,13.89-10.17,4.66,2.08,9.5,3.76,14.45,5.03-.29.13-.58.27-.88.4ZM893.98,137.91c-.11,1.47-.27,2.95-.45,4.41-.85,5.94-2.29,11.8-4.3,17.45-.5,1.39-1.03,2.77-1.6,4.14-2.32,5.42-5.15,10.61-8.48,15.48-.82,1.2-1.67,2.37-2.55,3.53-3.34,4.27-7.07,8.24-11.16,11.8-1.19,1.03-2.41,2.03-3.65,3-.05.05-.09.1-.14.15-.04.03-.08.06-.12.1-.26.33-.52.67-.78,1-.21.32-.35.67-.45,1.02-9.89-.87-19.55-3.75-28.25-8.46-3.64-1.97-8.15-1.19-10.91,1.88-10.88,12.08-26.38,19-42.51,19-12.71,0-24.89-4.21-34.88-11.94,3.34-7.49,4.43-16.01,3.15-25.5l-1.73-12.93c.63.21,1.26.36,1.89.46.91.14,1.94.15,3.16.03,1.13-.1,2.27-.34,3.36-.71,1.1-.37,2.12-.88,3.06-1.52.75-.52,1.38-1.13,1.89-1.83.16.32.35.63.58.94.61.81,1.51,1.45,2.6,1.86.86.32,1.8.54,2.8.65.92.1,1.82.15,2.74.12.95-.02,1.77-.14,2.37-.25,1.5-.26,2.81-.66,3.99-1.21,1.47-.69,2.72-1.66,3.71-2.9.93-1.16,1.57-2.51,1.92-4,.29-1.26.44-2.54.45-3.83,0-1.86-.1-3.54-.31-5.14-.2-1.51-.38-3.07-.47-4.61-.06-1-.05-2.03,0-3.05.03-.74.21-1.44.69-2.44.02-.05.09-.23.34-.55.27-.35.58-.69.88-.98.08-.08.17-.15.26-.23.05.27.1.52.12.74.17,1.91.14,3.88-.09,5.88l-.76,6.51c-.12,1.12-.27,2.25-.44,3.36-.21,1.41-.26,2.78-.14,4.08.07.75.23,1.52.46,2.3.32,1.07.9,1.98,1.81,2.78.6.48,1.31.83,1.97.99,1.07.32,2.32.51,3.7.54,1.34.02,2.72-.04,4.06-.25,1.37-.21,2.72-.58,4.01-1.1,1.41-.57,2.58-1.33,3.47-2.24.51-.52.93-1.1,1.23-1.7.27-.51.5-1.04.67-1.51.36-.93.62-1.91.78-2.92.2.37.42.74.66,1.11.65.92,1.44,1.74,2.34,2.43.53.41,1.1.78,1.71,1.1-1.56.59-2.89,1.59-3.89,2.94-1.15,1.54-1.69,3.4-1.56,5.39.07,1.18.35,2.31.83,3.36.44.97.99,1.86,1.62,2.63,1.53,1.91,3.51,3.4,5.9,4.41,2.27.96,4.64,1.51,7.03,1.62,1.61.1,3.28-.03,4.96-.36,1.72-.33,3.38-.92,4.92-1.76,1.66-.89,3.18-2.02,4.51-3.35s2.43-2.66,3.43-4.11c1.64-2.34,3.01-4.86,4.07-7.51,1.05-2.61,1.82-5.31,2.3-8.05.46-2.65.75-5.32.87-7.94.1-2.53.22-5.05.36-7.55.11-1.96.25-3.95.4-5.93.18-2.27.12-4.47-.2-6.55h0c-.16-1.03-.47-2.11-.92-3.22-.54-1.33-1.44-2.44-2.61-3.21-.9-.59-1.91-.94-3-1.03-.89-.08-1.77-.04-2.6.07-1.41.21-2.84.69-4.23,1.43-.65.34-1.25.74-1.79,1.19-.48-.31-.98-.59-1.49-.81-2.11-.93-4.44-1.41-6.93-1.42-2.6,0-4.99.49-7.24,1.54-1.59.74-3.04,1.84-4.33,3.27-1.15,1.29-2.15,2.63-2.99,4.02-1.31,2.27-2.34,4.68-3.08,7.21-.09-.58-.2-1.16-.31-1.74-.25-1.22-.58-2.46-.99-3.68-.48-1.4-1.18-2.68-2.02-3.7-1.26-1.7-2.96-2.91-5.03-3.62-1.85-.63-3.82-.86-5.82-.68-2.03.18-3.94.69-5.67,1.52-1.58.76-3.06,1.79-4.41,3.05-.24-.44-.53-.87-.86-1.28-1.4-1.61-3.11-2.62-5.06-2.98-1.85-.33-3.66-.17-5.42.51-1.68.66-3.18,1.74-4.44,3.21-.31.36-.6.75-.85,1.15.04-1.16-.14-2.3-.54-3.43-.86-2.39-2.61-4.13-5.06-5l-.09-.03c-1.28-.4-2.59-.56-3.91-.44-1.28.12-2.51.47-3.67,1.05-1.11.56-2.13,1.32-3.03,2.25-.91.94-1.64,2.06-2.16,3.29-.55,1.3-.75,2.73-.59,4.23.17,1.57.71,2.93,1.69,4.13.6.67,1.29,1.25,2.05,1.71-.53.35-1.03.78-1.5,1.27-.68.72-1.25,1.49-1.67,2.28-.41.74-.75,1.49-1.02,2.18-.23.55-.43,1.12-.6,1.68h0c-.12-1.8-.37-3.61-.72-5.4-.25-1.23-.58-2.48-.99-3.71-.47-1.42-1.17-2.7-2-3.74-1.25-1.71-2.93-2.97-4.99-3.72-1.84-.68-3.79-.99-5.81-.85-2.03.12-3.95.58-5.68,1.37-1.58.71-3.07,1.69-4.42,2.92-.24-.47-.53-.92-.88-1.35-1.39-1.64-3.08-2.69-5.01-3.11-1.86-.39-3.68-.26-5.41.35-1.7.62-3.21,1.66-4.48,3.1-1.31,1.49-2.14,3.3-2.45,5.38-.2,1.37-.26,2.74-.18,4.07.02.34.04.68.07,1.02-.03-.19-.07-.38-.11-.57-.25-1.24-.57-2.49-.98-3.73-.47-1.41-1.16-2.7-1.99-3.76-1.23-1.73-2.9-3.01-4.94-3.82-1.83-.72-3.77-1.04-5.79-.99-2.03.07-3.94.49-5.69,1.24-1.58.68-3.06,1.62-4.42,2.82-.24-.49-.54-.96-.9-1.41-1.37-1.66-3.04-2.74-4.96-3.21-1.85-.44-3.67-.36-5.42.21-1.71.57-3.23,1.58-4.52,3.01-.33.36-.63.75-.9,1.16.08-1.24-.09-2.49-.52-3.72-.83-2.4-2.54-4.19-4.93-5.19l-.08-.03c-1.27-.48-2.49-.66-3.89-.67-1.3.04-2.55.32-3.7.84-1.13.51-2.17,1.22-3.08,2.11-.85.83-1.55,1.81-2.07,2.93.02-.45.03-.9.03-1.35,0-1.66-.3-3.26-.89-4.72-.46-1.2-1.3-2.14-2.44-2.74h-.02c-.93-.48-1.91-.74-2.89-.76-.98.01-2.11.22-3.09.74-1.11.59-1.95,1.56-2.42,2.79-.28.72-.51,1.45-.68,2.18-.14.62-.26,1.28-.38,1.94-.44,2.3-.81,4.62-1.09,6.96l-.1.79c-.24,2.02-.49,4.07-.77,6.08-.27,1.95-.63,3.9-1.04,5.8-.4,1.9-.9,3.78-1.59,6l-.03.1c-.08-.25-.16-.51-.22-.76-.24-.94-.42-1.92-.6-3.32-.27-2.09-.55-4.19-.76-6.26-.24-2.28-.56-4.58-1.01-7.06l-.56-2.43c-.28-1.26-.9-2.41-1.77-3.31-1.08-1.13-2.43-1.91-3.89-2.25-1.4-.32-2.71-.46-3.85-.35-.64.05-1.36.2-2.12.39-.88.24-1.69.61-2.62,1.31-.92.84-1.66,1.96-2.19,3.33-.71,1.8-1.2,3.65-1.45,5.49-.24,1.73-.46,3.45-.65,5.13-.3,2.62-.8,5.27-1.48,7.93-.02-.24-.04-.49-.07-.74l-.6-7.94c-.09-1.25-.15-2.37-.21-3.37l-.12-2.26c-.11-1.49-.18-2.97-.19-4.44-.02-1.92-.13-3.54-.36-4.94-.17-1.04-.43-2.11-.71-3.17-.32-1.22-.87-2.4-1.63-3.49-.88-1.27-1.96-2.25-3.24-2.91-1.21-.62-2.5-1-3.84-1.11-1.28-.1-2.6,0-3.94.33-1.36.35-2.61.92-3.71,1.7-.61.44-1.18.95-1.68,1.51-.57.63-1.03,1.33-1.35,2.04-.63,1.33-1.06,2.74-1.28,4.18-.18,1.3-.29,2.65-.28,4.02l.05,5.02c0,1.74.07,3.48.19,5.17.03.51.08,1.31.19,2.37l.76,7.6c.14,1.46.29,2.85.45,4.16.15,1.3.3,2.48.44,3.52.15,1.16.31,2,.43,2.46.53,2.19,1.26,4.37,2.17,6.49,1.01,2.33,2.43,4.29,4.23,5.82,1.21,1.03,2.56,1.93,4,2.68,1.73.9,3.56,1.31,5.36,1.13,1.5-.12,3.02-.57,4.51-1.34,1.46-.75,2.73-1.75,3.73-2.93,1.47-1.65,2.67-3.54,3.54-5.63.03-.08.06-.16.1-.24.61,1.03,1.27,2.02,1.98,2.97.65.86,1.37,1.69,2.16,2.5.85.86,1.77,1.6,2.69,2.17,1.45.96,3.07,1.66,4.8,2.06,1.9.45,3.84.41,5.57-.13,1.67-.51,3.26-1.49,4.73-2.91,1.27-1.24,2.35-2.6,3.24-4.08,1.33-2.32,2.37-4.81,3.1-7.42.69-2.47,1.33-4.98,1.91-7.51.86-3.71,1.55-7.42,2.05-11.03.37-2.67.67-5.39.94-8.1.27,1.01.73,1.94,1.4,2.79.61.73,1.31,1.35,2.1,1.87-.5.32-.99.7-1.45,1.16-.7.69-1.27,1.44-1.71,2.23-.41.73-.76,1.47-1.02,2.13-.61,1.45-1.04,2.97-1.27,4.53-.2,1.38-.37,2.78-.52,4.16-.11,1.07-.23,2.16-.32,3.25-.08,1.13-.12,2.24-.11,3.34.01,1,.1,2.03.26,3.07.19,1.29.65,2.5,1.35,3.55.81,1.24,1.9,2.25,3.22,2.99,1.25.7,2.49,1.19,3.68,1.45.89.19,1.9.26,3.17.23,1.14-.03,2.28-.21,3.39-.52,1.12-.32,2.15-.77,3.09-1.36.74-.47,1.37-1.03,1.89-1.7.17.36.37.71.62,1.05.59.83,1.46,1.51,2.51,1.96.86.38,1.8.65,2.79.82.9.15,1.81.24,2.73.27.96.03,1.77-.03,2.38-.11,1.52-.18,2.83-.51,4.01-1,1.5-.62,2.77-1.55,3.79-2.76.93-1.14,1.59-2.47,1.93-3.95.29-1.25.45-2.53.45-3.83,0-1.73-.09-3.46-.31-5.15-.2-1.53-.38-3.1-.47-4.66-.06-1-.05-2.04-.01-3.06.02-.73.21-1.42.69-2.39.01-.03.07-.19.31-.48.26-.32.56-.64.88-.93.07-.07.15-.13.24-.2.01.03.02.07.03.11.06.29.11.56.13.82.17,1.94.14,3.92-.08,5.88l-.76,6.48c-.13,1.12-.28,2.24-.44,3.36-.21,1.4-.26,2.77-.14,4.05.07.76.23,1.54.45,2.32.3,1.06.86,1.98,1.75,2.81.57.49,1.26.87,1.89,1.05,1.06.38,2.27.63,3.7.74,1.35.11,2.72.1,4.06-.04,1.39-.14,2.75-.45,4.02-.9,1.43-.5,2.63-1.21,3.55-2.11.49-.49.91-1.03,1.22-1.61.17.77.52,1.53,1.04,2.24.6.82,1.48,1.49,2.55,1.92.86.35,1.8.6,2.79.75.91.13,1.82.19,2.73.2.91,0,1.76-.08,2.37-.17,1.51-.22,2.82-.58,4-1.1,1.49-.65,2.75-1.6,3.75-2.82.94-1.15,1.59-2.49,1.94-3.98.29-1.25.44-2.54.45-3.83,0-1.73-.09-3.46-.31-5.14-.2-1.52-.38-3.08-.47-4.63-.06-1-.05-2.04-.01-3.05.03-.74.21-1.43.69-2.42.02-.04.09-.21.33-.51.27-.33.57-.65.88-.94.08-.07.16-.14.26-.21,0,.01,0,.02,0,.03.06.29.11.55.13.81.17,1.9.14,3.89-.09,5.88l-.76,6.49c-.13,1.12-.27,2.25-.44,3.37-.21,1.41-.26,2.78-.14,4.05.07.76.23,1.55.46,2.33.31,1.07.89,1.99,1.78,2.79.6.5,1.31.86,1.92,1.01,1.05.36,2.26.58,3.71.66,1.31.08,2.68.03,4.06-.14,1.39-.18,2.74-.52,4.01-1,1.43-.54,2.61-1.27,3.51-2.17.51-.51.94-1.09,1.25-1.69.12-.23.24-.46.34-.69.18.36.38.71.62,1.05.83,1.22,1.95,2.18,3.31,2.85.06.03.12.06.18.09l-1.67,13.64c-1.05,8.54-2.79,14.95-5.42,19.83-3.06-1.21-6.66-.67-9.25,1.64-9.93,8.85-22.67,13.72-35.86,13.72-12.26,0-23.83-4.04-33.48-11.68-2.34-1.86-5.46-2.43-8.3-1.51-10.63,3.41-21.97,5.14-33.69,5.14-19.76,0-38.72-5.09-52.72-13.95-.66-7.68-2.94-14.82-5.17-18.34l-6.87-10.88,2.18,12.68c.72,4.2.79,9,.51,13.35-.45.07-.9.13-1.33.27-2.68.87-4.79,2.96-5.69,5.63-4.82,14.25-20.56,24.2-38.26,24.2-12.89,0-25.05-5.31-32.54-14.21-2.06-2.44-5.25-3.61-8.4-3.06-.36.06-.68.22-1.03.32-4.24-7.18-6.76-14.28-7.96-22.24l-2.63-17.52-2.43,17.55c-1.49,10.78.45,21.14,5.69,30.91-6.93,14.79-21.84,24.58-38.33,24.58-23.43,0-42.49-19.06-42.49-42.49,0-1.64.12-3.25.3-4.84.38-3.37-1.16-6.66-4-8.51-1.48-.97-3.19-1.45-4.89-1.45-1.56,0-3.12.4-4.52,1.22-3.99,2.33-8.51,3.57-13.08,3.57-11,0-20.37-6.89-24.17-16.56l2.69,2.87-1.93-9.01c-.5-2.33-1.33-4.56-2.35-6.71.14-1.01.33-2.04.61-3.1.7-2.75.04-5.63-1.67-7.78-1.94-2.55-11.66-13.89-31.18-14.59,11.34-3.53,23.81-9.32,31.84-18.77,1.81-2,2.62-4.71,2.2-7.39-.2-1.25-.32-2.39-.44-3.53,1.9-2.61,3.58-5.34,4.99-8.2l5.09-10.31-8.98,7.19c-.39.31-.79.59-1.18.9,2.56-29.2,27.11-52.18,56.96-52.18,20.03,0,38.26,10.25,48.78,27.44,1.27,2.08,3.35,3.56,5.74,4.08.95.21,1.92.21,2.87.1,1.22,3.93,2.02,8.31,2.42,13.29l5.1-.05c.39-6.53.33-12.01-.18-16.75,9.59-5.67,20.47-8.67,31.72-8.67,15.12,0,29.65,5.6,40.98,15.49-7.05,10.75-6.57,20.59-5.22,30.5l2.5,18.39,2.57-18.38c1.26-9.05,4.1-16.45,8.75-22.77,1.2.57,2.53.88,3.94.87,2.6-.03,5.06-1.2,6.73-3.2,12.62-15.02,31.43-23.64,51.6-23.64s38.21,8.27,50.81,22.68c1.85,2.12,4.61,3.24,7.4,3.04.66-.05,1.31-.18,1.93-.37,2.07,4,3.73,8.56,4.98,13.98l5.04-.79c-.67-7.84-1.78-14.1-3.38-19.24,10.85-15.24,27.9-24.33,46.29-24.33,14.22,0,27.9,5.46,38.53,15.37,2.42,2.26,5.88,3.01,9,1.93.58-.2,1.1-.51,1.61-.81,11.35,11.5,19.81,26.61,25.69,45.97l4.97-1.16c-3.03-18.24-8.61-40.58-24.66-57.28,4.82-13.19,17.34-22.24,31.86-22.24s26.71,8.85,31.66,21.77c-11.41,7.53-14.73,17.17-17.2,27.23l-4.43,18.02,9.14-16.15c4.54-8.03,9.94-13.91,16.65-18.09.63.67,1.33,1.28,2.16,1.73,2.39,1.31,5.23,1.46,7.75.42,3.29-1.37,6.65-2.48,10.06-3.35,1.82,1,3.59,2.08,5.33,3.22.04.08.07.17.11.25.44.74,1.03,1.34,1.78,1.78,3.86,2.81,7.71,5.62,11.57,8.44,2.29,2.15,4.48,4.41,6.53,6.78,1,1.16,1.97,2.35,2.91,3.56,2.48,3.25,4.74,6.67,6.76,10.22.6,1.06,1.18,2.13,1.74,3.22,0,0,0,0,0-.01.34.72.72,1.42,1.04,2.13.26.56.5,1.13.75,1.7,1.19,2.87,2.23,5.8,3.1,8.78.02.16.04.32.1.47.03.1.07.21.1.31.08.25.16.5.24.75.14.46.27.92.41,1.38.27.93.52,1.87.75,2.82.46,1.87.86,3.76,1.2,5.66.16.9.29,1.8.42,2.71.7,5.64.79,11.33.37,17ZM758.32,131.33c.07,1.23.19,2.46.36,3.68.15,1.14.29,2.29.42,3.43.12,1.05.21,2.13.19,3.18-.02.97-.13,1.97-.29,2.96-.17,1.09-.35,2.17-.54,3.25-.09.49-.17.99-.25,1.49-.32-.62-.56-1.28-.73-1.95-.19-.79-.3-1.63-.35-2.49-.02-.3-.04-.88-.03-1.69.02-.94.02-1.95.01-3.04l-.02-3c-.02-1.19-.09-2.01-.18-2.42-.27-1.36-.94-2.55-1.98-3.5.04-.02.08-.04.12-.05.86-.47,1.67-1.09,2.42-1.87.34-.36.65-.74.92-1.13-.11,1.07-.13,2.13-.06,3.15ZM817.1,156.14c1.24-.28,2.44-.7,3.56-1.26.48-.24.96-.51,1.43-.82-.17.38-.37.73-.56,1.02-.19.25-.45.5-.74.74-.22.17-.44.3-.68.38-.43.15-.9.19-1.36.17-.57-.05-1.12-.12-1.64-.24ZM653.41,139.18c-.02-1.18-.08-1.98-.17-2.42-.26-1.37-.93-2.58-1.96-3.57.89-.43,1.71-1.02,2.46-1.76.37-.37.7-.76.99-1.18-.14,1.17-.17,2.34-.1,3.48.07,1.23.19,2.47.36,3.7.15,1.15.3,2.3.43,3.47.12,1.05.21,2.14.19,3.19-.02.96-.13,1.96-.29,2.96-.16,1.08-.35,2.16-.53,3.21-.07.42-.14.83-.21,1.26-.33-.67-.58-1.36-.75-2.06-.2-.81-.3-1.67-.36-2.53-.03-.31-.04-.89-.03-1.71v-3.02s-.02-3.02-.02-3.02Z"/>
          <path class="cls-14" d="M835.3,51.84c-3.5-20.22-21.08-35.61-42.3-35.61s-39.02,15.59-42.35,36c-11.8-11.01-27.43-17.78-44.63-17.78-23.23,0-43.64,12.25-55.53,30.78-13.74-15.72-34.41-25.74-57.55-25.74s-44.73,10.49-58.45,26.83c-13.08-14.75-32.12-24.1-53.39-24.1-14.84,0-28.62,4.53-40.04,12.28-11.63-18.99-32.51-31.71-56.41-31.71-36.54,0-66.17,29.62-66.17,66.17,0,3.52.35,6.94.88,10.31-.02.03-.05.05-.07.07-15.29,18.2-52.08,21.01-52.08,21.01,0,0-3.07,11.83,3.87,16.81,33.81-12.47,47.22,7.02,47.22,7.02l.03.02c-.72,2.79-1.14,5.7-1.14,8.71,0,19.31,15.65,34.96,34.96,34.96,6.42,0,12.42-1.76,17.6-4.79-.22,1.92-.36,3.87-.36,5.85,0,28.41,23.03,51.44,51.44,51.44,22.17,0,41.01-14.06,48.24-33.72,8.86,10.53,23.18,17.4,39.39,17.4,22.15,0,40.81-12.79,46.73-30.28,15.13,10.63,36.65,17.32,60.61,17.32,13.09,0,25.42-2.04,36.43-5.57,10.74,8.5,24.28,13.62,39.04,13.62,16.07,0,30.69-6.07,41.82-15.98,11.87,11.26,29.06,11.83,45.52,18.2,130.16,50.45,164.16-162.72,56.67-169.53Z"/>
          <g>
            <path class="cls-12" d="M189.17,371.12c-1.13.86-2.64.17-3.14-1.02-2.72-6.4-5.98-12.54-9.8-18.35-1.65-2.51-3.33-4.96-5.85-6.67-2.52-1.72-5.52-2.72-8.36-3.77-5.76-2.13-11.59-4.08-17.48-5.81-5.81-1.72-11.68-3.25-17.58-4.61-3.04-.69-6.08-1.35-9.13-2.03-2.51-.56-5.07-1.03-7.51-1.8-.81.97-2.42,1.31-3.13-.06-1.94-3.68-3.9-7.79-3.84-12.04.06-4.9,3.09-8.83,5.42-12.92,8.42-14.75,15.21-30.53,20.14-46.78,2.48-8.19,4.44-16.52,6.03-24.94.8-4.23,1.51-8.49,2.12-12.76.43-3.05.49-6.43,1.33-9.47.03-.73.07-1.47.09-2.2.44-13.32.72-26.65,1.14-39.98.21-6.7.44-13.41.65-20.1.14-4.47.19-9.1.69-13.63-1.07-1.6-1.09-3.76-1.33-5.63-.25-1.97-.48-3.95-.72-5.92-.46-3.94-.86-7.88-1.17-11.84-1.13-14.1-1.34-28.28,1.02-42.28,1.12-6.62,2.81-13.15,5.19-19.43,1-2.63,2.1-5.25,3.41-7.74,1.64-4.32,4.37-8.34,7.32-11.84,3.26-3.87,7.14-7.29,11.4-10.02,3.83-2.44,8-4.42,12.36-5.72,5.01-1.51,10.23-2.18,15.41-2.78,9.26-1.1,18.71-1.92,28-.58,9.9,1.43,18.83,5.84,26.3,12.48,3.81,3.4,7.23,7.23,10.34,11.27,1.59,2.06,3.07,4.2,4.48,6.39,1.33,2.07,2.76,4.09,3.1,6.58.02.1,0,.19-.03.27,2.53,4.71,4.4,9.73,5.24,15.08.29,1.82-2.24,2.52-3.22,1.16-3.8-5.32-10.77-7.78-17.12-6.86-5.95.86-10.99,5.09-13.58,10.42-2.66,5.49-2.55,11.81.25,17.23,2.73,5.29,7.99,9.93,14.03,10.82,3.44.5,6.75-.79,9.93-1.97,3.49-1.28,7.09-2.64,9.83-5.26,1.03-.99,2.74-.34,2.57,1.19-.8,7.13-1.67,14.28-2.87,21.36,2.18,1.8,5.26,2.44,6.51,5.25.27.63,5.05,19.43,5.3,20.18,1.03,3.24.31,6.5-.81,9.61-1.36,3.8-3.15,7.8-5.69,10.99-3.87,4.85-10.68,7.2-16.85,6.63.94,4.33,1.44,8.71,1.48,13.12.24.29.41.67.39,1.16-.05,6.54-.42,13.08-1.21,19.58-1.47,11.9-4.39,23.64-7.1,35.3-1.34,5.76-2.75,11.51-4.41,17.19-1.28,4.37-2.43,9.12-4.5,13.28-3.87,11.02-8.61,21.73-13.13,32.48-3.17,7.53-6.33,15.07-9.52,22.59-1.59,3.72-3.18,7.43-4.81,11.15-1.33,3.06-2.5,6.25-4.62,8.8-1.92,3.55-3.91,7.08-5.89,10.61-2.48,4.41-4.88,8.9-7.51,13.22-2.61,4.29-5.53,8.35-9.57,11.41Z"/>
            <path class="cls-8" d="M196.02,358.25c-.08-.09-.17-.18-.26-.28,0,0,0,0,0,0-25-22.53-57.54-41.06-91.51-44.1-.66-.02-4.31-.3-3.65-.22.07,0-8.44,14.35-14.99,25.41,14.78,12.39,23.3,29.64,34.15,45.21,7.35-.9,15.71,3.37,22.57-.02,6.97-4.78,15.24-7.26,22.95-10.59,5.27-1.33,20.58-11.03,24.2-6.51,1.82-2.99,3.56-5.87,4.26-7.22,1.09,1.28,3.42-.32,2.27-1.69Z"/>
            <path class="cls-13" d="M194.12,241.34c1.4-10.09.43-19.98-1.96-29.85-1.94-7.99-4.62-16.39-3.21-24.61-1.1-.17-2.2-.28-3.3-.32-1.36-.05-2.7,0-4.05.08-1.23.02-2.45.12-3.66.3-.47.06-.85.34-1.11.71-2.76.2-5.51.5-8.26.93-8.6,1.32-17.54,3.63-25.23,7.81-2.07,1.12-3.79,2.7-4.63,4.94-.81,2.17-1.23,4.53-1.76,6.78-1.12,4.81-2.16,9.65-3.09,14.5-2.06,10.81-3.63,21.7-4.72,32.64-.11,1.1.52,2.2,1.68,2.38,4.49.71,9.26-1.07,11.94-4.82,1.58-2.21,2.52-4.78,3.75-7.18,1.19-2.34,2.53-4.6,4.03-6.75,3.06-4.39,6.64-8.42,10.72-11.86,2.86-2.42,6.71-5.76,10.74-5.37,4.56.43,6.4,5.68,6.71,9.58.19,2.32-.06,4.67-.73,6.9-.69,2.29-1.82,4.43-2.68,6.65-1.54,4.04-2.11,8.53.54,12.26,2.43,3.42,6.37,3.87,9.92,1.98,1.6-.84,3.01-2.06,4.65-2.85.02,0,.03-.01.05-.02,1.68-4.81,2.94-9.72,3.64-14.82Z"/>
            <path class="cls-9" d="M237.45,279.88c6.57-17.5,10.26-35.88,15.61-53.76.78-2.61,1.62-5.21,2.41-7.82.38-1.27.75-2.51.99-3.8.08-.49.21-.96.32-1.43.37.21.78.41,1.22.56.25.08.6-.07.55-.4-.43-2.66-2.75-4.6-4.62-6.35-2.11-1.98-4.44-3.7-6.89-5.22-4.88-3.04-10.27-5.17-15.66-7.12-9.25-3.36-18.89-6.62-28.87-6.25-.14.01-.28.02-.41.04-1.54-.18-3.09-.32-4.64-.45-.05.42-.11.83-.14,1.25-.29,3.29.06,6.58.65,9.82,2.03,11.16,7.43,21.97,6.7,33.53-.49,7.67-3.58,14.9-7.29,21.67-.05.15-.1.31-.15.47-.08.24-.25.45-.45.63-.52.93-1.06,1.84-1.6,2.76.3.82.49,1.68.76,2.52.5,1.53,1.36,3.07,2.64,4.08,3.42,2.68,7.47-.64,10.05-2.93,3.37-2.99,5.47-6.71,7.89-10.43,2.04-3.13,4.25-8.77,8.26-9.11,1.84-.15,4.41.35,5.62,1.78.68.8,1.5,3.85,1.97,4.76.05.1.27,2.32.32,3.32.1,2.5.38,5.22.27,7.72-.14,2.87-.85,5.68-1.23,8.53-.38,2.84-1.64,5.78-1.87,8.63-.05.44.12.79.4,1.03.06.46.27.93.73,1.35.57.52,1.25.95,1.99,1.17.67.3,1.38.54,2.13.71.87.19,2.01-.38,2.33-1.23Z"/>
            <path class="cls-6" d="M274.14,80.28c-.76.5-1.62.88-2.57,1.06-1.06.2-2.12.12-3.18,0-.04,0-.09-.02-.13-.02.27.66.38,1.39.26,2.16-.41,2.43-2.49,4.66-4.42,6.03-3.6,2.56-8.45,3.33-12.7,2.25-4.71-1.2-8.64-4.12-11.85-7.7-1.62-1.81-3.15-3.82-4-6.13-.81-2.25-.83-4.69-.56-7.04.24-2.25.5-4.97,2-6.77.66-.8,1.54-1.31,2.47-1.52,2.14-3.6,5.76-6.45,9.79-7.6,3.73-1.06,7.83-.93,11.33.86,1.76.9,3.35,2.16,4.5,3.78,0,.02.01.04.03.05.92-.45,2.14-.33,2.76.65.73,1.15,1.02,2.52,1.75,3.66.75,1.16,2.26,1.73,3.21,2.72.65.67,1.17,1.42,1.62,2.2.45.11.86.4,1.17.94.09.16.15.34.24.51v-.02s.04.08.05.11c.73,1.51,1.03,3.11.79,4.78.63.79.73,1.91.2,2.98-.53,1.06-1.62,1.67-2.77,2.04Z"/>
            <path class="cls-5" d="M226.59,90.18c-.33.31-.67.6-1.01.9-4.24,5.8-9.94,10.29-16.42,13.45-.72.35-1.56.08-2.15-.44-.35.18-.7.36-1.07.53-5.28,2.52-11.1,4.17-16.99,3.7-6.68-.53-12.71-4.53-17.4-9.09-4.6-4.48-7.72-9.94-8.89-16.27-2.2-11.76,2.6-24.03,10.79-32.46,4.27-4.38,9.32-7.92,15-10.21,5.41-2.2,12.35-4.02,17.85-1.14.2.1.37.24.5.38,4.97.43,9.8,2.04,13.94,4.95.22.16.44.32.65.49,3.11,1.58,5.56,4.07,7.36,7.06,2.21,3.67,3.94,7.97,4.95,12.34.03.07.07.12.09.19.51,1.28.68,2.59.63,3.89.12,1.01.21,2,.24,2.99.23,7.34-2.76,13.76-8.1,18.74Z"/>
            <path class="cls-4" d="M179.42,61.83c1.11-1.05,5.72-7.9,7.14-6.61-4.16,13.61-.25,29.29,13.7,35.69l-8.65-.97c3.44,3.94,8.2,5.23,12.65,7.48l-6.18,1.1c1.13.88,2.13,2.07,3.38,2.79.97.56,8.19,2.04,4.36,4.08-1.7.91-7.6.69-9.69.35-27.06-4.37-36.45-41.29-12.01-55.76,2.67.1-6.63,9.74-4.7,11.84Z"/>
          </g>
          <g>
            <path class="cls-11" d="M835.3,51.84c-3.5-20.22-21.08-35.61-42.3-35.61s-39.02,15.59-42.35,36c-11.8-11.01-27.43-17.78-44.63-17.78-23.23,0-43.64,12.25-55.53,30.78-13.74-15.72-34.41-25.74-57.55-25.74s-44.73,10.49-58.45,26.83c-13.08-14.75-32.12-24.1-53.39-24.1-14.84,0-28.62,4.53-40.04,12.28-11.63-18.99-32.51-31.71-56.41-31.71-36.54,0-66.17,29.62-66.17,66.17,0,3.52.35,6.94.88,10.31-.02.03-.05.05-.07.07-15.29,18.2-52.08,21.01-52.08,21.01,0,0-3.07,11.83,3.87,16.81,33.81-12.47,47.22,7.02,47.22,7.02l.03.02c-.72,2.79-1.14,5.7-1.14,8.71,0,19.31,15.65,34.96,34.96,34.96,6.42,0,12.42-1.76,17.6-4.79-.22,1.92-.36,3.87-.36,5.85,0,28.41,23.03,51.44,51.44,51.44,22.17,0,41.01-14.06,48.24-33.72,8.86,10.53,23.18,17.4,39.39,17.4,22.15,0,40.81-12.79,46.73-30.28,15.13,10.63,36.65,17.32,60.61,17.32,13.09,0,25.42-2.04,36.43-5.57,10.74,8.5,24.28,13.62,39.04,13.62,16.07,0,30.69-6.07,41.82-15.98,11.87,11.26,29.06,11.83,45.52,18.2,130.16,50.45,164.16-162.72,56.67-169.53Z"/>
            <g class="cls-10">
              <path class="cls-5" d="M420.84,225.65c-20.24,0-36.71-16.47-36.71-36.71,0-1.26.09-2.63.26-4.19l3.31-29.2-25.37,14.83c-3.15,1.84-6.57,2.77-10.17,2.77-11.16,0-20.23-9.08-20.23-20.23,0-1.63.22-3.28.67-5.04l2.7-10.5-7.27-4.49c-2.66-2.89-7.5-7.22-14.82-10.42,6.4-3.45,12.41-7.83,17.14-13.39.14-.15.27-.31.41-.48l4.17-5.1-1.02-6.5c-.48-3.07-.71-5.62-.71-8.03,0-28.36,23.08-51.44,51.44-51.44,18,0,34.39,9.22,43.85,24.67l8.06,13.16,12.77-8.66c9.39-6.37,20.38-9.74,31.77-9.74,16.14,0,31.58,6.98,42.37,19.14l11.32,12.76,10.97-13.07c11.52-13.71,28.71-21.58,47.17-21.58s34.96,7.54,46.46,20.7l12.9,14.76,10.58-16.5c9.64-15.03,25.77-24.01,43.14-24.01,12.75,0,25.03,4.91,34.59,13.82l20.13,18.78,4.44-27.17c2.24-13.7,13.94-23.65,27.82-23.65s25.44,9.84,27.78,23.4l1.98,11.45,11.6.73c38.51,2.44,51.08,37.87,50.14,67.47-.66,20.81-7.68,41.24-19.25,56.04-8.67,11.09-24.15,24.31-48.65,24.31h-.01c-10.17,0-21.15-2.26-32.65-6.72-6.21-2.41-12.16-3.99-17.92-5.53-9.43-2.51-17.57-4.69-22.79-9.63l-9.82-9.31-10.11,9c-8.87,7.9-20.25,12.25-32.02,12.25-10.94,0-21.27-3.61-29.89-10.43l-6.16-4.88-7.48,2.4c-10.06,3.23-20.8,4.87-31.93,4.87-19.89,0-38.9-5.34-52.15-14.64l-16.1-11.31-6.31,18.64c-4.04,11.94-17.52,20.27-32.78,20.27-11.2,0-21.72-4.54-28.12-12.16l-16.34-19.42-8.75,23.82c-5.29,14.4-19.12,24.07-34.42,24.07Z"/>
            </g>
            <path class="cls-3" d="M426.73,235.96c10.23,0,19.73-3.02,27.73-8.18-9.01,7.83-20.74,12.59-33.62,12.59-28.41,0-51.44-23.03-51.44-51.44,0-1.98.14-3.93.36-5.85-5.17,3.02-11.17,4.79-17.6,4.79-19.31,0-34.96-15.65-34.96-34.96,0-3.01.42-5.92,1.14-8.71l-.03-.02s-13.41-19.49-47.22-7.02c-6.95-4.98-3.87-16.81-3.87-16.81,0,0,2.05-.17,5.31-.63,0,0,0,0,0,0,7.38-1.06,21.15-3.71,32.85-9.79.33-.74.72-1.45,1.05-2.18.47-1.06,1.25-2.08,2.05-2.91,2.39-2.46,4.83-4.87,7.27-7.29,1.22-1.2,2.44-2.41,3.67-3.6.62-.61,1.27-1.19,1.91-1.78.48-.44.95-.89,1.53-1.19.26-.14.51-.3.75-.46,1.53-1.21,2.99-2.5,4.38-3.87.37-.36.73-.72,1.05-1.13.3-.39.6-.78.91-1.17.63-.81,1.32-1.55,2.02-2.31.23-.25.71-.33,1.01-.15-.01,0-.02-.02-.04-.02.03,0,.05.02.08.03-.01,0-.03,0-.04,0,.07.03.13.06.19.11.09.13.11.14.03.04.29.23.32.76.14,1.06-.34.56-.64,1.15-.98,1.71-.34.57-.7,1.12-1.05,1.68-.34.55-.65,1.1-.93,1.69-.27.59-.55,1.17-.84,1.75-.52,1.05-1.04,2.12-1.65,3.12-.31.51-.65.99-.92,1.52-.39.77-.93,1.4-1.51,2.03-1.77,1.95-3.56,3.87-5.35,5.81-1.24,1.34-2.48,2.68-3.72,4.02,0,.06.01.12.02.19-.02.03-.05.05-.07.07-10.62,12.64-31.55,17.84-43.36,19.85.6,2.35,1.8,4.61,4,6.18,23.62-8.71,37.26-1.83,43.35,3.11.09.03.17.04.26.07.01,0,.02,0,.03,0,.31,0,.58.12.85.26.17.09.34.19.51.29.44.27.83.58,1.19.96.58.61,1.14,1.27,1.6,1.97,1.44,2.15,2.32,4.72,2.77,7.26.24,1.35.38,2.72.52,4.09.04.36.02.72.02,1.08.05.29.11.58.15.87.08.61.18,1.22.13,1.83-.02.26-.05.53-.08.79-.02.16-.03.33-.07.49-.03.13-.09.23-.17.33-.05.16-.1.32-.16.48-.08.22-.4.24-.47,0-.05-.16-.09-.33-.15-.49-.09-.12-.16-.24-.2-.4-.03-.13-.06-.27-.1-.4-.07-.28-.16-.56-.25-.83-.17-.5-.26-1.03-.42-1.54-.08-.26-.17-.51-.26-.76,0,0-.01-.03-.02-.06-.02-.04-.04-.08-.05-.11-.06-.12-.11-.23-.17-.34-.25-.49-.52-.97-.81-1.44-.26-.41-.49-.84-.75-1.26-.13-.13-.26-.25-.38-.37-.17-.16-.32-.34-.48-.5-.08-.08-.16-.16-.24-.24,0,.21-.04.41-.04.62,0,19.31,15.65,34.96,34.96,34.96,6.42,0,12.42-1.76,17.6-4.79-.22,1.92-.36,3.87-.36,5.85,0,28.41,23.03,51.44,51.44,51.44ZM658.14,201.11c-11.01,3.53-23.34,5.57-36.43,5.57-23.96,0-45.48-6.69-60.61-17.32-.75,2.2-1.7,4.33-2.83,6.37,14.91,9.46,35.13,15.37,57.55,15.37,13.09,0,25.42-2.04,36.43-5.57,10.74,8.5,24.28,13.62,39.04,13.62,15.49,0,29.6-5.68,40.57-14.96-9.95,6.62-21.83,10.54-34.67,10.54-14.76,0-28.3-5.11-39.04-13.62ZM474.97,202.24c-.09.25-.23.47-.33.72-.4-.41-.86-.76-1.26-1.18-1.35-1.4-2.62-2.87-3.82-4.4-.91-1.21-1.78-2.46-2.66-3.7-.42-.59-.81-1.21-1.21-1.81-.28-.42-.57-.84-.9-1.22-.03-.06-.08-.13-.1-.17-.11-.19-.23-.38-.34-.57-1.65-2.77-3.12-5.66-4.43-8.6-.03-.07-.01-.03-.02-.05-.03-.07-.06-.14-.08-.2-.09-.22-.18-.44-.26-.66-.14-.38-.28-.77-.42-1.15-.15-.41-.28-.82-.45-1.22-.16-.37-.4-.7-.6-1.06-.46-.86-1.6-.53-1.9.25-.31.78-.47,1.5-.44,2.34.03.91.17,1.81.32,2.71.29,1.71.75,3.35,1.36,4.97.69,1.83,1.47,3.63,2.3,5.4.08.18.16.35.25.53,0,0,0,0,0,.01,0,.02,0,.03.01.09.11.59.46,1.17.72,1.72.35.75.71,1.49,1.06,2.23.77,1.62,1.78,3.13,2.81,4.59,1.14,1.62,2.35,3.19,3.63,4.7,2.24,2.65,4.84,5.02,7.46,7.3,1.66,1.44,3.35,2.84,5.12,4.15.41.3.8.65,1.27.85.45.2.89.39,1.34.58.69.3,1.11.46,1.88.54.21.02.41.02.61.02.06,0,.11,0,.17,0,0,0,0,0,0,0,0,0,0,0,0,0h0s.01,0,.02,0c0,0-.01,0-.02,0,.01,0,.02,0,.04,0,.32,0,.15.02.04.02.13.04.68.15.71.15.36.08.68.04.97-.07,6.26,2.57,13.26,4.02,20.66,4.02,13.6,0,25.88-4.84,34.71-12.61-8.07,5.14-18.02,8.2-28.82,8.2-16.21,0-30.53-6.87-39.39-17.4ZM486.13,219.96s-.04,0-.06-.01c.01,0,.03.01.06.01ZM381.7,30.16c20.81,0,39.33,9.65,51.45,24.68.61.85,1.22,1.7,1.81,2.56,1.46,2.11,2.9,4.24,4.11,6.5.71,1.32,1.38,2.64,1.97,4.02-.1-.23-.19-.46-.29-.69.37.89.79,1.77,1.19,2.65.17.36.32.7.55,1.02.23.32.36.67.52,1.03.1.23.19.42.34.62.22.28.22.28-.01,0,.02.03.05.07.07.1.05.07.1.14.15.21.26.39.47.82.79,1.17.11.12.25.24.37.36.1.09.2.14.31.21.04.14.31.35.42.45.15.13.28.25.42.4.29.33.82.06.83-.34,0-.21.04-.39.07-.6.02-.12.07-.21.06-.36,0-.03,0-.05,0-.08.08-.17.12-.43.15-.56.07-.32.09-.63.08-.95-.01-.42.02-.83.02-1.25,0-.42-.1-.86-.19-1.3,0-.18.02-.36.02-.54,0-.37-.08-.75-.14-1.12-.06-.4-.12-.79-.19-1.19-.13-.77-.3-1.53-.51-2.28-.5-1.75-1.16-3.42-1.98-5.04-.2-.41-.45-.78-.67-1.18,10.28-5.74,22.11-9.03,34.72-9.03,18.8,0,35.84,7.32,48.58,19.2-.64.84-1.28,1.67-1.88,2.53-1.49,2.13-2.69,4.44-3.72,6.82-1.07,2.48-2.04,5.06-2.42,7.74-.01.08-.02.16-.03.24-.02.14-.19,1.11-.04.3-.03.16-.05.32-.07.48-.07.47-.14.95-.19,1.43-.06.65.04,1.35.09,2,.11,1.44.29,2.76.51,4.12.06.41.56.67.94.61.44-.07.7-.4.74-.84.11-1.19.41-2.35.84-3.54.1-.27.23-.54.31-.81.03-.06.05-.12.08-.18.13-.28.26-.55.35-.84.1-.31.19-.61.3-.92.05-.13.09-.27.14-.4.02-.06.05-.13.07-.19.19-.43.38-.85.56-1.29.03-.07.09-.21.13-.29-.02.05-.06.12-.12.27.08-.17.15-.34.22-.5.28-.62.57-1.24.88-1.84.64-1.24,1.32-2.46,2.05-3.64.84-1.35,1.76-2.65,2.73-3.91-.16.21-.33.43-.49.64.47-.61.92-1.22,1.38-1.83.4-.51.87-.95,1.29-1.45.05.06.11.11.16.16,13.72-16.34,34.79-26.83,58.45-26.83s43.81,10.02,57.55,25.74c.08-.12.18-.23.26-.36.03.03.07.07.1.1,1.05,1.11,2.11,2.23,3.08,3.41.8.97,1.6,1.93,2.4,2.9.96,1.16,2.03,2.23,2.96,3.41.06.08.12.15.17.23.06.08.11.16.17.25.24.34.43.53.76.78-.12-.09-.24-.19-.36-.28.08.07.16.14.23.21.04.03.07.07.1.11.08.06.08.06.13.1.11.12.24.22.35.34.01.02.03.04.04.06.08.11.17.22.25.32.02.03.04.06.06.08.03.03.05.07.07.12,0,0,0,0,0,.02.13.31.37.55.72.55.31,0,.67-.23.72-.55.07-.4.19-.77.24-1.17,0-.08.02-.15.03-.23,0-.02,0-.05,0-.07.05-.24.1-.5.11-.74.05-.92-.24-1.79-.56-2.65-.35-.96-.76-1.89-1.22-2.8-.37-.74-.83-1.43-1.28-2.12-.89-1.36-1.74-2.76-2.71-4.07-.88-1.19-1.91-2.26-2.91-3.34,12.18-15.45,30.73-25.4,51.6-25.4,17.2,0,32.83,6.77,44.63,17.78.1-.62.27-1.21.4-1.82.35.25.7.51,1.06.76.89.63,1.8,1.24,2.67,1.89.14.1.28.21.41.31.06.04.11.09.17.13.4.32.8.65,1.2.98,1.62,1.36,3.14,2.82,4.65,4.3,1.57,1.55,3.08,3.17,4.51,4.85.68.8,1.33,1.61,1.98,2.43.05.06.09.12.14.18.15.2.3.4.45.6.32.43.63.86.94,1.3,2.54,3.61,4.74,7.46,6.74,11.4,1.1,2.18,2.09,4.4,3.34,6.5,1.12,1.87,2.37,3.79,2.98,5.91.25.87,1.37.6,1.47-.2.26-2.04-.28-4.14-.9-6.07-.65-2.04-1.33-4.06-2.01-6.09-1.5-4.48-3.1-9.01-5.52-13.08-4.61-7.75-10.71-14.78-18.01-20.09-2.19-1.59-4.37-3.22-6.56-4.81-1.31-.95-2.57-1.91-4.08-2.49-.17-.06-.34-.09-.5-.14-10.62-7.44-23.37-11.88-37.19-11.88-23.23,0-43.64,12.25-55.53,30.78-13.74-15.72-34.41-25.74-57.55-25.74-21.03,0-39.97,8.32-53.57,21.63-.34-.3-.75-.45-1.18-.59-.06-.03-.11-.05-.17-.08-.95-.4-1.93-.3-2.85.16-.13.07-.26.14-.39.22-.73.43-1.38.96-2.02,1.51-.39.34-.75.71-1.13,1.07-12.93-13.02-30.73-21.19-50.53-21.19-14.84,0-28.62,4.53-40.04,12.28-11.63-18.99-32.51-31.71-56.41-31.71-29.36,0-54.22,19.14-62.87,45.61,10.54-22.57,33.37-38.25,59.92-38.25ZM859.19,55.4s0,0,0,0v.03s0,.01,0,.02c0,0,0,0,0,0,0,0,0,.01-.01.01,0,0-.02.01-.03.02,0,0-.02,0-.03,0,0,0-.02,0-.02,0,0,0-.02,0-.03,0h-.03s-.03-.02-.05-.01c-.02,0-.05.01-.07.03-.01.01-.02.03-.03.05,0,.03,0,.06.01.09.01.03.03.05.05.07.02.02.04.04.07.06.01.01.03.02.05.03.03.01.06.03.09.04,0,0,.02,0,.03,0,.03,0,.05,0,.08,0,.02,0,.04,0,.06,0,.04,0,.08,0,.11-.02,0,0,.02,0,.03,0,.03-.01.06-.02.08-.04.04-.02.07-.05.1-.07,0,0,.02-.01.02-.02,0,0,0,0,0-.01.02-.02.04-.04.05-.06,0-.01,0-.02.01-.04.01-.02.02-.05.02-.07,0-.03,0-.05,0-.08,0,.01,0,.02,0,.03,0-.01,0-.02,0-.03,0,0,0,0,0,0,0-.01,0-.02,0-.03,0,0,0-.02,0-.03,0,0,0-.01,0-.02,0,0,0-.02,0-.02-.01-.03-.02-.06-.04-.08,0,0,0-.01-.01-.02-.02-.02-.03-.04-.05-.07-.01-.01-.02-.02-.03-.03.01.01.02.03.03.04-.02-.03-.04-.05-.06-.08-.02-.02-.05-.04-.08-.06-.04-.03-.08-.05-.13-.06-.04-.02-.09-.02-.14-.03-.02,0-.03,0-.05,0-.03,0-.06,0-.09.01-.03,0-.06.02-.09.03-.03.01-.05.03-.07.05-.02.01-.03.03-.03.05,0,.02-.01.04-.01.06,0,.01,0,.03,0,.04,0,.02.01.04.03.05,0,.01.02.02.03.03.02.01.03.02.05.03.01,0,.03,0,.04,0,.03,0,.05,0,.08-.02,0,0-.01,0-.02,0,.01,0,.02,0,.03,0,0,0,.01,0,.02,0,0,0,.02,0,.03,0,.01,0,.02.01.03.02,0,0,0,0,0,0,0,0,0,0,0,0,0,.02-.02.05-.03.07ZM902.7,127.69c-.23-3.83-.65-7.65-1.2-11.45-.49-3.39-1.12-6.76-1.9-10.09-.78-3.32-1.71-6.6-2.8-9.83-1.21-3.59-2.63-7.11-4.2-10.55-1.39-3.07-2.95-6.06-4.67-8.95-1.36-2.3-2.84-4.53-4.41-6.69-.05-.07-.1-.13-.15-.2-.37-.51-.75-1.02-1.13-1.52-.11-.15-.23-.29-.34-.43-.34-.44-.66-.89-1-1.33-.8-1.02-1.64-2.02-2.49-2.99-.45-.48-.98-.82-1.59-1.02-.59-.31-1.22-.45-1.9-.42-.68-.03-1.31.12-1.9.42-.61.2-1.14.54-1.59,1.02-.4.43-.74.93-1,1.47-.27-.21-.54-.43-.81-.64-4.43-3.39-9.5-6.08-14.87-7.6-.62-.17-1.24-.33-1.87-.48-.67-.15-1.35-.32-2.03-.42-1.18-.22-2.37-.4-3.57-.53-.49-.06-.99-.1-1.48-.14-.4-.03-.82-.06-1.23-.06,1.89-.45,3.8-.85,5.73-1.17-.48-.2-.95-.42-1.4-.68-1.74-.23-3.47-.54-5.17-.99-.41-.06-.81-.12-1.22-.19-.81.11-1.62.2-2.44.2-.14,0-.28-.02-.42-.02-.12.06-.26.11-.43.11-.18,0-.36.01-.54.02-.3.08-.59.17-.88.28-.42.16-.91-.11-1.13-.46-.03-.04-.03-.09-.05-.13-.48-.01-.96-.02-1.44-.05-.5-.02-.91-.36-.98-.87-.06-.47.23-.98.72-1.1.69-.16,1.38-.18,2.07-.13.04-.09.09-.17.16-.24-.25-.12-.51-.19-.82-.22-.2-.02-.4-.04-.6-.06-.32-.04-.61.06-.91.15-4.33-19.14-21.37-33.47-41.82-33.47s-35.86,13-41.12,30.77c7.11-13.88,21.5-23.41,38.17-23.41,18.46,0,34.15,11.65,40.23,27.99-.48.22-.95.44-1.42.67-1.68.82-3.34,1.71-4.89,2.76-1.11.75-2.2,1.57-3.16,2.51-.8.79-1.58,1.61-2.32,2.46-.96,1.09-1.82,2.24-2.6,3.46-.62.98-1.13,2.03-1.6,3.09-.14.31-.3.64-.4.97-.02.13-.03.25-.05.38.01-.09.02-.19.04-.28-.01.02-.01.07-.02.09,0,.05-.02.1-.03.16-.01.09-.02.19-.04.28-.43.5-.86,1.01-1.27,1.53-.29.38-.58.76-.86,1.15-.28.39-.39.8-.49,1.26-.21.93.77,1.77,1.64,1.26.11-.07.23-.13.34-.19.06.17.16.32.32.42.37.21.79.07,1.02-.27.84-1.23,1.74-2.34,2.79-3.45.12-.13.27-.25.38-.39.02-.02.04-.04.06-.06-.11.07-.07.03.14-.12.07-.06.13-.13.19-.2.27-.28.57-.54.87-.8.25-.22.51-.43.77-.64.14-.11.28-.23.43-.34.02-.01.03-.02.04-.03.01,0,.02-.01.04-.03.1-.07.19-.15.29-.22.29-.22.58-.43.88-.63.15-.1.3-.2.45-.31.08-.05.15-.1.23-.15.05-.03.1-.07.15-.1-.22.09-.17.07.17-.07.31-.19.6-.41.92-.59.34-.19.69-.38,1.04-.57.65-.34,1.31-.66,1.98-.95.17-.07.34-.14.51-.22-.47.22.1-.04.21-.09.15-.06.37-.09-.09-.03.37-.04.58-.11.92-.27.05-.03.11-.05.16-.08.02,0,.06-.01.11-.03,1.42-.42,2.87-.73,4.32-.98.27.01.54,0,.79-.07,1.23-.35,2.5-.57,3.77-.76,2.28-.28,4.58-.3,6.87-.11.49.12,1.09.1,1.57.15.2.02.4.05.6.07,2.97.42,5.84,1.23,8.62,2.34.32.17.69.3,1.04.43,3.31,1.44,6.42,3.29,9.29,5.46,2.84,2.24,5.44,4.78,7.74,7.58.09.12.19.23.28.35,2.15,2.83,4.01,5.89,5.57,9.08.41.83.78,1.68,1.15,2.53,1.89,4.57,3.31,9.32,4.23,14.18.23,1.22.43,2.45.6,3.68.8,6.3.86,12.67.4,19-.14,1.9-.33,3.8-.55,5.7-.12.9-.23,1.81-.34,2.71-.81,5.8-1.93,11.56-3.24,17.27-1.28,5.6-2.73,11.16-4.53,16.61-.95,2.88-2.01,5.73-3.17,8.53-2.2,5.12-4.8,10.08-7.93,14.7-.73,1.08-1.5,2.13-2.28,3.17-1.07,1.37-2.2,2.69-3.37,3.98-.27,0-.54-.02-.82-.02-1.05-.01-2.1-.09-3.15-.22-1-.16-1.98-.41-2.93-.76-.62-.29-1.22-.63-1.78-1.02-.43-.37-.83-.77-1.2-1.2-.41-.58-.76-1.19-1.05-1.83-.38-1.02-.64-2.09-.8-3.17-.35-2.94.04-5.89.39-8.81.18-1.54.36-3.08.46-4.63.1-1.54.27-3.07.36-4.61.06-.96.07-1.93.07-2.9.07-1.15.13-2.3.15-3.45,0-.34,0-.68.02-1.02,0-.23.02-.44,0-.67,0-.04,0-.05-.01-.08,0-.02,0-.04.01-.09,0-.1,0-.2,0-.3,0-.74-.03-1.48-.06-2.22-.03-.8-.07-1.6-.13-2.4-.03-.4-.06-.8-.09-1.2-.04-.44,0-.99-.18-1.41-.28-2.1-.63-4.2-1.06-6.27-.09-.42-.56-.52-.88-.36-.09-.45-.17-.9-.27-1.34-.19-.85-.42-1.69-.66-2.53-.12-.42-.26-.83-.4-1.25-.14-.41-.32-.75-.54-1.12-.07-.12-.25-.06-.25.07-.02.36-.05.69,0,1.04.05.39.08.79.13,1.18.1.71.21,1.43.3,2.14.19,1.47.39,2.94.54,4.41.14,1.46.25,2.92.32,4.39.03.65.03,1.3.02,1.95-.29-.01-.6.17-.59.51.01.5.07,1.05-.01,1.55-.1.58-.22,1.13-.24,1.72-.04,1.07-.11,2.15-.21,3.22,0,.06-.01.13-.02.19,0,.03,0,.06-.01.1-.02.16-.03.32-.05.48,0,0,0,0,0,.01,0,.05-.01.1-.02.14-.02.15-.04.3-.06.45-.08.51-.16,1.03-.25,1.54-.19,1.06-.4,2.12-.65,3.17-.28,1.19-.59,2.37-.94,3.54.07-.18.15-.35.22-.53-.34.8-.53,1.66-.77,2.49-.2.69-.42,1.37-.64,2.05-.44,1.33-.94,2.64-1.47,3.94-.27.62-.51,1.25-.76,1.88-.34.8-.7,1.6-1.15,2.35-.54.88-.98,1.83-1.47,2.74-.99,1.82-2.08,3.6-3.24,5.32-.6.88-1.23,1.74-1.87,2.58-2.37,3.02-5.04,5.75-7.94,8.26-.74.64-1.5,1.25-2.27,1.86-2.91,2.21-6.01,4.15-9.27,5.8-.79.4-1.59.76-2.41,1.11-3.89,1.61-7.94,2.9-12.06,3.73-1.02.21-2.05.38-3.09.53-.47.06-.94.1-1.42.15,10.38-2.4,19.81-7.27,27.71-13.91-10.48,7.01-23.01,11.17-36.57,11.17-15.27,0-29.3-5.22-40.49-13.91.13-.27.28-.54.4-.81.85-1.87,1.44-3.81,1.85-5.82.41-2.01.71-4.04.88-6.09.18-2.16.26-4.31.06-6.47-.23-2.47-.64-4.95-1.48-7.29-.14-.4-.54-.67-.97-.55-.45.12-.61.55-.55.97.29,2.03.24,4.12.05,6.16-.05.52-.11,1.03-.17,1.54-.01.12-.03.23-.05.35-.06.41-.11.81-.16,1.22-.03.25-.05.51-.09.76,0,.01,0,.04,0,.04-.02.12-.04.25-.05.37-.08.53-.17,1.07-.26,1.6-.17.95-.38,1.89-.52,2.84-.13.9-.27,1.8-.44,2.69-.34,1.8-.77,3.59-1.45,5.3-.04.1-.09.2-.13.31.23-.62.05-.11-.02.02-.02.05-.05.11-.08.16-.61-.54-1.26-1.04-1.85-1.6-1.83,1.63-3.78,3.1-5.78,4.51,11.86,11.2,27.81,18.11,45.41,18.11,3.03,0,6-.21,8.92-.61-.57.45-1.07,1.09-1.24,1.81-.14.62-.14,1.27,0,1.89.19.83.9,1.71,1.63,2.12,5.02,2.82,10.46,4.95,16.06,6.28,5.57,1.33,11.36,1.94,17.08,1.75,1.52-.05,3.04-.16,4.56-.33.93-.1,1.88-.19,2.81-.34,4.44-.03,8.86-.95,12.98-2.61,2.95-1.19,5.76-2.64,8.46-4.27.24-.1.49-.19.74-.29,3.44-1.42,6.79-3,10-4.9,3.21-1.9,6.23-4.08,9.14-6.41,2.6-2.08,5.06-4.35,7.34-6.77,2.61-2.77,5-5.77,7.21-8.87,2.02-2.84,3.86-5.8,5.52-8.87,1.85-3.43,3.46-6.99,4.91-10.61,1.31-3.27,2.45-6.61,3.42-9.99.97-3.4,1.78-6.84,2.43-10.32.73-3.87,1.27-7.79,1.67-11.71.35-3.44.56-6.9.63-10.36.07-3.43,0-6.85-.19-10.27Z"/>
          </g>
          <path class="cls-2" d="M193.64,187.19c-4.31-.09-8.64-.07-12.95.2-7.68.48-15.31,1.53-22.7,3.69-3.79,1.11-7.58,2.37-11.11,4.14-1.8.9-3.53,1.96-5.11,3.19-1.43,1.12-2.82,2.88-4.6,3.42-.53.16-.94-.25-.91-.76.11-2.21,2.4-4.01,4.01-5.25,1.87-1.43,3.92-2.59,6.04-3.61,7.27-3.49,15.42-5.47,23.39-6.52,7.97-1.06,16.14-.8,23.96,1.05.24.06.25.46-.02.46ZM203.34,188.53c16.89.74,33.65,6.36,47.06,16.76,1.9,1.47,3.75,2.98,5.56,4.55.85.74,1.67,1.5,2.5,2.26.77.71,1.64,1.52,2.76,1.37.32-.04.63-.28.67-.62.25-1.88-2.01-3.38-3.24-4.48-1.62-1.45-3.32-2.81-5.07-4.09-3.51-2.58-7.35-4.82-11.21-6.84-7.64-4-16.14-6.68-24.62-8.19-4.78-.85-9.55-1.14-14.4-1.04-.17,0-.19.3-.01.3ZM147.64,257.81c-1.24-1.63-3.2-2.02-5.15-2.1-2.42-.1-4.86-.09-7.29-.01-2.29.07-4.54.4-6.69,1.2-1.03.38-2.03.86-2.98,1.4-.52.3-.97.64-1.41,1.05-.45.42-.68.91-1,1.42-.42.68.45,1.46,1.11,1.21.94-.35,1.79-.68,2.66-1.19.83-.49,1.66-.91,2.56-1.26,1.93-.75,3.93-1.04,5.98-1.19,2.14-.16,4.27-.36,6.41-.52,1.85-.14,3.75-.15,5.53.39.22.07.39-.24.26-.41ZM223.11,276.87c.59.35,1.34.39,2,.57.75.21,1.52.53,2.22.87,1.44.69,2.79,1.47,4.09,2.39,1.26.89,2.54,1.8,3.71,2.81.59.51,1.15,1.06,1.58,1.72.22.34.39.71.65,1.03.12.15.23.29.39.4.09.06.43.3.28.15.29.28.9.16,1.04-.24-.18.1-.19.1-.04-.03.08-.06.14-.13.18-.22.13-.21.17-.42.17-.66.01-.49-.16-.93-.39-1.35-.45-.83-1.09-1.56-1.78-2.18-1.36-1.23-2.97-2.21-4.54-3.16-1.52-.92-3.12-1.83-4.84-2.32-1.31-.37-3.53-.92-4.76-.06-.11.08-.08.22.02.28ZM197.76,357.98c-1.86-3.03-5.07-5.5-7.77-7.78-2.77-2.34-5.63-4.57-8.54-6.73-5.78-4.29-11.9-8.15-18.16-11.69-12.74-7.21-26.29-12.88-40.35-16.94-3.69-1.07-7.43-2.13-11.23-2.7-3.33-.5-7.29-.93-10.3.86-.68.4-.45,1.68.38,1.72,3.18.17,6.26-.27,9.44.2,3.16.47,6.26,1.31,9.33,2.16,6.87,1.9,13.62,4.22,20.22,6.91,13.19,5.37,25.7,12.19,37.41,20.3,3.25,2.25,6.46,4.57,9.58,7.01,1.62,1.27,3.23,2.56,4.85,3.83,1.5,1.18,3.04,2.47,4.74,3.32.29.14.55-.21.39-.46Z"/>
          <path class="cls-1" d="M219.35,295.24c2.53-3.44,4.77-7.07,6.68-10.89.28-.55.12-1.09-.21-1.51,2.42-4.45,4.37-9.12,5.38-14.1.59-2.9.96-5.86,1.28-8.79.27-2.51.31-5.01-.43-7.44.45-.18.72-.53.85-1.02.28-.97.15-2.05-.27-2.96-.22-.45-.47-.85-.77-1.2-.07-.59-.25-1.16-.64-1.63-.52-.63-1.22-1.08-1.95-1.45h-.02c-.07-.05-.12-.09-.18-.14-.05-.04-.1-.1-.17-.14t0-.02c-.16-.36-.51-.77-.81-1.03-.68-.58-1.63-.72-2.47-.44-.56.2-1.04.53-1.44.95-2.06.59-3.81,2.5-5.19,4.23-.59.55-1.08,1.07-1.44,1.48-3.31,3.81-5.17,8.65-8.59,12.37-1.46,1.59-3.3,2.9-5.4,3.49-2.35.65-4.42-.14-6.51-1.15-.6-1.06-1.21-2.11-1.81-3.16-.21-.36-.49-.58-.8-.7,3.69-4.04,5.9-9.52,7.34-14.69,1.88-6.76,2.34-13.93,1.31-20.86-.98-6.61-3.1-12.95-4.7-19.42-1.64-6.7-2.25-13.34-.85-20.16,1.63-8.04,6.16-15.24,10.64-21.98.17-.25.21-.52.16-.76,5.74-6.48,11.96-12.88,19.11-17.81,3.98-2.74,8.37-5.06,12.97-6.53.13-.05.06-.22-.06-.2-.92.2-1.82.44-2.7.71.63-.24,1.26-.48,1.89-.7.04-.01.02-.07-.03-.07-4.49,1.11-9,2.47-13.16,4.5-3.97,1.92-7.72,4.22-11.4,6.67-3.43,2.27-6.61,4.9-9.56,7.77-.08.05-.15.1-.23.15-3.09,2.55-5.73,5.51-7.91,8.83-2.37,3.06-4.47,6.33-6.04,9.89-2.72,6.15-3.53,12.89-3.17,19.57.69,13.23,5.45,25.78,6.7,38.94.34,3.61.44,7.26.04,10.88-.09.8-.21,1.6-.35,2.4-.14.42-.29.84-.47,1.25-1.61,3.83-4.1,7.22-5.47,11.12-.08.05-.17.08-.26.12-.52-.18-1.12-.13-1.6.21-1.87,1.28-3.99,2.22-6.22,2.72-.13-.03-.26-.09-.37-.2-.56-.57-1.52-.49-2.15-.05-.57-.48-1.09-.99-1.57-1.48-1.24-1.25-2.84-2.7-3.1-4.54-.25-1.76.63-3.58,1.19-5.2.65-1.86,1.31-3.71,1.91-5.58,1.21-3.79,2.24-7.65,2.43-11.65.17-3.62,0-8.41-3.29-10.72-3.61-2.54-8.07-.66-11.05,1.91-3.51,3.02-6.54,6.58-9.43,10.18-2.89,3.6-5.6,7.34-8.08,11.23-8.97,14.13-14.73,30.66-13.31,47.58.35,3.97,1.08,7.94,2.26,11.76.78,2.54,1.88,4.96,3.59,6.8-.07.48-.05.99.08,1.48.51,2.02,2.63,3.43,4.71,3,.28-.06.53-.17.76-.29.24.2.48.41.75.58,2.25,1.59,4.93,1.89,7.5.94,5.38-1.99,9.79-7.02,10.64-12.71.43-2.88.28-5.84.38-8.75.1-2.74.32-5.49.73-8.22.43-2.84,1.07-5.64,2.1-8.33.65-1.69,1.4-3.47,2.47-4.99l.8-.65c1.36-1.09,2.76-2.16,4.27-3.02,1.09-.37,2.24-.6,3.38-.76.12,1.34,1.35,2.64,2.82,1.93,1.76-.87,3.53-1.73,5.3-2.6.04-.01.07-.03.1-.04,1.02-.05,2.04-.05,3.08-.06-.08,1.6,0,3.21.3,4.8.46,2.47.97,4.87.69,7.39-.27,2.34-.97,4.57-1.94,6.72-2.22,4.88-5.75,8.96-9.07,13.1-.26.32-.52.67-.79,1.01-.89.59-1.79,1.18-2.64,1.82-2.12,1.62-3.75,3.91-4.11,6.6-.35,2.57.63,5.22,2.74,6.8,1.64,1.23,3.72,1.73,5.71,1.41.73-.04,1.45-.26,2.11-.69.5-.33.77-.92.75-1.5,1.58-.39,3.14-1.03,4.48-1.63,5.08-2.22,10.25-4.3,15.18-6.83.95-.48,1.86-1.01,2.76-1.55,3.63-1.39,6.89-4.74,9.17-7.3.56-.63,1.1-1.26,1.63-1.91.39.03.79-.12,1.13-.53.67-.83,1.31-1.69,1.93-2.55ZM174.58,311.59c.01,1.19.31,2.39,1.05,3.59.03.05.06.1.1.15-.99-1.02-1.32-2.37-1.15-3.75Z"/>
          <path class="cls-2" d="M152.43,272.07c.15-.08.04-.28-.1-.28-6.94.07-11.55,7.09-13.07,13.17-1.42,5.69-2.52,17.8,3.07,21.79,4.4,3.14,10.12-.33,12.13-4.59,2.94-6.21,1.14-14.56-4.22-18.79-.24-.19-.5-.21-.71-.13,1.44-2.02,3.15-3.77,5.09-5.51.54-.49-.03-1.42-.67-.97-4.19,2.98-7.24,7.43-8.86,12.28-.91,2.73-2.52,8.43,1.28,9.94,5.33,2.11,5.25-10.12-.68-6.92.01-.06.02-.12.03-.17.39-1.93,1.08-3.79,1.94-5.56.41-.84.86-1.62,1.35-2.36,0,.14.02.29.09.43,2.36,4.34,4.34,8.78,3.58,13.85-.46,3.01-2.22,7.51-6.07,7.74-5.96.36-6.12-6.58-6.38-10.16-.76-10.8,2.61-18.58,12.18-23.75Z"/>
          <path class="cls-2" d="M162.94,251.65c2.77.91,5.19-1.98,6.48-3.98,3.99-6.2,4.09-14.83-5.1-14.13-7.59.58-10.69,12.75-10.85,18.85-.18,6.6,2.33,17.11,10.47,17.33.47.01.41-.65.03-.76-8.9-2.55-10.25-14.21-8.36-21.9.73-2.97,2.5-8.2,5.13-10.13,4.64-3.4,10.54-1.26,9.67,5.31-.37,1.08-.74,2.16-1.11,3.24-.78,2.78-2.38,3.89-4.8,3.34,1.35-1.04,2.51-3.06,2.86-4.25,1.02-3.48-.18-8.24-4.8-6.07-7.97,3.75-10.48,25.47,1.83,23.99.38-.05.41-.5.12-.68-2.57-1.6-5-1.81-6.3-4.89-1.04-2.45-.82-5.59-.21-8.13.59-2.46,1.62-4.94,3.23-6.93l1.55-1.62c1.28.42,2.56.83,3.84,1.25,1.01,1.77-2.23,5.94-4.1,6.59-.18-.09-.36-.18-.55-.28.1-.37-.47-.52-.63-.19-.04.08-.06.15-.09.22-.17.04-.31.21-.19.41,0,0,.01.01.02.02-.44,1.48.18,2.84,1.88,3.4Z"/>
          <path class="cls-2" d="M212,63.58c2,1.68,4.99,1.42,6.67-.58s1.42-4.99-.58-6.67c-2-1.68-4.99-1.42-6.67.58s-1.42,4.99.58,6.67Z"/>
          <path class="cls-2" d="M209.94,272.93c-.52-.1-.77.56-.41.89,5.42,5.06,16.86-1.03,14.96-8.51-2.02-7.96-13.72-2.61-10.41,3.27.19.34.73.18.78-.17.33-2.17,2.02-6.25,5.04-5.33,3.58,1.1,3.22,5.19,1.3,7.54-2.96,3.62-7.19,3.08-11.25,2.31Z"/>
          <path class="cls-2" d="M220.4,298.47c.16-.51,0-1.11-.37-1.48,1.99-2.56,3.83-5.23,5.48-8.01,5.37-9.05,8.78-19.36,9.1-29.93.18-6.16-.35-20.21-9.82-18.62-4.65.78-7.26,5.32-9.61,8.91-1.66,2.54-3.27,5.12-4.96,7.64-.78,1.16-1.54,2.36-2.48,3.39l-2.27,2.08c-3.75,2.64-6.19,1.43-7.32-3.61,5.25-6.42,7.99-17.37,8.14-25.03.2-9.86-3.33-19.08-5.74-28.48-3.11-12.14-2.17-23.86,4.22-34.82,3.39-5.81,7.84-10.91,12.69-15.53,4.93-4.7,10.94-8.47,15.43-13.59.21-.23-.1-.5-.34-.37-10.38,5.34-20.83,15.83-27.34,25.43-5.67,8.37-9.11,18.07-8.42,28.26.69,10.18,4.55,19.82,6.14,29.84,1.04,6.58.54,13.06-1.61,19.38-1.82,5.33-5.78,10.32-6.65,15.86-.08.54.37,1.11.9,1.23.56,2.15,2.58,4.03,5.16,4.32,9.32,1.03,14.34-12.83,19.1-18.44,2.7-3.18,4.93-4.96,8.12-3.55,3.31,1.46,3.15,4.54,3.73,8.82.42,3.1.39,6.31.14,9.42-.47,5.75-1.87,11.39-4.02,16.74-2.69,6.72-6.75,14.16-11.99,20.05-5.64,3.37-10.29,8.37-16.13,11.62-3.9,2.17-8.14,3.97-12.38,5.41-4.01,1.36-16.1,5.27-14.35-3.79.87-4.5,5.63-8.76,8.45-12.12,2.79-3.32,6.29-6.57,8.55-10.25,1.12-1.82,1.52-3.16,1.08-5.35-1.01-5.05-2.38-8.86-1.65-14.17.15-1.11-1.11-2.01-2.07-1.32-2.73,1.95-5.29,2.91-8.01,3.33.48-1.06-.21-2.64-1.57-2.36-6.79,1.39-12.84,5.82-14.81,12.66-2.1,7.31-.19,14.64.3,21.99.43,6.51-4.3,10.13-9.96,12.12-5.49,1.93-10.48,1.16-13.77-4.1-4.73-7.58-5.9-18.46-5.12-27.15.79-8.77,3.91-17.45,6.85-25.7,3.31-9.29,7.9-17.77,14.38-25.26,3.18-3.67,6.71-7.7,10.88-10.26,4.42-2.7,8.88-2.17,10.21,3.34.48,1.99.48,4.15.5,6.18.07,7.46-3.62,14.4-4.16,21.64-.53.24-.94.79-.94,1.45,0,4.57,4.99,7.43,9.22,7.22,5.01-.25,8.42-4.67,10.67-8.73,6.2-11.18,4.67-24.92,2.09-36.9-3.24-15.05-8.17-29.74-1.05-44.55,7.13-14.83,23.27-27.93,38.61-33.44.06-.02.04-.1-.02-.1-5.71.14-10.36,3.45-14.92,6.62-5.45,3.79-10.72,7.89-15.32,12.7-8.17,8.54-13.37,18.96-13.87,30.86-.54,12.67,3.18,24.65,4.76,37.08.8,6.29,1.02,12.78-.55,18.98-.87,3.44-2.36,7.58-4.84,10.21-2.09,2.21-5.41,3.72-8.48,2.3-1.23-.57-2.41-2.04-3.49-3.09,1.98-7.22,5.45-14.19,5.99-21.69.42-5.86-.05-13.62-6.8-15.42-6.94-1.85-12.86,4.21-17.31,8.64-6.57,6.54-12.05,14.2-15.92,22.64-6.82,14.88-12.6,32.67-9.78,49.15,1.12,6.53,3.18,15.05,8.5,19.48,4.92,4.1,11.61,3.27,17.08.77,7.68-3.5,11.4-8.45,10.38-16.89-.62-5.1-1.37-10.29-.75-15.45.47-3.9,1.54-6.97,4.66-9.56,1.84-1.53,4.02-2.51,6.08-3.69,3.19.27,6.53-.43,9.47-1.69-.18,3.68.51,6.99.96,10.78.78,6.63-6.43,12.45-10.48,17.2-4.38,5.13-11.59,13.58-4.85,19.97,5.68,5.39,19.28.16,25.29-2.43,8.47-3.65,19.98-9.52,22.99-18.8Z"/>
          <path class="cls-2" d="M199.54,294.66c.24.56,1.05.51,1.18-.1,1.26-5.84-6.62-5.57-9.32-2.13-3.22,4.12-4.41,15.12,2.82,15.81,8.98.85,13.13-9.1,14.47-16.19,1.47-7.72.24-16.54-8.1-19.49-.52-.18-.88.57-.36.79,8.92,3.71,8.35,13.85,5.61,21.45-1.12,3.12-2.37,6.05-4.94,8.25-1.09,1.08-2.39,1.82-3.9,2.21-1.81-1.07-3.63-2.14-5.44-3.21.01-.85.03-1.7.04-2.55-.03-3.75,2.61-5.36,7.93-4.84Z"/>
          <path class="cls-2" d="M217,256.37c-1.37,1.86-2.28,3.97-3.8,5.76-1.49,1.76-3.25,3.2-4.91,4.78-.35.33.11.95.53.77,4.12-1.74,8.5-6.25,9.56-10.66.18-.75-.93-1.26-1.39-.64Z"/>
          <path class="cls-2" d="M270.04,136.65c-2.28-1.74-3.05-6.54-3.24-8.97-.18-2.2-.22-4.51.23-6.68.03-.15.09-.29.13-.43,25.13.6,51.95-12.52,63.3-35.53-15.44,12.36-32.16,21.17-49.8,29.05-1.87-3.23-4.46-6.84-6.58-8.19,1.66-7.29,2.05-14.56,1.66-21.86.81-.86,1.72-1.61,2.47-2.52.84-1.02,1.34-2.24,1.2-3.58-.06-.59-.26-1.17-.51-1.72-.11-.29-.24-.57-.44-.83,0,0-.02-.01-.02-.02,0-.01-.02-.03-.03-.04.32-.46.58-.98.79-1.42.38-.8.7-1.69.8-2.58.2-1.75-.76-3.12-2-4.25-1.33-1.21-2.7-2.21-3.45-3.9-.03-.07-.05-.15-.08-.22-.15-1.41-.32-2.83-.5-4.24.03-.24-.08-.72-.09-.69-.61-4.49-1.49-8.96-3.11-13.17-1.33-3.44-3.17-6.65-5.19-9.72-.07-.11-.14-.21-.21-.32-.72-1.65-1.55-3.27-2.55-4.84-7.67-12.02-20.33-20.88-33.99-24.64-20.38-5.62-50.88-2.26-65.8,6.94-20.5,12.64-28.35,35.52-29.97,58.48-1.85,26.12.74,52.59.97,78.74.23,26.6-.5,53.52-5.12,79.77-4.66,26.44-13.44,51.38-25.97,74.97-.71,1.33-9.89,16.89-17.38,29.58.93,1.14,1.82,2.3,2.63,3.51.15.22.29.45.43.68,7.82-12.86,17.97-29.69,18.87-31.02,25.7-37.87,32.71-87.29,34.09-131.97.8-25.87-.27-51.75-.94-77.62-.59-22.74-.95-49.12,14.34-67.69,8.82-10.72,22.19-17.05,35.74-19.16,11.5-1.79,29.17-1.53,39.2,1.22,13.29,3.64,22.85,12.91,30.1,24.58,4.46,7.18,7.86,15.24,10.16,23.67,0,.02,0,.04,0,.06.06.38.14.74.23,1.11-2.83-4.71-7.59-8.26-14.16-9.19-6.46-.92-12.64,1.73-16.86,6.13.94-3.67.97-7.86,1.46-11.25.68-4.76,1.42-9.5.14-14.22-.1-.36-.59-.19-.59.13-.08,6.82-1.35,13.45-2.66,20.08-1-4.12-2.8-8.27-4.33-11.69-2.69-6.01-6.87-11.23-12.16-15.13-.13-.1-.28.08-.16.2,5.47,5.1,8.68,11.43,11,18.46.72,2.18,1.18,4.56,1.69,6.93-.55-1.02-1.12-2-1.71-2.88-4.56-6.79-11.65-11.89-19.53-14.07-17.64-4.87-36.44,4.07-46.35,18.9-9.18,13.72-9.7,35.06,1.8,47.69,6.29,6.92,14.93,9.99,23.84,10.24-.5.08-1,.16-1.51.23-5.3.72-10.77-.16-15.97.69-.23.04-.29.33-.08.44,4.86,2.49,11.84,2.11,17.14,1.57,6.04-.62,11.97-2.3,17.47-4.85,3.12-1.45,6.09-3.17,8.9-5.13.2-.12.4-.24.59-.37-.64.71-1.28,1.41-1.95,2.1-8.05,8.36-16.55,15.33-28.65,12.71-.46-.1-.78.56-.39.85,8.84,6.6,20.97.27,27.96-5.94,5.13-4.56,9.7-9.7,13.71-15.27,2.59-3.6,6.42-8.12,7.78-12.71,1.84,2.89,4.24,5.5,6.04,7.12,5.47,4.91,14.56,9.58,22.1,9.13.36-.02.55-.54.24-.76-3.42-2.45-7.35-3.95-11.17-5.75,1.54-.22,3.05-.67,4.52-1.27,1.01-.21,2.01-.51,2.97-.91,1.9-.8,3.48-2.03,5.12-3.24,1.76-1.3,3.75-2.59,6.05-2.27.7.09.85.4.9.37-.16,5.54-.82,11.02-1.99,16.33-3.92-1.67-8.42-1.89-12.66.02-4.9,2.21-7.68,6.78-9.79,11.49-.01,0-.03,0-.04,0-3.21.28-6.25,1.79-9.5,2.15-3.58.4-6.93.19-10.25-1.3-.13-.06-.25.12-.14.21.45.36.94.67,1.44.96.66,1.24,1.76,2.12,3.02,2.73.2.11.41.2.63.28,1.58.64,3.36.93,4.91,1.06,2.17.17,5.17.25,7.59-.54-1.11,3.02-1.84,6.12-1.39,9.39.11.78,1.25.68,1.22-.11-.25-7.06,5.57-16.67,11.13-20.76,7.26-5.34,14.56-.7,18.04,6.08-2.77,1.2-5.57,2.39-8.39,3.57.5-1.37,1.22-2.63,1.34-4.11.01-.14-.12-.3-.27-.23-5.08,2.33-4.66,12.67-3.76,17.18.55,2.78,1.73,5.82,3.97,7.69,1.95,1.63,3.73.91,5.69-.28,1.69-1.02.21-3.37-1.49-2.91-.92.25-1.68.07-2.35-.29,4.04-.35,7.97-.36,11.83-.14.01,1.92-.17,3.89-.83,5.75-1.81,5.13-4.46,11.14-8.44,14.89-3.36,3.16-8.12,4.62-12.57,3.72-.1-.04-.21-.06-.31-.06-1.14-.26-2.26-.66-3.33-1.25-.79-.43-1.48-.92-2.08-1.46-.32-1.31-1.21-2.3-2.38-3.03-1.76-3.31-1.95-7.43-1.73-11.32.03-.56-.69-.84-.97-.3-1.84,3.55-1.82,7.13-.6,10.32-.96-.23-1.94-.35-2.83-.39-5.4-.25-10.49,2.46-14.6,5.75-5.67,4.54-17.53,16.23-8.03,23.27.29.21.67-.05.57-.39-2.78-9.29,3.51-14.93,10.9-19.39,3.55-2.14,7.4-4.62,11.77-3.93,2.52.4,4.26,2.17,6.84,2.14.18,0,.36-.08.53-.18,1.56,1.26,3.34,2.29,5.22,3.02,2.73,17.37-.17,36.13-4.13,53.03-4.23,18.07-9.71,35.87-16.35,53.2-7.12,18.56-15.28,36.75-24.79,54.2-4.82,8.83-10.01,17.44-15.54,25.84-4.19,6.38-8.89,12.98-12.69,19.79,2.01-.75,4.03-1.49,6.05-2.19.95-.33,1.92-.7,2.9-.97,3.8-4.44,7.22-9.28,10.23-13.86,5.49-8.35,10.63-16.92,15.42-25.69,9.98-18.28,18.49-37.35,25.84-56.83,6.66-17.64,12.34-35.65,15-54.36,2.35-16.49,4.55-34.99.4-51.43,2.64.63,5.38.64,7.94-.15,7.56-2.34,11.42-10.08,14.38-16.78,1.32-3,2.57-6.84,2.81-10.58,14.96,1.76,28.37,8.02,39.28,19.68-4.97-23.2-37.31-33.92-56.21-20.12ZM229.82,84.09c-4.71,8.82-13.22,15.68-22.52,19.15-8.77,3.28-19.07,3.82-27.66-.34-8.76-4.24-14.98-14.24-16.03-23.83-2.25-20.6,14.34-37.96,34.33-39.48,8.74-.66,17.51,1.84,24.1,7.72,3.36,3,6.63,6.92,8.7,10.94.15.29.27.58.4.87,1.56,8.58,3.22,16.48-1.31,24.96ZM238.29,74.84c-.47-2.06-.09-4.34.32-6.38.34-1.7.89-3.36,1.7-4.89,1.95-2.79,4.75-5.3,7.8-6.5,3.42-1.35,8-1.08,11.49-.11,3.41.94,6.48,3.29,8.53,6.19-.15.15-.3.3-.46.42-.54.41-1.24.59-1.87.79-.62.19-1.28.29-1.84.62-.44.26-.92.77-1.06,1.28,0,0-.02,0-.02,0-.05.01-.06.08,0,.09,1.4.4,2.88.47,4.3.76,1.48.3,2.92.74,4.37,1.17,1.32.39,3.15.83,3.86,2.16.55,1.03.02,1.99-.32,2.96-.65-.19-1.29-.35-1.85-.5-1.77-.48-3.57-.84-5.38-1.09-3.65-.5-7.37-.52-11.05-.29-3.79.24-7.55.77-11.28,1.45-1.82.33-3.65.68-5.42,1.24-.51.16-1.15.37-1.8.63,0,0-.02-.01-.02-.02ZM271.96,79.57c-1.76,0-3.51-.22-5.27-.26-.03,0-.06,0-.1,0-.49-.06-1-.08-1.48-.07-.65.02-1.29.22-1.87.5-.58.28-1.16.76-1.24,1.44,0,.07.03.13.07.18.02.07.08.12.15.12.29-.01.51-.03.79.08.31.12.6.3.9.44.64.31,1.29.63,1.87,1.03.34.23.78.52,1.07.88.06.25.05.52-.06.81-.62,1.58-2.74,2.86-4.12,3.7-3.17,1.91-7.03,2.56-10.66,1.97-3.74-.61-6.8-2.44-9.6-4.92-1.37-1.22-2.84-2.95-3.44-4.7-.28-.82-.43-1.69-.42-2.56,0-.38.07-.75.14-1.12,1-.85,2.49-1.36,3.64-1.68,2.09-.59,4.21-1.08,6.36-1.39,3.94-.58,7.95-.8,11.93-.71,4.03.1,8.16.45,12.1,1.33,1.77.4,3.84,1.55,3.61,3.42-.1.24-.25.46-.46.66-.27.25-.62.42-.99.54-.96.16-1.93.26-2.91.3Z"/>
          <path class="cls-2" d="M456.02,176.3c-1.75,12.67,1.28,24.98,10.15,36.85l4.55,1.81-1.63-8.3c-6.91-9.39-11.32-18.77-13.06-30.36Z"/>
          <path class="cls-2" d="M647.97,58.64l1.09,4.78c6.19,6.73,9.46,14.93,11.5,23.76-.99-11.59-3.06-21.84-7.96-28.55h-4.63Z"/>
          <path class="cls-2" d="M438.69,46.37l.39,4.89c5.15,7.55,7.19,16.15,7.93,25.18.7-11.61.14-22.05-3.73-29.4l-4.58-.67Z"/>
          <path class="cls-2" d="M519.38,96.82c1.55-11.03,5.46-21.52,15.18-30.63l1.38-6.88-5.51,1.19c-13.23,13.4-12.58,24.92-11.04,36.32Z"/>
          <path class="cls-2" d="M196.71,68.76l33.36,3.3c-1.75-11.03-8.79-20.97-15.98-29.26l-17.38,25.97ZM224.96,67.52l-21.33-1.76,10.95-17.26c5.32,6.62,9.35,13.04,10.37,19.02Z"/>
          <path class="cls-2" d="M833.53,45.03c-17.22,7.62-20.84,18.58-23.58,29.75,5.48-9.7,12.96-18.02,25.35-22.94l3.8-5.9-5.57-.91Z"/>
          <path class="cls-2" d="M752.81,43.23l-5.62-1.59,3.46,10.59c15.9,13.19,26.12,31.41,32.64,52.89-4.07-24.55-11.65-46.85-30.47-61.89Z"/>
          <path class="cls-2" d="M733.21,203.26l1.19,6.8c8.85-9.61,11.75-21.34,9.95-34.74-1.39,11.34-4.19,21.45-11.14,27.94Z"/>
          <path class="cls-2" d="M433.17,143.51c-1.82.38-3.72.47-5.7.26-1.98-.21-3.87-.68-5.66-1.4-2.13-.86-4.19-2.03-6.18-3.52-1.99-1.48-3.66-3.21-5.01-5.16-1.39-2.08-2.49-4.35-3.27-6.78-.79-2.43-1.18-4.79-1.17-7.08-.08-2.67.17-5.24.75-7.72.57-2.48,1.33-4.88,2.27-7.2.85-1.99,1.93-3.82,3.22-5.49,1.29-1.67,2.82-3.09,4.59-4.27,1.34-.82,2.78-1.48,4.32-1.97,1.54-.49,3.16-.77,4.84-.84,1.56-.04,3.17.16,4.81.59,1.64.43,3.25.98,4.81,1.67,2.12.92,4.2,2.13,6.22,3.64,2.02,1.51,3.7,3.25,5.05,5.24.77,1.19,1.42,2.46,1.95,3.81.53,1.35.91,2.71,1.15,4.09.36,1.99.5,3.99.43,6.02-.08,2.03-.34,3.99-.78,5.9-.63,2.86-1.58,5.6-2.83,8.2-1.25,2.61-2.82,4.91-4.72,6.88-1.26,1.28-2.66,2.37-4.21,3.26-1.55.89-3.17,1.51-4.88,1.86ZM427.38,121.71c0,1.52.37,2.94,1.13,4.25.76,1.31,1.89,2.02,3.39,2.11,1.32.11,2.43-.2,3.33-.92.9-.72,1.62-1.67,2.18-2.84.56-1.17.95-2.48,1.18-3.92.23-1.44.34-2.84.34-4.18-.02-1.17-.13-2.36-.32-3.57-.19-1.21-.69-2.27-1.48-3.19-.53-.58-1.1-.93-1.69-1.05-.6-.13-1.19-.09-1.79.1-.59.19-1.16.51-1.68.95-.53.44-.99.94-1.38,1.49-.99,1.53-1.76,3.22-2.31,5.05-.55,1.84-.85,3.74-.89,5.72ZM463.55,151.01c-.7.02-1.56-.05-2.58-.23-1.03-.18-2.05-.43-3.06-.75-1.02-.33-1.95-.74-2.81-1.26-.86-.51-1.46-1.09-1.81-1.73-.41-.65-.66-1.33-.75-2.04-.09-.71-.13-1.42-.13-2.12,0-1.46.13-2.89.39-4.3.26-1.41.54-2.81.86-4.19.31-1.38.61-2.77.9-4.18.29-1.41.49-2.83.6-4.27.07-1.56.05-3.12-.06-4.68-.11-1.56-.23-3.12-.36-4.69-.13-1.56-.21-3.12-.23-4.67-.02-1.55.12-3.08.41-4.61.39-2.03,1.26-3.66,2.61-4.91,1.34-1.24,2.87-2.02,4.57-2.35,1.7-.33,3.44-.15,5.21.53,1.77.68,3.27,1.91,4.52,3.69.72,1.08,1.15,2.27,1.28,3.56.13,1.29.2,2.58.21,3.86,1.11-1.6,2.47-3.02,4.07-4.26,1.6-1.23,3.35-2.15,5.25-2.77,1.96-.6,4.04-.83,6.26-.67,2.21.15,4.27.71,6.16,1.68,2,.98,3.6,2.4,4.78,4.28.88,1.28,1.53,2.69,1.96,4.22.43,1.54.75,3.06.98,4.58.34,2.22.54,4.46.59,6.72.05,2.26.21,4.52.5,6.8.17,1.46.25,2.91.22,4.35-.03,1.44-.13,2.88-.3,4.31-.1,1.21-.25,2.43-.47,3.65-.22,1.23-.57,2.41-1.06,3.53-.21.51-.47,1.01-.77,1.51-.3.5-.67.94-1.1,1.31-.87.75-2.03,1.32-3.48,1.7-1.45.38-2.95.59-4.52.6-1.56.02-3.12-.12-4.65-.4-1.54-.28-2.84-.68-3.9-1.19-.56-.23-1.03-.54-1.4-.92-.59-.64-.97-1.37-1.17-2.2-.19-.83-.32-1.65-.37-2.47-.05-1.51.07-3.01.36-4.48.29-1.48.55-2.96.79-4.44.45-2.79.91-5.59,1.37-8.38.46-2.79.62-5.59.5-8.38-.02-.47-.08-.98-.18-1.54-.1-.56-.23-1.1-.39-1.61-.16-.51-.4-.94-.72-1.29-.32-.35-.71-.55-1.17-.6-.52-.06-1.09.03-1.71.25-.63.22-1.22.55-1.77.98-.55.43-1.07.89-1.54,1.39-.47.5-.82.99-1.03,1.49-.74,1.25-1.16,2.59-1.28,4.03-.12,1.44-.17,2.88-.17,4.33.06,2.15.18,4.29.35,6.4.18,2.11.21,4.23.1,6.37-.05,1.39-.28,2.78-.68,4.18-.4,1.4-1.08,2.6-2.02,3.59-1.01,1.04-2.25,1.77-3.73,2.19-1.48.42-2.94.59-4.38.51ZM522.25,158.99c-1.57.06-3.1-.28-4.58-1.01-1.48-.73-2.73-1.66-3.74-2.81-1.44-1.57-2.57-3.39-3.4-5.46-.82-2.06-1.41-4.15-1.76-6.25-.55-3.27-.72-6.57-.51-9.91.21-3.34.5-6.64.88-9.91.41-2.92.92-5.84,1.53-8.75.61-2.91,1.35-5.78,2.22-8.62.39-1.25.87-2.46,1.43-3.65.56-1.18,1.2-2.33,1.93-3.45.72-1.06,1.53-2.04,2.42-2.95.89-.91,1.88-1.65,2.97-2.24,1.76-.96,3.54-1.43,5.34-1.42,1.16-.01,2.33.16,3.49.51,1.16.36,2.27.81,3.33,1.36.77.43,1.47.96,2.08,1.61.61.65,1.09,1.38,1.43,2.2.44,1.05.63,2.18.6,3.38-.04,1.21-.19,2.39-.46,3.53-.69,2.86-1.55,5.66-2.58,8.4-1.03,2.74-1.98,5.51-2.84,8.3-.85,2.63-1.55,5.26-2.11,7.89-.56,2.63-1.06,5.3-1.51,7.99-.23,1.38-.41,2.75-.55,4.13-.14,1.38-.12,2.76.06,4.15.1.98.28,1.95.55,2.91.27.96.42,1.96.45,3,.04.92-.1,1.81-.43,2.67-.33.85-.79,1.59-1.39,2.2-.6.62-1.32,1.13-2.17,1.53-.85.4-1.74.62-2.67.64ZM554.83,178.32c-1.97.05-3.91-.17-5.8-.67-1.9-.5-3.68-1.22-5.34-2.16-1.27-.7-2.47-1.56-3.57-2.55-1.11-1-2.01-2.13-2.72-3.41-.41-.7-.71-1.47-.9-2.31-.19-.84-.28-1.69-.27-2.55.11-1.32.51-2.45,1.23-3.39.71-.94,1.59-1.65,2.65-2.15,1.05-.5,2.2-.77,3.45-.81,1.25-.04,2.46.2,3.63.73.95.41,1.9.85,2.85,1.32.95.47,1.96.79,3.05.97.8.12,1.59.21,2.37.27.78.06,1.58-.05,2.41-.34.72-.29,1.39-.7,2.01-1.25.62-.55,1.13-1.14,1.53-1.77,1.12-1.67,1.8-3.52,2.05-5.57.25-2.04.4-4.04.44-5.99-.74,1.33-1.64,2.53-2.68,3.63-1.04,1.09-2.2,2.02-3.48,2.76-1.45.8-3.03,1.4-4.74,1.8-1.71.39-3.33.44-4.87.14-1.94-.3-3.57-.96-4.88-1.96-.93-.7-1.74-1.52-2.45-2.45-.71-.93-1.28-1.92-1.71-2.97-.58-1.45-.96-2.98-1.15-4.6-.19-1.61-.25-3.23-.18-4.84.18-2.24.4-4.48.67-6.72.27-2.24.69-4.45,1.27-6.62.41-1.55.93-3.1,1.55-4.68.62-1.57,1.41-3.01,2.39-4.32,1.03-1.31,2.29-2.21,3.78-2.71,1.19-.39,2.4-.57,3.65-.56,1.24.01,2.37.24,3.37.67,1.01.44,1.84,1.08,2.49,1.91.66.84.99,1.86,1.01,3.07.02.46.01.92-.02,1.38-.04.46-.07.92-.11,1.38-.27,2.59-.65,5.16-1.14,7.72-.5,2.56-.99,5.13-1.49,7.71-.09.4-.16.91-.21,1.51-.05.6-.08,1.22-.11,1.85-.02.63.03,1.22.16,1.77.13.55.33.94.6,1.17.32.29.66.42,1.01.39.35-.03.71-.14,1.07-.34.36-.2.72-.49,1.07-.86.35-.37.68-.76,1-1.16.96-1.21,1.68-2.56,2.15-4.05.14-.34.34-1.02.6-2.03.25-1.01.51-2.07.78-3.19.26-1.12.51-2.17.73-3.15.22-.98.35-1.67.38-2.07.22-1.26.4-2.51.56-3.75.16-1.24.43-2.46.81-3.67.35-.8.76-1.58,1.23-2.33.46-.75,1.03-1.35,1.71-1.82.55-.4,1.28-.78,2.17-1.13.9-.35,1.83-.6,2.79-.75.97-.15,1.9-.2,2.79-.15.89.05,1.65.21,2.26.49.61.34,1.13.81,1.58,1.4.44.6.78,1.21,1.02,1.84.53,1.26.82,2.57.85,3.95.03,1.38,0,2.76-.11,4.14-.1,1.9-.29,3.81-.59,5.74-.3,1.93-.53,3.87-.68,5.82-.21,3.28-.48,6.55-.83,9.83-.35,3.28-1.03,6.53-2.04,9.76-.85,2.59-1.92,5.15-3.22,7.66-1.3,2.51-2.88,4.84-4.73,6.98-1.08,1.22-2.24,2.37-3.49,3.47-1.25,1.1-2.59,2-4.04,2.69-1.21.64-2.46,1.1-3.76,1.39-1.3.29-2.58.46-3.86.52ZM606.17,156.05c-1.57.84-3.27,1.4-5.08,1.7-1.82.3-3.52.2-5.1-.29-1.35-.43-2.67-1.03-3.94-1.78-1.27-.75-2.35-1.67-3.25-2.74-1.37-1.64-2.27-3.44-2.69-5.38-.6-2.57-.94-5.2-1.02-7.86-.08-2.67.06-5.38.39-8.14.38-3.28.99-6.57,1.84-9.89.84-3.31,1.91-6.53,3.2-9.65.35-.81.75-1.63,1.2-2.47.44-.84.98-1.58,1.61-2.22.64-.76,1.48-1.36,2.53-1.81,1.05-.45,2.16-.76,3.33-.92,1.17-.17,2.33-.19,3.48-.07,1.15.12,2.14.34,2.98.67.5.28.98.57,1.45.87.47.31.88.68,1.25,1.13.41.62.75,1.31,1.01,2.04.26.74.44,1.51.55,2.31.25,2.63.01,5.22-.71,7.76-.6,2.37-1.35,4.68-2.25,6.93-.91,2.26-1.71,4.57-2.42,6.94-.24.81-.45,1.64-.64,2.51-.19.87-.28,1.7-.29,2.5.04.92.28,1.72.72,2.4.44.68,1.1.9,1.99.65.53-.13,1.05-.48,1.56-1.07.51-.58.97-1.24,1.37-1.97.4-.73.75-1.48,1.05-2.26.29-.78.52-1.46.68-2.04.91-2.66,1.65-5.4,2.22-8.23.41-1.56.69-3.13.81-4.71.13-1.58.4-3.15.81-4.71.26-1.04.66-2.05,1.2-3.04.54-.99,1.16-1.89,1.87-2.71.63-.64,1.42-1.14,2.37-1.47.95-.34,1.95-.56,3-.67,1.05-.11,2.09-.1,3.12.02,1.03.12,1.94.32,2.73.59,1.12.44,2.02,1.11,2.7,2.01.74.9,1.23,1.94,1.49,3.11.25,1.17.39,2.33.42,3.48.07,2.75-.08,5.53-.45,8.32-.37,2.79-.49,5.56-.36,8.31.05.8.16,1.63.32,2.49.16.86.44,1.66.85,2.39.35.62.86,1.12,1.53,1.48.66.36,1.35.5,2.05.43.7-.07,1.3-.34,1.8-.81.5-.47.92-1.05,1.27-1.75.34-.7.62-1.44.83-2.25.21-.81.4-1.56.57-2.25.43-2.53.65-5.05.65-7.55,0-2.5-.2-4.95-.58-7.35-.27-1.66-.66-3.32-1.16-4.97-.51-1.65-.66-3.35-.46-5.07.08-.98.37-1.78.89-2.43.32-.35.67-.64,1.07-.88.4-.24.83-.42,1.3-.54.35-.06.78-.16,1.28-.28.5-.12,1.01-.19,1.53-.2.52,0,1.01.03,1.47.1.46.08.79.23,1,.46.48.51.93,1.38,1.35,2.6.42,1.23.81,2.54,1.16,3.94.35,1.4.63,2.78.84,4.12.21,1.35.37,2.36.49,3.05.43,3.27.67,6.58.72,9.94.05,3.36-.27,6.71-.94,10.05-.45,2.02-1.09,4.05-1.92,6.1-.83,2.05-1.98,3.89-3.44,5.52-1.08,1.22-2.31,2.28-3.68,3.16-1.37.88-2.83,1.57-4.37,2.06-1.37.43-2.76.71-4.19.85-1.43.14-2.83.09-4.19-.17-2.57-.41-4.9-1.36-6.97-2.86-1.91-1.39-3.47-3.19-4.69-5.41-1.21-2.21-2.04-4.52-2.48-6.92-.59,1.62-1.27,3.2-2.03,4.74-.76,1.54-1.63,3.04-2.62,4.49-.78,1.11-1.68,2.15-2.68,3.11-1,.97-2.11,1.78-3.32,2.44ZM691.57,155.91c-.72.33-1.56.55-2.53.65-.96.1-1.9.1-2.82,0-.92-.1-1.78-.32-2.59-.67-.81-.35-1.45-.85-1.92-1.48-.53-.64-.87-1.4-1.03-2.29-.16-.89-.26-1.77-.31-2.63-1.24,1.03-2.57,1.96-4,2.79-1.43.83-2.91,1.48-4.45,1.94-1.72.58-3.51.87-5.36.88-1.85,0-3.53-.38-5.03-1.17-1.28-.68-2.34-1.63-3.2-2.86-.86-1.23-1.46-2.55-1.81-3.99-.62-2.4-.65-4.92-.09-7.54.56-2.62,1.56-5.03,3.01-7.23.92-1.39,2.06-2.63,3.42-3.74,1.36-1.1,2.74-2.06,4.14-2.88,2.06-1.16,4.19-2.13,6.4-2.91,2.2-.78,4.42-1.43,6.66-1.94.82-.17,1.35-.64,1.59-1.42.24-.78.06-1.42-.54-1.94-.38-.35-.87-.53-1.47-.57-.61-.03-1.23.03-1.88.17-.65.14-1.3.34-1.96.6-.66.26-1.2.53-1.63.82-1.15.64-2.23,1.36-3.25,2.17-1.02.81-2.13,1.5-3.34,2.09-.96.47-2,.76-3.11.88-1.11.12-2.11,0-3-.4-.9-.39-1.66-1.15-2.29-2.26-.63-1.11-.85-2.16-.66-3.14.21-1.21.84-2.32,1.87-3.34,1.04-1.02,2.25-1.92,3.65-2.71,1.39-.79,2.87-1.47,4.42-2.06,1.55-.58,2.92-1.05,4.1-1.4,2.07-.53,4.18-.89,6.34-1.09,2.16-.2,4.26-.15,6.32.15,1.48.24,2.91.64,4.29,1.2,1.37.56,2.6,1.34,3.67,2.33.91.88,1.68,1.88,2.32,3.01.63,1.13,1.13,2.31,1.5,3.52.49,1.85.75,3.74.8,5.67.05,1.93.08,3.84.1,5.75.08,2.65.11,5.3.1,7.95-.01,2.65-.21,5.29-.59,7.93-.23,1.38-.5,2.74-.8,4.09-.31,1.35-.83,2.62-1.56,3.81-.4.68-.9,1.32-1.5,1.91-.6.59-1.25,1.03-1.97,1.3ZM670.5,138.44c.13.52.38.9.73,1.16.35.26.79.39,1.31.39.52,0,1.05-.1,1.59-.3.54-.2,1.05-.47,1.54-.82,1.04-.69,1.96-1.56,2.77-2.63.81-1.06,1.38-2.2,1.71-3.4.08-.29.16-.69.23-1.21.07-.52,0-.89-.21-1.12-.27-.23-.69-.29-1.24-.18-.56.11-.99.23-1.29.34-.78.34-1.54.67-2.29.99-.75.32-1.47.76-2.15,1.34-.68.52-1.34,1.35-1.98,2.5-.64,1.15-.88,2.13-.71,2.93ZM722.73,158.01c-.92.64-1.96,1.14-3.11,1.48-1.16.35-2.33.52-3.51.52-1.19,0-2.33-.19-3.43-.58-1.1-.39-2.02-.98-2.77-1.75-.75-.78-1.33-1.65-1.74-2.61-.42-.97-.73-1.94-.94-2.93-.41-2.15-.6-4.3-.57-6.46.03-2.16.07-4.33.13-6.52.1-2.71.3-5.38.6-8.02.3-2.64.7-5.31,1.21-8-1.16.08-2.25-.13-3.25-.62-.44-.3-.86-.64-1.26-1.03-.4-.39-.73-.81-.98-1.28-.8-1.52-1.06-3.22-.76-5.12.3-1.89,1.15-3.37,2.57-4.43.24-.17.68-.37,1.31-.61.63-.24,1.27-.45,1.92-.64.65-.18,1.29-.35,1.91-.5.62-.15,1.1-.25,1.46-.3.42-1.66.86-3.3,1.31-4.93.45-1.63,1.16-3.14,2.14-4.55.33-.51.73-.97,1.2-1.38.47-.41,1-.72,1.59-.93.84-.37,1.69-.55,2.56-.54.87.01,1.73.09,2.58.25.97.22,1.91.58,2.82,1.09.91.51,1.6,1.18,2.05,2.01.25.48.41,1.19.48,2.15.07.96.09,1.98.06,3.08-.03,1.1-.09,2.15-.17,3.15-.08,1.01-.14,1.77-.18,2.28,1.39-.04,2.8-.08,4.22-.14,1.42-.05,2.78.08,4.09.4,1.25.26,2.29.71,3.1,1.35,1.14.9,1.95,2.06,2.41,3.48.23.77.36,1.61.41,2.51.04.9-.03,1.78-.21,2.63-.19.85-.49,1.62-.92,2.31-.43.69-.98,1.21-1.64,1.56-.67.41-1.4.67-2.19.79-.79.12-1.56.21-2.32.27-1.33.02-2.63-.06-3.88-.26-1.26-.19-2.54-.45-3.84-.75-.21,1.14-.34,2.28-.4,3.4-.06,1.12-.11,2.26-.14,3.41.02.46.02,1.23-.01,2.3-.03,1.07-.05,2.31-.08,3.72-.03,1.41-.06,2.89-.09,4.41-.04,1.53-.07,2.98-.09,4.37-.02,1.38-.05,2.63-.08,3.72-.03,1.1-.06,1.85-.09,2.25-.2,2.53-1.35,4.51-3.43,5.95ZM776.15,158.49c-2.07.5-4.23.77-6.49.8-2.26.04-4.47-.14-6.64-.52-1.71-.33-3.39-.82-5.04-1.47-1.66-.65-3.19-1.49-4.62-2.51-1.64-1.22-3.09-2.62-4.35-4.22-1.26-1.6-2.31-3.3-3.15-5.12-1.29-2.72-2.14-5.59-2.56-8.6-.42-3.02-.46-5.99-.11-8.91.29-2.17.82-4.29,1.59-6.33.77-2.05,1.81-3.94,3.1-5.68,2.22-3.22,5.12-5.73,8.67-7.5,1.38-.67,2.84-1.18,4.37-1.53,1.53-.35,3.05-.52,4.55-.51,2.37,0,4.72.43,7.06,1.3,2.33.87,4.39,2.11,6.17,3.71,1.08.98,2.05,2.09,2.9,3.33.85,1.24,1.49,2.56,1.89,3.97.54,1.89.76,3.85.66,5.87-.11,2.02-.52,3.91-1.23,5.65-.64,1.47-1.54,2.81-2.71,4.02-1.17,1.21-2.5,2.11-3.99,2.71-1.97.75-4.07.98-6.3.68-1.44-.14-2.87-.41-4.32-.83-1.44-.41-2.83-.99-4.16-1.73.01,1.28.21,2.55.6,3.81.39,1.27.95,2.43,1.67,3.51.99,1.4,2.23,2.46,3.74,3.18.94.47,1.95.78,3.01.93,1.06.15,2.08.18,3.07.09.23-.02.63-.08,1.19-.18.56-.09,1.16-.18,1.8-.26.64-.08,1.24-.13,1.79-.16.55-.03.94-.03,1.17,0,.79.18,1.48.6,2.07,1.25.58.65.99,1.34,1.22,2.08.37,1.11.5,2.3.37,3.56-.13,1.26-.57,2.29-1.33,3.1-.69.7-1.56,1.22-2.6,1.54-1.04.33-2.06.65-3.07.96ZM763.49,128.09c1.3.33,2.59.36,3.85.09,1.27-.27,2.37-.84,3.3-1.7.56-.45,1.03-.98,1.43-1.59.4-.61.65-1.29.77-2.03.17-.67.15-1.37-.05-2.1-.2-.72-.51-1.38-.93-1.96-.42-.58-.91-.91-1.48-.98-.57-.08-1.13.02-1.67.3-.54.28-1.08.69-1.62,1.23-.54.54-.97,1.14-1.32,1.79-.61,1.09-1.08,2.22-1.4,3.4-.33,1.18-.62,2.36-.89,3.55ZM806.96,165.02c-1.43.49-2.94.76-4.53.79-1.59.04-3.16-.1-4.7-.42-.91-.24-1.79-.55-2.66-.93-.87-.38-1.68-.87-2.44-1.48-.97-.89-1.71-1.81-2.21-2.78-1.3-2.57-2.15-5.28-2.56-8.12-.41-2.84-.59-5.66-.54-8.45.03-3.96.38-7.86,1.07-11.7.68-3.84,1.64-7.61,2.86-11.3.38-1.1.89-2.13,1.55-3.09.65-.96,1.41-1.77,2.28-2.42.74-.62,1.59-1.11,2.55-1.48.95-.37,1.93-.57,2.91-.61,1.62.03,3.11.55,4.48,1.54.77.51,1.44,1.14,2.02,1.88.58.74,1.09,1.51,1.55,2.32,1.95-1.26,4.12-1.96,6.5-2.09,1.46-.12,2.95.03,4.48.44,1.53.42,2.95,1.07,4.27,1.94,1.81,1.19,3.31,2.74,4.49,4.66.67,1.07,1.18,2.2,1.55,3.39.37,1.19.62,2.4.75,3.61.32,2.5.36,4.84.13,7.01-.07.86-.21,1.72-.42,2.57-.21.85-.58,1.61-1.09,2.29-.84,1.11-1.94,1.8-3.29,2.07-.53.09-1.22.1-2.09.04-.86-.06-1.74-.19-2.61-.39-.88-.2-1.71-.46-2.5-.78-.78-.32-1.42-.71-1.9-1.19-.64-.63-1.09-1.43-1.33-2.4-.24-.97-.39-1.87-.43-2.7.03-.34.05-.85.08-1.52.02-.67.05-1.38.09-2.13.03-.75.03-1.47,0-2.15-.03-.68-.12-1.19-.27-1.52-.4-.8-.99-1.22-1.77-1.26-.78-.04-1.39.24-1.85.84-.33.51-.58,1.04-.73,1.59-.16.55-.29,1.13-.4,1.75-.34,2.03-.46,4.23-.36,6.59.04,2.41.16,4.81.38,7.2.21,2.39.43,4.79.64,7.18.14,1.09.25,2.17.3,3.24.06,1.07-.01,2.11-.21,3.11-.23,1.47-.79,2.65-1.67,3.56-.63.61-1.42,1.05-2.36,1.3ZM376.91,87.63c-.55.75-1.05,1.57-1.5,2.46-.46.93-.86,1.89-1.22,2.88-.36.99-.67,2-.92,3.05-.16.66-.3,1.33-.45,1.99-1.23-.23-2.46-.49-3.68-.77.26-1.07.5-2.14.71-3.23.18-.95.29-1.94.34-2.95.05-1.01-.05-1.96-.29-2.85-.19-.69-.46-1.32-.81-1.88-.35-.56-.76-1.03-1.21-1.4-.62-.49-1.27-.89-1.95-1.21-.69-.32-1.37-.49-2.07-.49-1.07-.04-2.14.33-3.21,1.12-.66.48-1.27,1.1-1.81,1.85-.55.75-1.05,1.57-1.5,2.46-.46.93-.86,1.89-1.22,2.88-.26.71-.46,1.45-.66,2.18-.69-.15-1.38-.32-2.08-.46-.95-.18-1.94-.29-2.95-.34-1.01-.05-1.96.05-2.85.29-.69.19-1.32.46-1.88.81-.56.35-1.03.76-1.4,1.21-.49.62-.89,1.27-1.21,1.95-.32.69-.49,1.37-.49,2.07-.04,1.07.33,2.14,1.12,3.21.48.66,1.1,1.27,1.85,1.81.75.55,1.58,1.05,2.46,1.5.93.46,1.89.86,2.88,1.22.63.23,1.3.4,1.95.59-.07.51-.16,1.02-.23,1.53-.08.77-.13,1.56-.2,2.33-.17-.03-.33-.08-.49-.11-.95-.18-1.94-.29-2.95-.34-1.01-.05-1.96.05-2.85.29-.69.19-1.32.46-1.88.81-.56.35-1.03.76-1.4,1.21-.49.62-.89,1.27-1.21,1.95-.32.69-.49,1.37-.49,2.07-.04,1.07.33,2.14,1.12,3.21.48.66,1.1,1.27,1.85,1.81.75.55,1.58,1.05,2.46,1.5.93.46,1.89.86,2.88,1.22.84.3,1.72.55,2.6.79.18,1.7.47,3.39.91,5.06.45,1.73,1.09,3.26,1.92,4.58.58.97,1.31,1.76,2.18,2.39.87.63,1.77.93,2.71.91.55,0,1.09-.16,1.6-.49.51-.32.95-.73,1.32-1.24.37-.5.66-1.11.87-1.82.21-.71.32-1.45.31-2.22,0-.87-.07-1.71-.21-2.52-.14-.81-.23-1.63-.27-2.45,0,0,0-.02,0-.03,1.21.18,2.42.39,3.64.54,1.09.12,2.21.19,3.31.29.18,1.18.39,2.35.7,3.52.45,1.73,1.09,3.26,1.92,4.58.58.97,1.31,1.76,2.18,2.39.87.63,1.77.93,2.71.91.55,0,1.09-.16,1.6-.49.51-.32.95-.73,1.32-1.24.37-.5.66-1.11.87-1.82.21-.71.32-1.45.31-2.22,0-.87-.07-1.71-.21-2.52-.14-.81-.23-1.63-.27-2.45,0-.07,0-.15,0-.22.71-.04,1.43-.05,2.14-.12,1.76-.17,3.5-.48,5.23-.93,1.73-.45,3.26-1.09,4.58-1.92.97-.58,1.76-1.31,2.39-2.18.63-.87.93-1.77.91-2.71,0-.55-.16-1.09-.49-1.6-.32-.51-.73-.95-1.24-1.32-.5-.37-1.11-.66-1.82-.87-.71-.21-1.45-.32-2.22-.31-.87,0-1.71.07-2.52.21-.81.14-1.63.23-2.45.27-1.1.07-2.2.06-3.29-.03.1-.62.19-1.25.29-1.86.28-1.59.62-3.17.98-4.75.36-.03.73-.03,1.1-.06,1.76-.17,3.5-.48,5.23-.93,1.73-.45,3.26-1.09,4.58-1.92.97-.58,1.76-1.31,2.39-2.18.63-.87.93-1.77.91-2.71,0-.55-.16-1.09-.49-1.6-.32-.51-.73-.95-1.24-1.32-.5-.37-1.11-.66-1.82-.87-.71-.21-1.45-.32-2.22-.31-.87,0-1.71.07-2.52.21-.81.14-1.63.23-2.45.27-.15.01-.31,0-.46.01.36-1.4.69-2.82.97-4.27.18-.95.29-1.94.34-2.95.05-1.01-.05-1.96-.29-2.85-.19-.69-.46-1.32-.81-1.88-.35-.56-.76-1.03-1.21-1.4-.62-.49-1.27-.89-1.95-1.21-.69-.32-1.37-.49-2.07-.49-1.07-.04-2.14.33-3.21,1.12-.66.48-1.27,1.1-1.81,1.85ZM370.24,115.85c-1.48-.3-2.96-.62-4.44-.99-.31-.08-.62-.17-.93-.25.01-.06.02-.12.03-.18.26-1.46.56-2.91.89-4.36.9.13,1.79.29,2.69.4.73.08,1.48.12,2.21.19-.18,1.72-.31,3.46-.45,5.2Z"/>
        </g>
        <path class="cls-2" d="M846.34,149.32c-10.05,50.92-46.53,84.35-108.07,55.86l-5.05,7.24c83.89,35.33,117.1-12.18,113.12-63.1Z"/>
        <path class="cls-2" d="M0,298.97c36.63-5,72.52,12.61,97.86,38.28,21.42,20.87,34.89,40.36,40.34,70.35,1.56,9.03,2.21,18.26.89,27.42,0,0-1.97.34-1.97.34-8.28-15.54-15.83-30.34-24.69-45.12-8.71-14.13-15.78-29.31-26.38-42.2-10.61-12.85-23.12-24.25-37.58-32.66-14.43-8.52-31.03-13.64-48.39-14.43,0,0-.09-2-.09-2h0Z"/>
        <path class="cls-2" d="M308.65,371.92c-32.29-7.12-65.42-10.76-98-5.01-15.81,2.76-30.21,9.51-45.31,14.61-15.69,5.41-30.6,12.19-46.96,16.97,0,0-1.14-1.65-1.14-1.65,5.28-7.14,11.4-13.32,18.1-18.95,13.49-11.25,29.56-20.14,47-23.57,25.86-4.93,52.56-5.06,78.25.34,16.84,3.48,33.09,8.77,48.67,15.36l-.61,1.9h0Z"/>
      </g>
    </g>
  </g>
</svg>